{"glyphs":{"0":{"ha":833,"x_min":217,"x_max":798,"o":"m 784 496 l 753 355 q 605 64 715 170 q 416 -20 518 -20 q 302 12 348 -20 q 240 97 256 45 q 217 238 217 172 q 231 355 217 290 l 261 496 q 410 787 300 681 q 599 871 496 871 q 713 839 667 871 q 774 753 758 806 q 798 612 798 678 q 784 496 798 562 m 725 488 q 736 585 736 541 q 717 725 736 677 q 667 793 698 772 q 589 814 635 814 q 418 715 493 814 q 317 488 344 617 l 290 363 q 279 267 279 310 q 298 126 279 174 q 348 58 317 79 q 425 37 379 37 q 596 135 522 37 q 698 363 671 234 l 725 488 z "},"1":{"ha":833,"x_min":160,"x_max":685,"o":"m 628 863 l 457 57 l 652 57 q 678 51 671 57 q 685 35 685 45 q 674 10 685 20 q 640 0 663 0 l 193 0 q 167 6 174 0 q 160 23 160 12 q 171 47 160 37 q 205 57 182 57 l 400 57 l 554 784 l 356 726 q 335 722 342 722 q 321 728 327 722 q 315 744 315 734 q 322 765 315 755 q 351 781 330 774 l 628 863 z "},"2":{"ha":833,"x_min":116,"x_max":804,"o":"m 184 57 l 621 57 q 637 106 630 98 q 663 117 648 117 q 679 111 673 117 q 686 97 686 105 q 684 79 686 90 l 667 0 l 116 0 l 134 84 q 552 412 354 251 q 682 528 646 489 q 732 598 718 566 q 746 661 746 629 q 700 769 746 725 q 582 814 653 814 q 440 772 507 814 q 342 665 373 730 q 307 637 328 637 q 291 644 297 637 q 284 659 284 650 q 319 728 284 682 q 445 834 372 797 q 595 871 519 871 q 744 813 684 871 q 804 671 804 754 q 788 591 804 632 q 732 507 771 549 q 601 388 693 464 q 184 61 348 180 l 184 57 z "},"3":{"ha":833,"x_min":153,"x_max":808,"o":"m 633 463 q 722 385 692 433 q 751 283 751 337 q 705 143 751 218 q 573 24 659 69 q 400 -20 488 -20 q 203 39 296 -20 q 153 92 153 71 q 163 115 153 104 q 185 125 173 125 q 208 115 197 125 q 413 37 296 37 q 609 112 526 37 q 692 271 692 188 q 667 354 692 315 q 590 417 642 393 q 482 441 538 441 q 456 446 461 441 q 448 464 448 453 q 458 488 448 478 q 488 498 469 498 l 538 498 q 687 556 625 498 q 749 682 749 614 q 708 776 749 737 q 592 814 666 814 q 479 794 534 814 q 388 739 425 774 q 354 719 368 719 q 337 725 343 719 q 331 741 331 731 q 344 766 331 752 q 459 841 387 811 q 606 871 532 871 q 753 821 699 871 q 808 695 808 770 q 762 563 808 627 q 633 463 717 499 z "},"4":{"ha":833,"x_min":196,"x_max":762,"o":"m 574 238 l 196 238 l 210 304 l 643 851 l 762 851 l 644 295 l 691 295 q 716 290 710 295 q 724 273 724 283 q 712 248 724 258 q 679 238 701 238 l 631 238 l 593 57 l 641 57 q 667 51 660 57 q 673 35 673 45 q 662 10 673 20 q 629 0 651 0 l 416 0 q 391 6 397 0 q 384 23 384 12 q 395 47 384 37 q 429 57 406 57 l 536 57 l 574 238 m 586 295 l 692 793 l 662 793 l 268 295 l 586 295 z "},"5":{"ha":833,"x_min":157,"x_max":814,"o":"m 429 793 l 369 515 q 472 546 424 536 q 563 557 521 557 q 708 502 653 557 q 763 355 763 446 q 713 171 763 263 q 579 29 663 78 q 406 -20 495 -20 q 277 6 338 -20 q 172 81 216 33 q 157 109 157 98 q 167 134 157 123 q 191 144 178 144 q 213 132 202 144 q 416 37 294 37 q 556 77 490 37 q 663 193 623 117 q 704 342 704 269 q 661 457 704 414 q 545 500 618 500 q 357 453 456 500 q 323 442 333 442 q 308 448 314 442 q 302 463 302 454 q 303 473 302 468 l 383 851 l 781 851 q 801 849 796 851 q 810 841 806 846 q 814 828 814 836 q 802 804 814 814 q 768 793 791 793 l 429 793 z "},"6":{"ha":833,"x_min":259,"x_max":885,"o":"m 323 360 q 459 477 395 441 q 592 513 524 513 q 720 457 667 513 q 772 309 772 401 q 742 180 772 245 q 669 72 712 115 q 576 4 627 29 q 465 -20 525 -20 q 317 45 374 -20 q 259 254 259 111 q 338 586 259 443 q 568 812 417 730 q 785 871 677 871 q 870 851 836 871 q 885 828 885 842 q 875 804 885 814 q 852 793 865 793 q 832 800 843 793 q 766 814 808 814 q 607 772 690 814 q 457 659 524 730 q 358 505 391 587 q 323 360 336 450 m 317 266 q 360 89 317 142 q 480 37 404 37 q 641 116 568 37 q 713 300 713 195 q 673 413 713 370 q 577 456 633 456 q 439 401 511 456 q 317 266 389 363 z "},"7":{"ha":833,"x_min":299,"x_max":847,"o":"m 772 768 l 777 793 l 370 793 l 359 743 q 344 714 354 723 q 321 705 334 705 q 306 711 312 705 q 299 726 299 718 q 301 743 299 732 l 324 851 l 847 851 l 827 760 l 443 28 q 425 4 433 10 q 406 -1 416 -1 q 390 5 396 -1 q 384 21 384 11 q 393 45 384 28 l 772 768 z "},"8":{"ha":833,"x_min":199,"x_max":803,"o":"m 627 441 q 705 372 679 413 q 731 275 731 330 q 689 138 731 209 q 568 23 647 66 q 410 -20 489 -20 q 259 37 319 -20 q 199 178 199 95 q 250 328 199 256 q 394 441 300 399 q 324 509 346 473 q 302 595 302 545 q 328 696 302 646 q 394 784 353 747 q 488 847 434 822 q 604 871 542 871 q 747 817 691 871 q 803 682 803 762 q 761 551 803 613 q 627 441 719 489 m 516 470 q 676 532 608 470 q 743 670 743 593 q 701 773 743 732 q 591 814 658 814 q 429 748 498 814 q 359 603 359 682 q 403 510 359 549 q 516 470 446 470 m 424 37 q 601 111 530 37 q 672 262 672 184 q 627 370 672 326 q 505 414 581 414 q 331 344 405 414 q 258 192 258 275 q 303 81 258 125 q 424 37 349 37 z "},"9":{"ha":833,"x_min":195,"x_max":818,"o":"m 753 481 q 623 364 692 404 q 488 325 554 325 q 359 380 411 325 q 307 532 307 436 q 394 759 307 646 q 611 871 481 871 q 760 804 701 871 q 818 595 818 736 q 782 351 818 469 q 722 218 759 275 q 616 103 684 161 q 465 13 549 46 q 300 -20 382 -20 q 212 0 245 -20 q 195 23 195 10 q 205 47 195 37 q 229 57 215 57 q 251 50 237 57 q 309 37 275 37 q 442 61 376 37 q 564 128 508 86 q 656 217 619 170 q 715 320 694 264 q 753 481 736 376 m 762 576 q 713 764 755 713 q 600 814 671 814 q 439 732 514 814 q 365 543 365 651 q 405 426 365 470 q 504 382 446 382 q 634 433 566 382 q 762 576 684 472 z "}," ":{"ha":833,"x_min":0,"x_max":0,"o":""},"!":{"ha":833,"x_min":342,"x_max":648,"o":"m 640 793 l 517 334 q 501 303 511 311 q 479 294 492 294 q 464 301 470 294 q 458 317 458 307 q 459 334 458 322 l 532 793 q 557 854 538 836 q 603 871 576 871 q 635 860 623 871 q 648 831 648 848 q 640 793 648 821 m 429 121 l 456 121 q 497 105 481 121 q 513 65 513 89 q 487 5 513 31 q 426 -20 460 -20 l 399 -20 q 358 -5 374 -20 q 342 35 342 11 q 369 95 342 69 q 429 121 395 121 z "},"\"":{"ha":833,"x_min":336,"x_max":836,"o":"m 364 851 l 545 851 l 421 495 q 398 455 411 466 q 368 444 385 444 q 345 453 353 444 q 336 482 336 463 q 336 495 336 488 l 364 851 m 655 851 l 836 851 l 712 495 q 689 455 702 466 q 659 444 675 444 q 635 453 644 444 q 627 482 627 463 q 627 495 627 488 l 655 851 z "},"#":{"ha":833,"x_min":189,"x_max":820,"o":"m 650 502 l 600 323 l 708 323 q 733 318 728 323 q 741 300 741 311 q 730 276 741 286 q 696 266 719 266 l 583 266 l 494 -52 q 478 -80 488 -72 q 457 -88 468 -88 l 446 -85 q 434 -67 434 -77 q 437 -47 434 -60 l 526 266 l 398 266 l 308 -52 q 293 -80 302 -72 q 272 -88 283 -88 l 260 -85 q 248 -67 248 -77 q 252 -47 248 -60 l 340 266 l 222 266 q 197 271 203 266 q 189 289 189 278 q 200 313 189 302 q 234 323 212 323 l 357 323 l 407 502 l 301 502 q 275 508 282 502 q 268 525 268 514 q 279 549 268 538 q 313 559 291 559 l 423 559 l 513 876 q 529 904 519 896 q 549 913 538 913 l 561 910 q 573 890 573 902 q 569 872 573 884 l 481 559 l 609 559 l 699 876 q 714 904 704 896 q 734 913 724 913 l 746 910 q 758 890 758 902 q 755 872 758 884 l 666 559 l 787 559 q 812 554 806 559 q 820 536 820 547 q 809 512 820 522 q 775 502 798 502 l 650 502 m 593 502 l 465 502 l 414 323 l 542 323 l 593 502 z "},"$":{"ha":833,"x_min":180,"x_max":811,"o":"m 559 812 l 575 884 q 589 914 579 905 q 612 923 599 923 q 628 917 622 923 q 635 902 635 910 q 632 884 635 896 l 617 812 q 690 798 663 808 q 752 760 718 787 q 767 785 757 777 q 789 793 777 793 q 805 787 798 793 q 811 772 811 781 q 808 755 811 766 l 791 671 q 776 642 786 650 q 753 633 766 633 q 738 638 745 633 q 731 650 731 644 l 732 676 q 697 724 732 699 q 578 758 650 758 q 430 704 492 758 q 369 589 369 649 q 401 524 369 545 q 528 483 434 502 q 653 452 621 465 q 719 403 696 433 q 743 326 743 372 q 668 163 743 235 q 460 77 593 90 l 425 -91 q 411 -121 420 -112 q 388 -130 401 -130 q 372 -123 378 -130 q 365 -109 365 -117 q 368 -91 365 -102 l 404 77 q 243 144 300 83 q 228 102 235 110 q 202 92 216 92 q 186 98 193 92 q 180 113 180 104 q 182 130 180 118 l 205 241 q 220 271 210 262 q 243 279 230 279 q 258 273 252 279 q 265 264 265 267 l 262 223 q 280 196 262 216 q 341 151 306 164 q 444 132 387 132 q 618 188 552 132 q 684 313 684 243 q 667 366 684 343 q 612 402 650 388 q 509 427 590 411 q 353 481 396 450 q 311 576 311 513 q 380 729 311 658 q 559 812 450 800 z "},"%":{"ha":833,"x_min":239,"x_max":859,"o":"m 477 513 q 378 552 418 513 q 339 652 339 591 q 405 799 339 734 q 555 865 471 865 q 655 826 616 865 q 694 728 694 787 q 628 578 694 644 q 477 513 562 513 m 487 554 q 602 604 551 554 q 652 719 652 654 q 623 794 652 764 q 547 824 593 824 q 431 774 481 824 q 380 661 380 724 q 411 584 380 614 q 487 554 441 554 m 833 492 l 269 320 q 254 317 259 317 q 243 322 248 317 q 239 333 239 327 q 244 348 239 341 q 264 359 250 355 l 829 531 q 844 534 838 534 q 854 529 850 534 q 859 518 859 524 q 853 503 859 510 q 833 492 847 496 m 541 -16 q 441 23 480 -16 q 401 123 401 62 q 468 270 401 205 q 618 336 534 336 q 718 297 678 336 q 757 199 757 258 q 691 49 757 115 q 541 -16 625 -16 m 549 24 q 665 75 614 24 q 715 190 715 125 q 685 264 715 235 q 609 294 655 294 q 494 244 544 294 q 444 131 444 194 q 473 55 444 85 q 549 24 503 24 z "},"&":{"ha":833,"x_min":212,"x_max":764,"o":"m 580 0 l 551 67 q 374 -22 471 -22 q 258 26 305 -22 q 212 151 212 75 q 268 306 212 235 q 416 404 323 378 q 383 493 389 472 q 377 533 377 515 q 442 668 377 606 q 589 731 507 731 q 634 724 612 731 q 675 703 656 718 q 715 718 708 718 q 731 712 725 718 q 738 696 738 705 q 732 677 738 686 q 707 660 726 668 l 658 636 q 621 664 641 655 q 578 673 601 673 q 479 630 524 673 q 435 540 435 587 q 469 420 435 501 l 573 170 q 676 351 631 249 l 732 351 q 752 348 747 351 q 761 340 757 346 q 764 328 764 334 q 758 309 764 319 q 742 296 751 300 q 707 293 735 293 q 595 115 652 180 l 621 57 l 669 57 q 695 51 688 57 q 702 35 702 45 q 691 10 702 20 q 657 0 680 0 l 580 0 m 431 354 q 315 284 359 338 q 270 161 270 229 q 303 71 270 106 q 385 35 337 35 q 529 120 460 35 l 431 354 z "},"'":{"ha":833,"x_min":479,"x_max":688,"o":"m 507 851 l 688 851 l 564 495 q 541 455 554 466 q 511 444 528 444 q 488 453 496 444 q 479 482 479 463 q 479 495 479 488 l 507 851 z "},"(":{"ha":833,"x_min":467,"x_max":815,"o":"m 791 851 q 808 845 802 851 q 815 829 815 838 q 807 808 815 819 q 610 475 669 627 q 551 172 551 323 q 605 -128 551 35 q 608 -142 608 -139 q 598 -165 608 -155 q 573 -176 587 -176 q 558 -170 564 -176 q 502 -28 537 -148 q 467 182 467 92 q 501 408 467 303 q 586 597 535 512 q 706 769 637 682 q 774 845 758 833 q 791 851 783 851 z "},")":{"ha":833,"x_min":172,"x_max":519,"o":"m 195 -176 q 178 -170 185 -176 q 172 -154 172 -163 q 180 -133 172 -144 q 377 199 317 47 q 436 503 436 351 q 381 804 436 640 q 378 817 378 814 q 389 841 378 830 q 414 851 399 851 q 429 845 422 851 q 485 703 450 823 q 519 494 519 583 q 486 269 519 372 q 402 81 452 165 q 281 -92 352 -3 q 213 -170 230 -158 q 195 -176 204 -176 z "},"*":{"ha":833,"x_min":292,"x_max":814,"o":"m 517 618 l 558 812 q 573 842 563 833 q 595 851 583 851 q 611 845 605 851 q 618 830 618 838 q 616 812 618 824 l 574 618 l 772 678 q 793 682 786 682 q 808 676 802 682 q 814 661 814 669 q 807 639 814 648 q 779 623 799 629 l 581 563 l 661 406 q 667 385 667 393 q 656 362 667 373 q 632 352 646 352 q 608 372 618 352 l 526 530 l 378 372 q 345 352 360 352 q 329 359 335 352 q 322 376 322 366 q 339 406 322 387 l 488 564 l 315 624 q 296 634 300 629 q 292 648 292 639 q 302 672 292 661 q 326 682 313 682 q 344 678 332 682 l 517 618 z "},"+":{"ha":833,"x_min":181,"x_max":821,"o":"m 524 368 l 463 83 q 449 54 458 62 q 426 45 439 45 q 410 52 416 45 q 404 66 404 58 q 406 83 404 72 l 466 368 l 214 368 q 188 374 195 368 q 181 391 181 380 q 192 415 181 405 q 226 425 203 425 l 478 425 l 538 709 q 553 738 543 729 q 576 747 563 747 q 592 741 585 747 q 598 726 598 734 q 596 709 598 720 l 536 425 l 788 425 q 808 423 803 425 q 817 415 814 420 q 821 402 821 410 q 809 378 821 389 q 776 368 798 368 l 524 368 z "},",":{"ha":833,"x_min":249,"x_max":614,"o":"m 429 205 l 614 205 l 333 -170 q 282 -203 307 -203 q 258 -195 267 -203 q 249 -172 249 -186 q 255 -148 249 -161 l 429 205 z "},"-":{"ha":833,"x_min":201,"x_max":800,"o":"m 800 433 l 782 352 l 201 352 l 218 433 l 800 433 z "},".":{"ha":833,"x_min":326,"x_max":538,"o":"m 439 163 l 464 163 q 517 143 496 163 q 538 91 538 123 q 504 14 538 47 q 425 -20 469 -20 l 400 -20 q 346 0 367 -20 q 326 53 326 21 q 360 130 326 96 q 439 163 395 163 z "},"/":{"ha":833,"x_min":138,"x_max":875,"o":"m 863 892 l 196 -90 q 178 -110 185 -105 q 161 -115 170 -115 q 144 -108 151 -115 q 138 -92 138 -102 q 149 -65 138 -82 l 816 917 q 834 937 827 932 q 852 942 842 942 q 868 936 862 942 q 875 919 875 929 q 863 892 875 910 z "},":":{"ha":833,"x_min":326,"x_max":628,"o":"m 529 587 l 553 587 q 607 567 587 587 q 628 514 628 546 q 605 450 628 479 q 547 408 583 421 q 490 403 533 403 q 436 424 457 403 q 416 476 416 444 q 450 553 416 519 q 529 587 484 587 m 439 163 l 464 163 q 517 143 496 163 q 538 91 538 123 q 504 14 538 47 q 425 -20 469 -20 l 400 -20 q 346 0 367 -20 q 326 53 326 21 q 360 130 326 96 q 439 163 395 163 z "},";":{"ha":833,"x_min":257,"x_max":698,"o":"m 599 587 l 623 587 q 677 567 656 587 q 698 514 698 546 q 663 437 698 471 q 584 403 629 403 l 559 403 q 506 424 527 403 q 485 476 485 444 q 519 553 485 519 q 599 587 554 587 m 418 205 l 597 205 l 338 -110 q 309 -139 319 -134 q 288 -145 300 -145 q 266 -137 274 -145 q 257 -118 257 -130 q 266 -90 257 -106 l 418 205 z "},"<":{"ha":833,"x_min":151,"x_max":886,"o":"m 151 395 l 840 739 q 863 747 857 747 q 880 740 873 747 q 886 724 886 734 q 857 688 886 703 l 267 395 l 731 102 q 749 79 749 92 q 738 55 749 66 q 713 44 727 44 q 693 52 706 44 l 151 395 z "},"=":{"ha":833,"x_min":130,"x_max":872,"o":"m 827 471 l 206 471 q 180 477 187 471 q 174 494 174 484 q 185 518 174 508 q 218 529 197 529 l 840 529 q 865 523 859 529 q 872 506 872 517 q 861 481 872 492 q 827 471 850 471 m 784 267 l 163 267 q 137 273 144 267 q 130 290 130 279 q 141 314 130 304 q 175 324 153 324 l 796 324 q 821 319 815 324 q 829 302 829 312 q 818 277 829 288 q 784 267 806 267 z "},">":{"ha":833,"x_min":115,"x_max":851,"o":"m 851 395 l 162 52 q 138 44 146 44 q 122 51 128 44 q 115 67 115 57 q 145 102 115 87 l 735 395 l 271 688 q 253 712 253 699 q 264 736 253 726 q 288 747 275 747 q 309 739 296 747 l 851 395 z "},"?":{"ha":833,"x_min":323,"x_max":808,"o":"m 522 349 l 510 291 q 495 261 505 270 q 473 253 486 253 q 457 259 463 253 q 450 273 450 265 q 452 291 450 279 l 473 387 q 710 507 652 448 q 749 608 749 547 q 707 715 749 674 q 587 757 664 757 q 500 747 542 757 q 395 709 458 736 l 382 650 q 368 621 378 629 q 345 612 358 612 q 329 618 336 612 q 323 633 323 625 q 325 650 323 639 l 345 746 q 495 801 462 793 q 604 814 550 814 q 755 763 703 814 q 808 626 808 711 q 757 481 808 542 q 522 349 705 420 m 415 121 l 473 121 q 514 105 498 121 q 530 65 530 89 q 503 5 530 31 q 443 -20 477 -20 l 385 -20 q 344 -5 360 -20 q 328 35 328 11 q 355 95 328 69 q 415 121 381 121 z "},"@":{"ha":833,"x_min":193,"x_max":784,"o":"m 626 205 l 628 212 q 569 207 593 207 q 455 247 496 207 q 413 347 413 287 q 475 492 413 425 q 707 587 562 587 l 722 652 q 726 692 726 671 q 691 787 726 752 q 596 822 656 822 q 494 794 543 822 q 389 690 445 766 q 311 505 334 614 l 263 280 q 253 184 253 233 q 304 13 253 73 q 421 -31 342 -31 q 584 17 523 -31 q 608 28 597 28 q 624 22 618 28 q 631 5 631 15 q 621 -17 631 -6 q 534 -67 594 -45 q 400 -88 474 -88 q 258 -31 307 -88 q 193 171 193 44 q 205 280 193 222 l 254 508 q 407 791 291 683 q 608 880 500 880 q 735 831 687 880 q 784 700 784 783 q 779 652 784 678 l 696 262 q 712 255 707 260 q 718 241 718 250 q 712 222 718 231 q 698 209 707 213 q 672 205 690 205 l 626 205 m 695 530 q 533 476 595 530 q 471 361 471 423 q 500 291 471 317 q 589 264 530 264 q 640 270 612 264 l 695 530 z "},"A":{"ha":833,"x_min":46,"x_max":860,"o":"m 690 265 l 315 265 l 194 57 l 303 57 q 330 51 323 57 q 336 35 336 45 q 325 10 336 20 q 291 0 313 0 l 79 0 q 53 6 60 0 q 46 23 46 12 q 57 47 46 37 q 91 57 68 57 l 134 57 l 531 736 l 363 736 q 337 742 344 736 q 330 760 330 748 q 341 783 330 773 q 375 793 353 793 l 661 793 l 783 57 l 827 57 q 853 51 846 57 q 860 35 860 45 q 849 10 860 20 q 815 0 838 0 l 602 0 q 576 6 583 0 q 570 23 570 12 q 581 47 570 37 q 614 57 592 57 l 724 57 l 690 265 m 680 322 l 611 736 l 590 736 l 349 322 l 680 322 z "},"B":{"ha":833,"x_min":64,"x_max":824,"o":"m 186 57 l 330 736 l 254 736 q 228 742 235 736 q 221 760 221 748 q 232 783 221 773 q 266 793 243 793 l 624 793 q 771 745 718 793 q 824 627 824 696 q 786 510 824 562 q 672 419 748 458 q 774 350 743 392 q 805 257 805 309 q 778 155 805 207 q 711 71 750 103 q 613 16 673 39 q 523 0 572 0 l 97 0 q 71 6 78 0 q 64 23 64 12 q 76 47 64 37 q 109 57 87 57 l 186 57 m 324 441 l 526 441 q 649 465 592 441 q 736 533 706 489 q 766 614 766 577 q 725 700 766 664 q 612 736 685 736 l 387 736 l 324 441 m 243 57 l 531 57 q 638 85 588 57 q 718 158 689 113 q 746 243 746 203 q 688 347 746 310 q 517 383 630 383 l 312 383 l 243 57 z "},"C":{"ha":833,"x_min":159,"x_max":895,"o":"m 827 715 l 836 755 q 849 785 840 776 q 872 793 859 793 q 889 787 882 793 q 895 772 895 781 q 892 755 895 767 l 859 597 q 845 568 854 576 q 822 559 835 559 q 806 565 812 559 q 800 580 800 572 q 801 593 800 585 q 802 610 802 602 q 752 702 802 662 q 594 755 687 755 q 465 726 530 755 q 383 673 415 705 q 286 553 324 616 q 246 450 259 509 l 225 350 q 218 287 218 318 q 289 107 218 179 q 465 35 359 35 q 601 66 536 35 q 735 163 665 97 q 764 177 750 177 q 780 171 774 177 q 786 157 786 165 q 771 127 786 142 q 620 17 705 57 q 454 -22 534 -22 q 325 5 386 -22 q 253 54 279 26 q 185 155 212 96 q 159 269 159 214 q 166 342 159 306 l 191 458 q 273 630 209 542 q 426 765 338 719 q 604 812 515 812 q 730 788 675 812 q 827 715 786 764 z "},"D":{"ha":833,"x_min":104,"x_max":868,"o":"m 197 57 l 341 736 l 294 736 q 268 742 275 736 q 261 760 261 748 q 272 783 261 773 q 306 793 283 793 l 612 793 q 795 716 722 793 q 868 511 868 639 q 859 436 868 477 l 842 357 q 767 186 824 269 q 600 40 709 102 q 443 0 528 0 l 137 0 q 111 6 118 0 q 104 23 104 12 q 116 47 104 37 q 149 57 127 57 l 197 57 m 254 57 l 461 57 q 546 72 507 57 q 648 135 585 87 q 732 228 693 169 q 783 345 770 288 l 804 448 q 810 497 810 475 q 751 671 810 606 q 606 736 691 736 l 399 736 l 254 57 z "},"E":{"ha":833,"x_min":65,"x_max":865,"o":"m 313 383 l 243 57 l 682 57 l 717 225 q 731 254 722 245 q 754 263 741 263 q 770 257 764 263 q 777 243 777 251 q 774 225 777 237 l 726 0 l 98 0 q 72 6 79 0 q 65 23 65 12 q 76 47 65 37 q 110 57 87 57 l 186 57 l 331 736 l 254 736 q 229 742 235 736 q 222 760 222 748 q 233 783 222 773 q 267 793 244 793 l 865 793 l 823 597 q 809 568 819 576 q 787 559 800 559 q 770 566 777 559 q 764 580 764 572 q 766 597 764 586 l 795 736 l 388 736 l 325 440 l 529 440 l 543 505 q 557 534 547 525 q 580 543 567 543 q 596 536 589 543 q 603 522 603 530 q 600 505 603 516 l 561 319 q 546 290 556 298 q 524 281 536 281 q 508 287 514 281 q 501 302 501 293 q 503 319 501 308 l 517 383 l 313 383 z "},"F":{"ha":833,"x_min":126,"x_max":954,"o":"m 374 383 l 304 57 l 500 57 q 526 51 519 57 q 532 35 532 45 q 521 10 532 20 q 488 0 510 0 l 159 0 q 133 6 140 0 q 126 23 126 12 q 137 47 126 37 q 171 57 149 57 l 248 57 l 392 736 l 315 736 q 290 742 296 736 q 283 760 283 748 q 294 783 283 773 q 328 793 305 793 l 954 793 l 913 597 q 899 568 909 576 q 876 559 888 559 q 860 566 866 559 q 853 580 853 572 q 856 597 853 586 l 885 736 l 449 736 l 386 440 l 590 440 l 604 505 q 618 534 608 525 q 641 543 628 543 q 657 536 650 543 q 664 522 664 530 q 661 505 664 516 l 622 319 q 607 290 617 298 q 585 281 597 281 q 569 287 575 281 q 562 302 562 293 q 564 319 562 308 l 578 383 l 374 383 z "},"G":{"ha":833,"x_min":150,"x_max":889,"o":"m 789 294 l 737 50 q 460 -22 592 -22 q 215 68 302 -22 q 150 255 150 136 q 160 343 150 296 l 182 448 q 268 630 202 541 q 425 766 334 720 q 609 812 515 812 q 732 793 677 812 q 825 736 786 774 q 841 782 833 774 q 867 793 852 793 q 883 787 876 793 q 889 772 889 781 q 887 755 889 767 l 859 627 q 845 597 855 606 q 823 589 836 589 q 807 594 813 589 q 801 608 801 600 q 802 624 801 613 q 804 637 804 630 q 762 709 804 679 q 602 755 701 755 q 449 719 521 755 q 299 582 378 684 q 239 447 256 526 l 217 343 q 208 259 208 300 q 277 97 208 159 q 477 35 347 35 q 575 45 528 35 q 687 83 621 56 l 732 294 l 536 294 q 510 300 517 294 q 503 317 503 307 q 514 341 503 331 q 548 352 526 352 l 821 351 q 846 347 840 351 q 854 329 854 340 q 847 310 854 319 q 831 297 841 300 q 789 294 824 294 z "},"H":{"ha":833,"x_min":78,"x_max":932,"o":"m 690 384 l 312 384 l 243 57 l 307 57 q 345 51 338 57 q 352 35 352 45 q 341 10 352 20 q 307 0 330 0 l 109 0 q 84 8 90 0 q 78 26 78 16 q 89 48 78 40 q 121 57 99 57 l 186 57 l 330 736 l 267 736 q 228 742 238 736 q 220 762 218 747 q 229 783 220 774 q 267 794 238 791 l 458 794 q 489 788 482 791 q 497 772 495 786 q 489 749 497 758 q 452 736 481 739 l 387 736 l 324 441 l 703 441 l 765 736 l 701 736 q 663 742 669 736 q 656 760 656 748 q 667 783 656 773 q 701 793 678 793 l 870 793 q 918 788 907 793 q 931 771 930 783 q 923 748 932 757 q 887 736 913 739 l 823 736 l 678 57 l 742 57 q 778 49 770 58 q 787 29 787 40 q 773 7 787 15 q 730 0 759 0 l 546 0 q 519 5 527 0 q 511 21 511 10 q 517 44 511 35 q 556 57 524 54 l 621 57 l 690 384 z "},"I":{"ha":833,"x_min":161,"x_max":842,"o":"m 602 736 l 458 57 l 653 57 q 679 51 672 57 q 686 35 686 45 q 674 10 686 20 q 641 0 663 0 l 193 0 q 168 6 174 0 q 161 23 161 12 q 172 47 161 37 q 205 57 183 57 l 401 57 l 545 736 l 350 736 q 324 742 331 736 q 317 760 317 748 q 329 783 317 773 q 362 793 340 793 l 809 793 q 836 788 829 793 q 842 771 842 782 q 831 747 842 757 q 798 736 819 736 l 602 736 z "},"J":{"ha":833,"x_min":138,"x_max":977,"o":"m 796 736 l 689 233 q 573 53 667 129 q 374 -22 479 -22 q 253 7 308 -22 q 138 104 197 37 l 183 314 q 197 343 187 334 q 220 352 207 352 q 236 346 230 352 q 243 331 243 340 q 240 314 243 325 l 201 131 q 386 35 285 35 q 488 58 439 35 q 578 130 536 81 q 632 233 620 178 l 739 736 l 515 736 q 490 742 496 736 q 483 760 483 748 q 494 783 483 773 q 528 793 505 793 l 944 793 q 970 788 963 793 q 977 771 977 782 q 965 747 977 757 q 932 736 954 736 l 796 736 z "},"K":{"ha":833,"x_min":94,"x_max":960,"o":"m 327 311 l 273 57 l 378 57 q 404 51 397 57 q 410 35 410 45 q 399 10 410 20 q 366 0 388 0 l 127 0 q 101 6 108 0 q 94 23 94 12 q 105 47 94 37 q 139 57 117 57 l 216 57 l 360 736 l 283 736 q 258 742 264 736 q 251 760 251 748 q 262 783 251 773 q 296 793 273 793 l 534 793 q 560 788 553 793 q 567 771 567 782 q 556 747 567 757 q 522 736 545 736 l 417 736 l 342 386 l 810 736 l 747 736 q 722 742 728 736 q 715 760 715 748 q 726 783 715 773 q 760 793 737 793 l 927 793 q 954 788 947 793 q 960 771 960 782 q 954 751 960 761 q 937 739 947 742 q 892 736 930 736 l 519 456 q 621 385 584 428 q 684 263 658 342 q 729 57 699 218 l 800 57 q 826 51 819 57 q 833 35 833 45 q 822 10 833 20 q 788 0 810 0 l 678 0 q 594 315 641 245 q 463 414 548 385 l 327 311 z "},"L":{"ha":833,"x_min":92,"x_max":817,"o":"m 475 736 l 330 57 l 709 57 l 757 283 q 771 313 761 304 q 793 321 781 321 q 810 315 804 321 q 817 300 817 309 q 814 283 817 295 l 754 0 l 125 0 q 99 6 106 0 q 92 23 92 12 q 103 47 92 37 q 137 57 115 57 l 273 57 l 417 736 l 281 736 q 256 742 262 736 q 249 760 249 748 q 260 783 249 773 q 294 793 271 793 l 623 793 q 648 788 642 793 q 655 771 655 782 q 644 747 655 757 q 610 736 633 736 l 475 736 z "},"M":{"ha":833,"x_min":22,"x_max":975,"o":"m 505 238 l 439 238 l 327 736 l 316 736 l 172 57 l 277 57 q 302 51 296 57 q 309 35 309 45 q 298 10 309 20 q 264 0 287 0 l 54 0 q 28 6 35 0 q 22 23 22 12 q 33 47 22 37 q 66 57 44 57 l 114 57 l 258 736 l 223 736 q 197 742 204 736 q 191 760 191 748 q 202 783 191 773 q 235 793 213 793 l 375 793 l 486 302 l 802 793 l 943 793 q 968 788 962 793 q 975 771 975 782 q 964 747 975 757 q 930 736 953 736 l 895 736 l 751 57 l 798 57 q 825 51 818 57 q 831 35 831 45 q 820 10 831 20 q 786 0 808 0 l 576 0 q 550 6 557 0 q 543 23 543 12 q 555 47 543 37 q 589 57 566 57 l 693 57 l 838 736 l 826 736 l 505 238 z "},"N":{"ha":833,"x_min":66,"x_max":945,"o":"m 696 0 l 623 0 l 355 710 l 216 57 l 321 57 q 347 51 340 57 q 353 35 353 45 q 342 10 353 20 q 309 0 331 0 l 98 0 q 73 6 79 0 q 66 23 66 12 q 77 47 66 37 q 111 57 88 57 l 158 57 l 302 736 l 227 736 q 201 742 208 736 q 194 760 194 748 q 205 783 194 773 q 239 793 216 793 l 387 793 l 656 82 l 795 736 l 690 736 q 665 742 671 736 q 658 760 658 748 q 669 783 658 773 q 703 793 680 793 l 913 793 q 939 788 932 793 q 945 771 945 782 q 934 747 945 757 q 901 736 923 736 l 853 736 l 696 0 z "},"O":{"ha":833,"x_min":143,"x_max":860,"o":"m 413 -22 q 220 61 297 -22 q 143 288 143 145 q 188 501 143 399 q 300 673 233 603 q 441 777 368 743 q 590 812 515 812 q 793 716 727 812 q 860 506 860 620 q 792 243 860 370 q 620 47 725 116 q 413 -22 515 -22 m 423 35 q 598 95 508 35 q 745 267 689 156 q 801 491 801 378 q 736 683 801 612 q 581 755 672 755 q 455 725 517 755 q 336 634 393 694 q 240 485 279 574 q 201 304 201 397 q 266 106 201 178 q 423 35 331 35 z "},"P":{"ha":833,"x_min":147,"x_max":901,"o":"m 382 326 l 326 57 l 521 57 q 547 51 540 57 q 553 35 553 45 q 542 10 553 20 q 509 0 531 0 l 180 0 q 154 6 161 0 q 147 23 147 12 q 158 47 147 37 q 192 57 170 57 l 269 57 l 413 736 l 336 736 q 311 742 317 736 q 304 760 304 748 q 315 783 304 773 q 349 793 326 793 l 680 793 q 842 739 783 793 q 901 606 901 684 q 879 511 901 559 q 815 422 857 462 q 746 376 791 399 q 668 340 701 352 q 561 326 623 326 l 382 326 m 395 382 l 576 382 q 718 418 642 382 q 808 496 774 446 q 842 590 842 545 q 796 694 842 651 q 673 736 751 736 l 470 736 l 395 382 z "},"Q":{"ha":833,"x_min":143,"x_max":860,"o":"m 419 -22 l 332 -79 q 427 -68 390 -68 q 540 -90 486 -68 q 600 -105 577 -105 q 694 -73 639 -105 q 724 -61 715 -61 q 740 -67 734 -61 q 746 -83 746 -73 q 738 -104 746 -95 q 674 -141 725 -119 q 584 -162 623 -162 q 509 -144 555 -162 q 416 -125 463 -125 q 334 -134 383 -125 q 218 -157 262 -145 q 197 -160 203 -160 q 181 -154 187 -160 q 175 -138 175 -148 q 197 -106 175 -119 l 343 -14 q 200 88 256 7 q 143 288 143 168 q 188 501 143 399 q 300 673 233 603 q 441 777 368 743 q 590 812 515 812 q 783 728 706 812 q 860 502 860 645 q 793 242 860 368 q 623 48 726 117 q 419 -22 519 -20 m 423 35 q 598 95 508 35 q 745 267 689 156 q 801 491 801 378 q 736 683 801 612 q 581 755 672 755 q 455 725 517 755 q 336 634 393 694 q 240 485 279 574 q 201 304 201 397 q 266 106 201 178 q 423 35 331 35 z "},"R":{"ha":833,"x_min":66,"x_max":831,"o":"m 307 354 l 244 57 l 349 57 q 375 51 368 57 q 382 35 382 45 q 371 10 382 20 q 337 0 359 0 l 98 0 q 73 6 79 0 q 66 23 66 12 q 77 47 66 37 q 111 57 88 57 l 187 57 l 332 736 l 255 736 q 229 742 236 736 q 222 760 222 748 q 234 783 222 773 q 267 793 245 793 l 611 793 q 763 740 705 793 q 821 611 821 686 q 764 475 821 541 q 578 369 707 410 q 661 276 629 328 q 754 57 693 224 l 798 57 q 824 51 817 57 q 831 35 831 45 q 820 10 831 20 q 786 0 808 0 l 709 0 q 601 253 646 189 q 488 354 555 318 l 307 354 m 319 411 l 474 411 q 625 442 553 411 q 730 517 697 473 q 763 598 763 560 q 717 694 763 652 q 598 736 671 736 l 389 736 l 319 411 z "},"S":{"ha":833,"x_min":132,"x_max":841,"o":"m 777 736 q 792 782 785 774 q 819 793 804 793 q 834 787 828 793 q 841 772 841 781 q 838 755 841 767 l 808 610 q 793 581 803 590 q 770 572 783 572 q 754 578 761 572 q 748 593 748 585 q 750 607 748 598 q 751 626 751 616 q 705 716 751 677 q 578 755 659 755 q 403 695 471 755 q 335 564 335 636 q 376 482 335 510 q 519 436 416 454 q 657 404 621 418 q 733 349 707 384 q 759 261 759 313 q 717 124 759 191 q 591 18 675 58 q 415 -22 506 -22 q 287 1 341 -22 q 198 71 233 24 l 191 38 q 177 9 187 18 q 154 0 167 0 q 138 6 144 0 q 132 21 132 12 q 134 38 132 27 l 168 195 q 181 225 172 216 q 204 234 191 234 q 221 228 214 234 q 227 214 227 222 q 225 199 227 209 q 224 180 224 190 q 277 78 224 122 q 428 35 330 35 q 568 66 502 35 q 668 148 635 98 q 701 247 701 197 q 681 311 701 284 q 621 355 661 338 q 503 382 594 366 q 330 441 382 403 q 277 552 277 479 q 366 732 277 652 q 588 812 454 812 q 695 793 648 812 q 777 736 743 774 z "},"T":{"ha":833,"x_min":207,"x_max":904,"o":"m 602 736 l 457 57 l 605 57 q 631 51 624 57 q 637 35 637 45 q 626 10 637 20 q 593 0 615 0 l 239 0 q 214 6 220 0 q 207 23 207 12 q 218 47 207 37 q 252 57 229 57 l 399 57 l 544 736 l 311 736 l 269 539 q 255 509 264 518 q 232 500 245 500 q 215 507 222 500 q 209 522 209 513 q 212 539 209 528 l 266 793 l 904 793 l 850 539 q 836 509 846 518 q 812 500 825 500 q 797 507 803 500 q 790 522 790 513 q 793 539 790 528 l 835 736 l 602 736 z "},"U":{"ha":833,"x_min":191,"x_max":941,"o":"m 849 736 l 748 260 q 624 58 722 139 q 410 -22 526 -22 q 252 39 314 -22 q 191 201 191 101 q 197 260 191 228 l 298 736 l 251 736 q 225 742 232 736 q 218 759 218 748 q 230 783 218 773 q 263 793 241 793 l 473 793 q 499 788 492 793 q 506 771 506 782 q 494 747 506 757 q 461 736 483 736 l 356 736 l 255 260 q 250 211 250 236 q 299 84 250 134 q 420 35 348 35 q 530 60 478 35 q 629 139 582 85 q 690 260 676 194 l 792 736 l 687 736 q 661 742 668 736 q 654 760 654 748 q 665 783 654 773 q 699 793 677 793 l 909 793 q 935 788 928 793 q 941 771 941 782 q 930 747 941 757 q 897 736 919 736 l 849 736 z "},"V":{"ha":833,"x_min":173,"x_max":986,"o":"m 459 0 l 380 0 l 250 736 l 205 736 q 185 739 191 736 q 176 747 180 741 q 173 760 173 752 q 179 777 173 768 q 193 789 184 785 q 218 793 201 793 l 429 793 q 450 791 445 793 q 459 783 455 789 q 463 771 463 778 q 457 753 463 762 q 443 741 451 745 q 417 736 435 736 l 309 736 l 429 57 l 433 57 l 838 736 l 730 736 q 709 739 714 736 q 700 747 703 741 q 696 760 696 752 q 702 777 696 768 q 716 789 708 785 q 742 793 724 793 l 954 793 q 974 791 968 793 q 983 783 979 789 q 986 771 986 778 q 981 753 986 762 q 967 741 975 745 q 941 736 958 736 l 898 736 l 459 0 z "},"W":{"ha":833,"x_min":168,"x_max":969,"o":"m 667 0 l 578 0 l 536 564 l 258 0 l 168 0 l 241 736 l 220 736 q 194 742 201 736 q 187 760 187 748 q 199 783 187 773 q 233 793 210 793 l 444 793 q 470 788 463 793 q 477 771 477 782 q 466 747 477 757 q 432 736 454 736 l 298 736 l 231 65 l 503 618 l 590 618 l 631 65 l 847 736 l 713 736 q 688 742 694 736 q 681 760 681 748 q 692 783 681 773 q 726 793 703 793 l 937 793 q 962 788 956 793 q 969 771 969 782 q 962 752 969 761 q 946 739 956 743 q 903 736 939 736 l 667 0 z "},"X":{"ha":833,"x_min":60,"x_max":927,"o":"m 537 406 l 734 57 l 755 57 q 781 51 774 57 q 788 35 788 45 q 777 10 788 20 q 743 0 765 0 l 560 0 q 534 6 541 0 q 528 23 528 12 q 539 47 528 37 q 572 57 550 57 l 663 57 l 492 359 l 195 57 l 286 57 q 312 51 305 57 q 319 35 319 45 q 308 10 319 20 q 274 0 296 0 l 92 0 q 66 6 73 0 q 60 23 60 12 q 66 42 60 33 q 83 55 73 52 q 125 57 90 57 l 467 406 l 282 736 l 261 736 q 235 742 242 736 q 229 760 229 748 q 240 783 229 773 q 273 793 251 793 l 429 793 q 454 788 448 793 q 461 771 461 782 q 450 747 461 757 q 416 736 439 736 l 352 736 l 512 452 l 791 736 l 726 736 q 701 742 707 736 q 694 760 694 748 q 705 783 694 773 q 739 793 716 793 l 895 793 q 920 788 913 793 q 927 771 927 782 q 921 752 927 761 q 905 739 914 743 q 861 736 897 736 l 537 406 z "},"Y":{"ha":833,"x_min":208,"x_max":928,"o":"m 522 358 l 458 57 l 606 57 q 632 51 625 57 q 639 35 639 45 q 628 10 639 20 q 594 0 616 0 l 241 0 q 215 6 222 0 q 208 23 208 12 q 219 47 208 37 q 253 57 231 57 l 401 57 l 465 358 l 295 736 l 261 736 q 235 742 242 736 q 229 760 229 748 q 240 783 229 773 q 273 793 251 793 l 430 793 q 456 788 449 793 q 463 771 463 782 q 451 747 463 757 q 418 736 440 736 l 361 736 l 506 416 l 783 736 l 727 736 q 701 742 707 736 q 694 760 694 748 q 705 783 694 773 q 739 793 716 793 l 895 793 q 921 788 914 793 q 928 771 928 782 q 917 747 928 757 q 883 736 905 736 l 849 736 l 522 358 z "},"Z":{"ha":833,"x_min":144,"x_max":831,"o":"m 693 0 l 144 0 l 162 83 l 762 732 l 764 736 l 385 736 l 349 569 q 334 539 344 548 q 311 530 324 530 q 295 537 302 530 q 289 551 289 543 q 292 569 289 557 l 339 793 l 831 793 l 814 713 l 212 63 l 212 57 l 648 57 l 690 256 q 705 286 694 277 q 727 294 715 294 q 744 288 737 294 q 750 273 750 281 q 747 256 750 267 l 693 0 z "},"[":{"ha":833,"x_min":351,"x_max":798,"o":"m 614 793 l 420 -119 l 558 -119 q 585 -124 578 -119 q 591 -142 591 -130 q 580 -165 591 -155 q 547 -176 568 -176 l 351 -176 l 570 851 l 764 851 q 785 849 780 851 q 794 841 790 846 q 798 828 798 835 q 786 804 798 814 q 752 793 774 793 l 614 793 z "},"\\":{"ha":833,"x_min":347,"x_max":659,"o":"m 407 913 l 656 -69 q 659 -86 659 -80 q 648 -108 659 -98 q 624 -119 637 -119 q 609 -114 614 -119 q 599 -94 603 -109 l 350 889 q 347 905 347 899 q 358 927 347 917 q 382 938 369 938 q 397 933 392 938 q 407 913 403 928 z "},"]":{"ha":833,"x_min":182,"x_max":629,"o":"m 365 -119 l 559 793 l 421 793 q 396 799 402 793 q 389 817 389 806 q 400 841 389 830 q 433 851 411 851 l 629 851 l 410 -176 l 215 -176 q 190 -171 196 -176 q 182 -153 182 -164 q 194 -129 182 -139 q 227 -119 205 -119 l 365 -119 z "},"^":{"ha":833,"x_min":267,"x_max":792,"o":"m 601 867 l 784 553 q 792 534 792 541 q 781 510 792 521 q 756 500 770 500 q 732 517 743 500 l 582 778 l 322 517 q 290 499 304 499 q 273 506 279 499 q 267 522 267 512 q 270 535 267 530 q 285 553 273 541 l 601 867 z "},"_":{"ha":833,"x_min":-94,"x_max":779,"o":"m 733 -380 l -61 -380 q -81 -378 -76 -380 q -90 -370 -86 -376 q -94 -357 -94 -365 q -82 -334 -94 -344 q -49 -323 -71 -323 l 745 -323 q 770 -328 764 -323 q 779 -346 779 -335 q 767 -370 779 -360 q 733 -380 755 -380 z "},"`":{"ha":833,"x_min":391,"x_max":593,"o":"m 450 888 l 581 749 q 593 728 593 732 q 582 703 593 714 q 557 692 571 692 q 534 706 546 692 l 403 844 q 391 866 391 857 q 402 890 391 880 q 427 901 413 901 q 437 899 433 901 q 450 888 442 897 z "},"a":{"ha":833,"x_min":127,"x_max":760,"o":"m 581 0 l 598 82 q 311 -22 452 -22 q 174 18 220 -22 q 127 120 127 59 q 209 279 127 213 q 473 363 310 363 q 654 342 551 363 l 673 434 q 675 454 675 444 q 644 517 675 494 q 524 550 602 550 q 322 509 458 550 q 300 505 307 505 q 285 511 291 505 q 279 527 279 517 q 289 550 279 540 q 365 577 298 560 q 539 608 482 608 q 685 565 636 608 q 734 469 734 522 q 730 434 734 451 l 650 57 l 727 57 q 753 51 746 57 q 760 35 760 45 q 748 10 760 20 q 715 0 737 0 l 581 0 m 642 283 q 467 306 565 306 q 248 243 330 306 q 186 134 186 195 q 219 62 186 90 q 318 35 251 35 q 462 63 392 35 q 614 158 532 92 l 642 283 z "},"b":{"ha":833,"x_min":36,"x_max":824,"o":"m 383 851 l 303 473 q 580 608 433 608 q 755 539 686 608 q 824 366 824 471 q 772 180 824 273 q 627 32 720 87 q 447 -22 534 -22 q 226 112 296 -22 l 202 0 l 68 0 q 43 6 50 0 q 36 23 36 12 q 47 47 36 37 q 81 57 58 57 l 157 57 l 313 793 l 237 793 q 212 800 218 793 q 205 817 205 806 q 216 841 205 830 q 250 851 227 851 l 383 851 m 458 35 q 565 59 511 35 q 663 125 619 84 q 736 226 707 166 q 765 354 765 286 q 708 493 765 436 q 566 550 650 550 q 419 505 497 550 q 300 385 341 460 q 258 233 258 310 q 316 92 258 149 q 458 35 373 35 z "},"c":{"ha":833,"x_min":170,"x_max":831,"o":"m 767 530 q 783 576 775 568 q 808 587 794 587 q 824 581 818 587 q 831 566 831 574 q 829 549 831 560 l 801 420 q 786 390 796 399 q 764 381 777 381 q 748 387 754 381 q 741 401 741 393 q 743 415 741 406 q 743 426 743 420 q 700 505 743 472 q 549 550 643 550 q 393 510 466 550 q 274 389 319 469 q 229 231 229 309 q 285 89 229 142 q 441 35 341 35 q 580 59 506 35 q 722 138 654 83 q 751 151 739 151 q 766 145 760 151 q 772 130 772 140 q 759 102 772 117 q 615 15 711 52 q 421 -22 519 -22 q 238 44 307 -22 q 170 216 170 110 q 204 370 170 296 q 291 494 238 443 q 411 576 343 545 q 564 608 479 608 q 680 588 629 608 q 767 530 731 569 z "},"d":{"ha":833,"x_min":140,"x_max":876,"o":"m 876 851 l 707 57 l 784 57 q 810 51 803 57 q 817 35 817 45 q 805 10 817 20 q 772 0 794 0 l 637 0 l 662 113 q 379 -22 534 -22 q 208 47 276 -22 q 140 227 140 116 q 195 411 140 317 q 339 556 250 504 q 516 608 429 608 q 739 472 665 608 l 806 793 l 730 793 q 704 800 711 793 q 697 817 697 806 q 709 841 697 830 q 743 851 720 851 l 876 851 m 395 35 q 510 60 456 35 q 608 128 564 85 q 679 230 652 170 q 706 352 706 290 q 650 494 706 437 q 509 550 594 550 q 294 454 389 550 q 199 237 199 359 q 255 91 199 148 q 395 35 311 35 z "},"e":{"ha":833,"x_min":145,"x_max":796,"o":"m 785 280 l 205 280 q 203 248 203 259 q 266 95 203 155 q 437 35 329 35 q 574 55 500 35 q 701 111 648 76 q 726 121 716 121 q 741 115 734 121 q 747 98 747 109 q 736 75 747 86 q 611 10 705 42 q 421 -22 517 -22 q 221 52 296 -22 q 145 239 145 125 q 178 381 145 315 q 263 497 210 448 q 386 576 317 545 q 538 608 456 608 q 725 539 654 608 q 796 364 796 471 q 785 280 796 329 m 739 338 q 684 491 743 431 q 524 550 624 550 q 341 492 426 550 q 217 338 256 435 l 739 338 z "},"f":{"ha":833,"x_min":151,"x_max":927,"o":"m 492 530 l 391 57 l 642 57 q 667 51 661 57 q 674 35 674 45 q 663 10 674 20 q 629 0 652 0 l 184 0 q 158 6 165 0 q 151 23 151 12 q 162 47 151 37 q 196 57 174 57 l 334 57 l 434 530 l 311 530 q 285 536 292 530 q 278 553 278 542 q 289 577 278 566 q 323 587 300 587 l 446 587 l 465 673 q 550 799 480 746 q 716 851 619 851 q 878 838 791 851 q 921 825 916 831 q 927 810 927 819 q 917 786 927 796 q 890 776 906 776 q 873 778 885 776 q 705 793 774 793 q 580 756 628 793 q 522 673 532 720 l 504 587 l 770 587 q 795 582 789 587 q 803 564 803 575 q 792 540 803 551 q 758 530 781 530 l 492 530 z "},"g":{"ha":833,"x_min":144,"x_max":900,"o":"m 711 483 l 733 587 l 867 587 q 892 582 886 587 q 900 564 900 575 q 888 540 900 551 q 854 530 877 530 l 779 530 l 657 -39 q 613 -139 646 -94 q 543 -203 590 -170 q 464 -249 496 -235 q 378 -262 431 -262 l 217 -262 q 191 -256 198 -262 q 184 -239 184 -250 q 196 -215 184 -225 q 229 -204 207 -204 l 393 -205 q 486 -180 441 -205 q 570 -104 532 -156 q 602 -31 592 -76 l 638 140 q 373 14 519 14 q 210 80 275 14 q 144 250 144 146 q 178 390 144 323 q 260 502 212 456 q 370 578 309 548 q 502 608 431 608 q 711 483 646 608 m 389 72 q 497 96 446 72 q 589 158 548 119 q 655 253 629 197 q 680 366 680 308 q 627 497 680 445 q 494 550 574 550 q 292 461 381 550 q 203 260 203 372 q 256 125 203 178 q 389 72 309 72 z "},"h":{"ha":833,"x_min":76,"x_max":776,"o":"m 411 851 l 336 500 q 459 584 404 560 q 574 608 514 608 q 710 563 663 608 q 758 449 758 518 q 754 410 758 431 l 679 57 l 743 57 q 769 51 762 57 q 776 35 776 45 q 765 10 776 20 q 731 0 753 0 l 545 0 q 519 6 526 0 q 513 23 513 12 q 524 47 513 37 q 557 57 535 57 l 622 57 l 696 406 q 699 437 699 421 q 664 519 699 487 q 561 551 629 551 q 462 529 504 551 q 319 418 420 508 l 242 57 l 307 57 q 332 51 326 57 q 339 35 339 45 q 328 10 339 20 q 294 0 317 0 l 109 0 q 83 6 90 0 q 76 23 76 12 q 87 47 76 37 q 121 57 98 57 l 185 57 l 341 793 l 265 793 q 239 800 246 793 q 233 817 233 806 q 244 841 233 830 q 277 851 255 851 l 411 851 z "},"i":{"ha":833,"x_min":134,"x_max":715,"o":"m 631 880 l 600 732 l 517 732 l 548 880 l 631 880 m 572 587 l 459 57 l 683 57 q 709 51 702 57 q 715 35 715 45 q 704 10 715 20 q 671 0 693 0 l 166 0 q 140 6 147 0 q 134 23 134 12 q 145 47 134 37 q 178 57 156 57 l 402 57 l 503 530 l 336 530 q 310 536 317 530 q 303 553 303 542 q 315 577 303 566 q 349 587 326 587 l 572 587 z "},"j":{"ha":833,"x_min":72,"x_max":685,"o":"m 685 880 l 654 732 l 570 732 l 602 880 l 685 880 m 614 530 l 276 530 q 250 536 257 530 q 243 553 243 542 q 255 577 243 566 q 288 587 266 587 l 684 587 l 551 -40 q 494 -163 534 -115 q 386 -241 453 -211 q 286 -262 341 -262 l 104 -262 q 79 -256 85 -262 q 72 -239 72 -250 q 83 -215 72 -225 q 117 -204 94 -204 l 296 -205 q 416 -164 369 -205 q 493 -40 478 -111 l 614 530 z "},"k":{"ha":833,"x_min":94,"x_max":814,"o":"m 315 254 l 260 0 l 127 0 q 101 6 108 0 q 94 23 94 12 q 105 47 94 37 q 139 57 117 57 l 216 57 l 372 793 l 296 793 q 270 800 277 793 q 263 817 263 806 q 274 841 263 830 q 308 851 286 851 l 441 851 l 330 326 l 615 530 l 586 530 q 560 536 567 530 q 553 553 553 542 q 565 577 553 566 q 598 587 576 587 l 781 587 q 806 582 800 587 q 814 564 814 575 q 802 540 814 551 q 768 530 791 530 l 703 530 l 441 344 l 661 57 l 727 57 q 753 51 746 57 q 760 35 760 45 q 748 10 760 20 q 715 0 737 0 l 530 0 q 505 6 511 0 q 498 23 498 12 q 509 47 498 37 q 543 57 520 57 l 582 57 l 391 309 l 315 254 z "},"l":{"ha":833,"x_min":133,"x_max":715,"o":"m 627 851 l 458 57 l 682 57 q 708 51 701 57 q 715 35 715 45 q 704 10 715 20 q 670 0 692 0 l 165 0 q 140 6 146 0 q 133 23 133 12 q 144 47 133 37 q 178 57 155 57 l 401 57 l 558 793 l 393 793 q 368 800 374 793 q 361 817 361 806 q 372 841 361 830 q 406 851 383 851 l 627 851 z "},"m":{"ha":833,"x_min":20,"x_max":838,"o":"m 282 587 l 270 530 q 433 608 359 608 q 503 584 474 608 q 545 513 532 560 q 637 584 593 561 q 722 608 682 608 q 805 573 772 608 q 838 485 838 539 q 834 455 838 471 l 750 57 l 798 57 q 824 51 817 57 q 831 35 831 45 q 819 10 831 20 q 785 0 808 0 l 680 0 l 776 450 q 779 473 779 461 q 759 529 779 509 q 711 550 740 550 q 646 531 680 550 q 541 435 601 505 l 460 57 l 509 57 q 534 51 528 57 q 541 35 541 45 q 530 10 541 20 q 496 0 519 0 l 391 0 l 486 446 q 489 472 489 459 q 469 528 489 507 q 422 550 449 550 q 359 532 392 550 q 250 435 311 504 l 170 57 l 217 57 q 243 51 237 57 q 250 35 250 45 q 239 10 250 20 q 205 0 227 0 l 52 0 q 26 6 33 0 q 20 23 20 12 q 31 47 20 37 q 64 57 42 57 l 112 57 l 213 530 l 165 530 q 139 536 146 530 q 132 553 132 542 q 143 577 132 566 q 177 587 155 587 l 282 587 z "},"n":{"ha":833,"x_min":79,"x_max":760,"o":"m 357 587 l 339 501 q 466 585 414 563 q 580 608 519 608 q 712 563 664 608 q 760 447 760 518 q 756 416 760 433 l 680 57 l 728 57 q 753 51 747 57 q 760 35 760 45 q 749 10 760 20 q 715 0 738 0 l 562 0 q 536 6 543 0 q 530 23 530 12 q 541 47 530 37 q 574 57 552 57 l 623 57 l 696 406 q 700 436 700 422 q 665 518 700 486 q 566 550 631 550 q 461 526 507 550 q 321 414 414 503 l 245 57 l 309 57 q 335 51 328 57 q 342 35 342 45 q 331 10 342 20 q 297 0 319 0 l 111 0 q 85 6 92 0 q 79 23 79 12 q 90 47 79 37 q 123 57 101 57 l 188 57 l 288 530 l 240 530 q 214 536 221 530 q 208 553 208 542 q 219 577 208 566 q 252 587 230 587 l 357 587 z "},"o":{"ha":833,"x_min":154,"x_max":804,"o":"m 410 -22 q 226 48 298 -22 q 154 229 154 119 q 208 409 154 317 q 357 554 262 501 q 549 608 452 608 q 732 537 660 608 q 804 361 804 467 q 751 178 804 269 q 603 33 699 87 q 410 -22 508 -22 m 422 35 q 581 80 503 35 q 702 199 659 125 q 745 349 745 274 q 686 492 745 435 q 536 550 627 550 q 413 524 470 550 q 313 457 357 498 q 241 358 269 416 q 212 240 212 301 q 271 93 212 151 q 422 35 330 35 z "},"p":{"ha":833,"x_min":-20,"x_max":826,"o":"m 327 587 l 305 484 q 435 577 370 547 q 578 608 500 608 q 759 542 692 608 q 826 373 826 477 q 713 125 826 235 q 452 14 600 14 q 232 138 300 14 l 159 -205 l 296 -205 q 317 -207 312 -205 q 326 -215 322 -209 q 330 -227 330 -220 q 318 -252 330 -241 q 284 -262 307 -262 l 13 -262 q -13 -256 -6 -262 q -20 -239 -20 -250 q -8 -215 -20 -225 q 25 -205 3 -205 l 102 -205 l 258 530 l 181 530 q 155 536 162 530 q 149 553 149 542 q 160 577 149 566 q 193 587 171 587 l 327 587 m 463 72 q 675 161 584 72 q 767 363 767 250 q 711 496 767 442 q 568 550 655 550 q 355 461 447 550 q 263 263 263 372 q 319 126 263 181 q 463 72 375 72 z "},"q":{"ha":833,"x_min":146,"x_max":929,"o":"m 741 484 l 763 587 l 897 587 q 922 581 916 587 q 929 564 929 575 q 918 540 929 551 q 884 530 907 530 l 808 530 l 652 -205 l 728 -205 q 748 -207 743 -205 q 757 -215 753 -209 q 761 -227 761 -220 q 749 -252 761 -241 q 715 -262 738 -262 l 444 -262 q 418 -256 425 -262 q 412 -239 412 -250 q 423 -215 412 -225 q 456 -205 434 -205 l 594 -205 l 667 138 q 393 14 547 14 q 215 81 283 14 q 146 249 146 148 q 197 420 146 334 q 337 557 248 507 q 520 608 427 608 q 741 484 673 608 m 404 72 q 554 114 480 72 q 668 224 628 155 q 709 361 709 293 q 653 496 709 441 q 509 550 597 550 q 297 461 389 550 q 205 262 205 372 q 261 126 205 181 q 404 72 317 72 z "},"r":{"ha":833,"x_min":121,"x_max":865,"o":"m 473 587 l 443 444 q 638 573 578 545 q 745 602 699 602 q 828 570 791 602 q 865 522 865 539 q 854 496 865 507 q 829 486 844 486 q 818 488 822 486 q 804 503 814 490 q 769 536 785 527 q 737 545 753 545 q 641 515 699 545 q 427 369 582 485 l 361 57 l 613 57 q 640 51 633 57 q 646 35 646 45 q 635 10 646 20 q 601 0 623 0 l 154 0 q 128 6 135 0 q 121 22 121 12 q 132 45 121 35 q 165 55 143 55 l 303 55 l 404 530 l 299 530 q 273 536 280 530 q 267 552 267 542 q 278 577 267 566 q 311 587 289 587 l 473 587 z "},"s":{"ha":833,"x_min":146,"x_max":782,"o":"m 722 550 q 736 578 726 570 q 759 587 747 587 q 775 581 769 587 q 782 566 782 574 q 779 549 782 560 l 759 451 q 744 422 754 431 q 722 413 734 413 q 706 419 712 413 q 699 433 699 425 l 700 445 q 701 455 701 450 q 668 515 701 492 q 533 550 620 550 q 367 505 429 550 q 321 435 321 472 q 361 375 321 398 q 484 348 390 359 q 619 324 578 338 q 704 271 676 306 q 732 193 732 237 q 695 93 732 143 q 583 10 659 43 q 414 -22 508 -22 q 295 -5 347 -22 q 208 46 243 12 q 194 10 202 18 q 169 0 182 0 q 153 6 159 0 q 146 21 146 12 q 149 38 146 27 l 174 155 q 188 184 178 176 q 211 193 198 193 q 227 187 220 193 q 233 172 233 180 q 231 156 233 166 q 229 141 229 146 q 269 73 229 102 q 424 35 322 35 q 609 83 545 35 q 673 178 673 131 q 654 229 673 204 q 597 268 635 254 q 473 292 559 283 q 347 315 387 301 q 285 357 307 329 q 262 422 262 386 q 292 506 262 465 q 389 577 321 547 q 542 608 457 608 q 646 593 601 608 q 722 550 691 579 z "},"t":{"ha":833,"x_min":220,"x_max":769,"o":"m 427 587 l 736 587 q 763 582 756 587 q 769 565 769 576 q 764 545 769 553 q 753 534 760 537 q 724 530 744 530 l 415 530 l 334 151 q 331 121 331 134 q 365 61 331 88 q 463 35 398 35 q 594 52 523 35 q 707 91 665 68 q 731 100 722 100 q 747 93 741 100 q 753 76 753 87 q 736 50 753 62 q 590 -5 694 20 q 450 -22 515 -22 q 319 17 366 -22 q 273 112 273 56 q 277 151 273 130 l 357 530 l 252 530 q 227 536 233 530 q 220 553 220 542 q 231 577 220 566 q 264 587 242 587 l 370 587 l 406 755 q 420 785 410 776 q 443 793 430 793 q 459 787 452 793 q 465 772 465 781 q 463 755 465 767 l 427 587 z "},"u":{"ha":833,"x_min":180,"x_max":793,"o":"m 612 0 l 629 83 q 353 -22 490 -22 q 245 17 285 -22 q 205 116 205 56 q 211 162 205 138 l 289 530 l 212 530 q 186 536 193 530 q 180 553 180 542 q 191 577 180 566 q 224 587 202 587 l 358 587 l 268 162 q 265 133 265 148 q 292 61 265 88 q 363 35 318 35 q 646 162 504 35 l 724 530 l 619 530 q 593 536 600 530 q 587 553 587 542 q 598 577 587 566 q 631 587 609 587 l 793 587 l 681 57 l 729 57 q 755 51 748 57 q 762 35 762 45 q 750 10 762 20 q 717 0 739 0 l 612 0 z "},"v":{"ha":833,"x_min":158,"x_max":913,"o":"m 467 0 l 370 0 l 249 530 l 191 530 q 165 536 172 530 q 158 553 158 542 q 169 577 158 566 q 203 587 180 587 l 416 587 q 441 582 435 587 q 449 564 449 575 q 438 540 449 551 q 404 530 427 530 l 310 530 l 418 57 l 444 57 l 749 530 l 654 530 q 628 536 635 530 q 621 553 621 542 q 632 577 621 566 q 666 587 644 587 l 880 587 q 905 582 899 587 q 913 564 913 575 q 902 540 913 551 q 868 530 890 530 l 810 530 l 467 0 z "},"w":{"ha":833,"x_min":157,"x_max":914,"o":"m 614 0 l 543 -1 l 495 366 l 293 -1 l 222 0 l 217 530 l 189 530 q 163 536 170 530 q 157 553 157 542 q 168 577 157 566 q 201 587 179 587 l 358 587 q 383 582 377 587 q 391 564 391 575 q 379 540 391 551 q 346 530 368 530 l 273 530 l 279 78 l 476 439 l 544 439 l 592 78 l 785 530 l 713 530 q 687 536 694 530 q 680 553 680 542 q 692 577 680 566 q 726 587 703 587 l 882 587 q 907 582 901 587 q 914 564 914 575 q 903 540 914 551 q 869 530 892 530 l 842 530 l 614 0 z "},"x":{"ha":833,"x_min":74,"x_max":855,"o":"m 522 307 l 729 57 q 759 55 753 57 q 769 48 765 54 q 772 35 772 42 q 761 10 772 20 q 728 0 750 0 l 544 0 q 518 6 525 0 q 511 23 511 12 q 523 47 511 37 q 556 57 534 57 l 651 57 l 474 269 l 209 57 l 304 57 q 330 51 323 57 q 336 35 336 45 q 325 10 336 20 q 292 0 314 0 l 106 0 q 81 6 87 0 q 74 23 74 12 q 80 41 74 33 q 96 54 86 50 q 130 57 102 57 l 444 307 l 259 530 q 231 532 236 530 q 221 539 225 534 q 217 553 217 545 q 228 577 217 566 q 262 587 239 587 l 418 587 q 443 582 437 587 q 450 564 450 575 q 439 540 450 551 q 406 530 428 530 l 337 530 l 490 345 l 723 530 l 655 530 q 629 536 636 530 q 622 553 622 542 q 633 577 622 566 q 667 587 644 587 l 823 587 q 847 582 842 587 q 855 564 855 575 q 849 546 855 555 q 834 533 843 537 q 801 530 826 530 l 522 307 z "},"y":{"ha":833,"x_min":20,"x_max":884,"o":"m 387 0 l 236 530 l 219 530 q 193 536 200 530 q 186 553 186 542 q 192 570 186 562 q 206 583 197 579 q 231 587 214 587 l 387 587 q 407 585 401 587 q 416 577 412 583 q 419 564 419 572 q 408 540 419 551 q 374 530 397 530 l 298 530 l 431 62 l 760 530 l 684 530 q 657 536 665 530 q 650 553 650 542 q 662 577 650 566 q 696 587 673 587 l 851 587 q 876 582 870 587 q 884 564 884 575 q 877 546 884 555 q 861 532 871 536 q 821 530 854 530 l 304 -205 l 393 -205 q 414 -207 408 -205 q 422 -215 419 -209 q 426 -227 426 -220 q 415 -252 426 -241 q 381 -262 404 -262 l 53 -262 q 27 -256 34 -262 q 20 -239 20 -250 q 32 -215 20 -225 q 65 -205 43 -205 l 244 -205 l 387 0 z "},"z":{"ha":833,"x_min":161,"x_max":791,"o":"m 791 587 l 780 536 l 252 57 l 637 57 l 654 136 q 668 165 658 156 q 690 174 677 174 q 707 168 701 174 q 713 153 713 161 q 711 136 713 146 l 682 0 l 161 0 l 172 51 l 699 530 l 344 530 l 328 452 q 313 423 323 431 q 290 414 303 414 q 274 420 281 414 q 268 435 268 427 q 270 452 268 441 l 299 587 l 791 587 z "},"{":{"ha":833,"x_min":345,"x_max":735,"o":"m 455 338 q 486 302 478 317 q 496 256 496 282 q 491 216 496 239 l 439 -27 q 437 -51 437 -39 q 454 -98 437 -79 q 498 -119 471 -117 q 522 -125 517 -120 q 529 -141 529 -131 q 518 -166 529 -155 q 489 -176 507 -176 q 409 -144 441 -176 q 378 -61 378 -113 q 382 -28 378 -45 l 433 216 q 436 239 436 227 q 419 287 436 268 q 374 307 401 305 q 352 314 357 309 q 345 330 345 320 q 355 355 345 345 q 387 368 365 366 q 450 396 422 371 q 485 458 477 422 l 537 703 q 601 809 551 767 q 707 851 650 851 q 728 845 722 851 q 735 828 735 838 q 725 806 735 815 q 692 793 715 796 q 629 765 656 790 q 594 703 602 739 l 543 458 q 515 390 534 416 q 455 338 496 363 z "},"|":{"ha":833,"x_min":388,"x_max":446,"o":"m 446 812 l 445 -138 q 437 -167 445 -158 q 416 -176 429 -176 q 396 -167 404 -176 q 388 -138 388 -158 l 388 812 q 396 842 388 833 q 416 851 404 851 q 437 842 429 851 q 446 812 446 833 z "},"}":{"ha":833,"x_min":242,"x_max":632,"o":"m 522 338 q 491 373 498 358 q 481 418 481 393 q 486 458 481 436 l 538 703 q 541 726 541 714 q 523 773 541 754 q 479 793 506 791 q 455 800 460 795 q 448 816 448 806 q 459 841 448 830 q 489 851 471 851 q 568 819 536 851 q 599 735 599 787 q 595 703 599 720 l 543 458 q 541 437 541 448 q 558 389 541 408 q 604 368 576 370 q 625 361 621 366 q 632 345 632 355 q 622 319 632 330 q 591 307 612 309 q 527 279 555 304 q 492 216 500 254 l 440 -28 q 377 -134 427 -92 q 270 -176 327 -176 q 249 -170 256 -176 q 242 -153 242 -163 q 252 -131 242 -140 q 286 -119 261 -121 q 348 -90 321 -115 q 383 -27 375 -64 l 435 216 q 463 285 444 258 q 522 338 481 311 z "},"~":{"ha":833,"x_min":204,"x_max":798,"o":"m 777 453 q 792 447 785 453 q 798 431 798 441 q 785 406 798 420 q 680 318 739 353 q 602 293 637 293 q 545 310 573 293 q 478 373 517 326 q 421 430 439 419 q 389 441 404 441 q 343 428 367 441 q 270 369 320 415 q 240 343 247 347 q 226 340 233 340 q 210 346 216 340 q 204 361 204 351 q 236 407 204 376 q 304 463 268 437 q 399 498 353 498 q 450 486 426 498 q 509 433 474 473 q 581 359 566 368 q 610 351 595 351 q 727 420 658 351 q 760 449 753 445 q 777 453 768 453 z "},"":{"ha":833,"x_min":17,"x_max":831,"o":"m 661 265 l 286 265 l 165 57 l 274 57 q 300 51 294 57 q 307 35 307 45 q 296 10 307 20 q 262 0 284 0 l 50 0 q 24 6 31 0 q 17 23 17 12 q 28 47 17 37 q 62 57 39 57 l 105 57 l 502 736 l 334 736 q 308 742 315 736 q 301 760 301 748 q 312 783 301 773 q 346 793 323 793 l 632 793 l 754 57 l 798 57 q 824 51 817 57 q 831 35 831 45 q 820 10 831 20 q 786 0 808 0 l 573 0 q 547 6 554 0 q 541 23 541 12 q 552 47 541 37 q 585 57 563 57 l 694 57 l 661 265 m 651 322 l 582 736 l 561 736 l 319 322 l 651 322 m 401 904 q 370 916 382 904 q 357 948 357 928 q 378 994 357 973 q 426 1015 399 1015 q 458 1002 446 1015 q 470 972 470 990 q 449 924 470 945 q 401 904 429 904 m 692 904 q 661 916 673 904 q 648 948 648 928 q 669 994 648 973 q 717 1015 690 1015 q 748 1002 736 1015 q 761 972 761 990 q 740 924 761 945 q 692 904 720 904 z "},"":{"ha":833,"x_min":46,"x_max":860,"o":"m 690 265 l 315 265 l 194 57 l 303 57 q 330 51 323 57 q 336 35 336 45 q 325 10 336 20 q 291 0 313 0 l 79 0 q 53 6 60 0 q 46 23 46 12 q 57 47 46 37 q 91 57 68 57 l 134 57 l 531 736 l 363 736 q 337 742 344 736 q 330 760 330 748 q 341 783 330 773 q 375 793 353 793 l 661 793 l 783 57 l 827 57 q 853 51 846 57 q 860 35 860 45 q 849 10 860 20 q 815 0 838 0 l 602 0 q 576 6 583 0 q 570 23 570 12 q 581 47 570 37 q 614 57 592 57 l 724 57 l 690 265 m 680 322 l 611 736 l 590 736 l 349 322 l 680 322 m 608 846 q 537 873 565 846 q 509 942 509 901 q 555 1042 509 997 q 661 1087 602 1087 q 732 1060 705 1087 q 760 993 760 1033 q 714 890 760 935 q 608 846 668 846 m 617 886 q 688 916 657 886 q 718 984 718 946 q 700 1028 718 1010 q 652 1046 682 1046 q 582 1017 612 1046 q 551 951 551 987 q 570 905 551 923 q 617 886 588 886 z "},"":{"ha":833,"x_min":159,"x_max":895,"o":"m 827 715 l 836 755 q 849 785 840 776 q 872 793 859 793 q 889 787 882 793 q 895 772 895 781 q 892 755 895 767 l 859 597 q 845 568 854 576 q 822 559 835 559 q 806 565 812 559 q 800 580 800 572 q 801 593 800 585 q 802 610 802 602 q 752 702 802 662 q 594 755 687 755 q 465 726 530 755 q 383 673 415 705 q 286 553 324 616 q 246 450 259 509 l 225 350 q 218 287 218 318 q 289 107 218 179 q 465 35 359 35 q 601 66 536 35 q 735 163 665 97 q 764 177 750 177 q 780 171 774 177 q 786 157 786 165 q 771 127 786 142 q 620 17 705 57 q 454 -22 534 -22 q 325 5 386 -22 q 253 54 279 26 q 185 155 212 96 q 159 269 159 214 q 166 342 159 306 l 191 458 q 273 630 209 542 q 426 765 338 719 q 604 812 515 812 q 730 788 675 812 q 827 715 786 764 m 378 -111 l 399 -7 q 410 14 403 8 q 426 20 417 20 q 438 16 433 20 q 442 5 442 12 q 441 -7 442 1 l 427 -72 q 475 -93 458 -77 q 492 -132 492 -110 q 460 -197 492 -168 q 376 -226 429 -226 q 313 -214 346 -226 q 271 -193 280 -203 q 266 -179 266 -186 q 273 -162 266 -170 q 291 -155 281 -155 q 305 -159 298 -155 q 384 -185 346 -185 q 432 -170 414 -185 q 450 -140 450 -155 q 441 -121 450 -129 q 406 -111 427 -111 l 378 -111 z "},"":{"ha":833,"x_min":65,"x_max":865,"o":"m 313 383 l 243 57 l 682 57 l 717 225 q 731 254 722 245 q 754 263 741 263 q 770 257 764 263 q 777 243 777 251 q 774 225 777 237 l 726 0 l 98 0 q 72 6 79 0 q 65 23 65 12 q 76 47 65 37 q 110 57 87 57 l 186 57 l 331 736 l 254 736 q 229 742 235 736 q 222 760 222 748 q 233 783 222 773 q 267 793 244 793 l 865 793 l 823 597 q 809 568 819 576 q 787 559 800 559 q 770 566 777 559 q 764 580 764 572 q 766 597 764 586 l 795 736 l 388 736 l 325 440 l 529 440 l 543 505 q 557 534 547 525 q 580 543 567 543 q 596 536 589 543 q 603 522 603 530 q 600 505 603 516 l 561 319 q 546 290 556 298 q 524 281 536 281 q 508 287 514 281 q 501 302 501 293 q 503 319 501 308 l 517 383 l 313 383 m 745 1025 l 556 887 q 527 873 538 873 q 510 880 517 873 q 504 896 504 886 q 508 912 504 905 q 528 930 512 919 l 718 1069 q 746 1082 735 1082 q 763 1076 756 1082 q 769 1060 769 1069 q 765 1044 769 1051 q 745 1025 761 1037 z "},"":{"ha":833,"x_min":66,"x_max":945,"o":"m 696 0 l 623 0 l 355 710 l 216 57 l 321 57 q 347 51 340 57 q 353 35 353 45 q 342 10 353 20 q 309 0 331 0 l 98 0 q 73 6 79 0 q 66 23 66 12 q 77 47 66 37 q 111 57 88 57 l 158 57 l 302 736 l 227 736 q 201 742 208 736 q 194 760 194 748 q 205 783 194 773 q 239 793 216 793 l 387 793 l 656 82 l 795 736 l 690 736 q 665 742 671 736 q 658 760 658 748 q 669 783 658 773 q 703 793 680 793 l 913 793 q 939 788 932 793 q 945 771 945 782 q 934 747 945 757 q 901 736 923 736 l 853 736 l 696 0 m 812 991 q 828 985 821 991 q 835 970 835 979 q 826 949 835 959 q 752 897 805 925 q 689 879 720 879 q 583 932 645 879 q 528 962 550 962 q 452 924 501 962 q 416 907 429 907 q 400 913 406 907 q 394 928 394 919 q 404 951 394 939 q 476 1001 422 972 q 539 1019 510 1019 q 579 1010 560 1019 q 639 969 599 1002 q 702 937 680 937 q 789 983 728 937 q 812 991 802 991 z "},"":{"ha":833,"x_min":143,"x_max":860,"o":"m 413 -22 q 220 61 297 -22 q 143 288 143 145 q 188 501 143 399 q 300 673 233 603 q 441 777 368 743 q 590 812 515 812 q 793 716 727 812 q 860 506 860 620 q 792 243 860 370 q 620 47 725 116 q 413 -22 515 -22 m 423 35 q 598 95 508 35 q 745 267 689 156 q 801 491 801 378 q 736 683 801 612 q 581 755 672 755 q 455 725 517 755 q 336 634 393 694 q 240 485 279 574 q 201 304 201 397 q 266 106 201 178 q 423 35 331 35 m 463 904 q 432 916 444 904 q 419 948 419 928 q 440 994 419 973 q 488 1015 460 1015 q 519 1002 507 1015 q 532 972 532 990 q 511 924 532 945 q 463 904 490 904 m 754 904 q 723 916 735 904 q 710 948 710 928 q 731 994 710 973 q 779 1015 751 1015 q 810 1002 798 1015 q 823 972 823 990 q 802 924 823 945 q 754 904 781 904 z "},"":{"ha":833,"x_min":191,"x_max":941,"o":"m 849 736 l 748 260 q 624 58 722 139 q 410 -22 526 -22 q 252 39 314 -22 q 191 201 191 101 q 197 260 191 228 l 298 736 l 251 736 q 225 742 232 736 q 218 759 218 748 q 230 783 218 773 q 263 793 241 793 l 473 793 q 499 788 492 793 q 506 771 506 782 q 494 747 506 757 q 461 736 483 736 l 356 736 l 255 260 q 250 211 250 236 q 299 84 250 134 q 420 35 348 35 q 530 60 478 35 q 629 139 582 85 q 690 260 676 194 l 792 736 l 687 736 q 661 742 668 736 q 654 760 654 748 q 665 783 654 773 q 699 793 677 793 l 909 793 q 935 788 928 793 q 941 771 941 782 q 930 747 941 757 q 897 736 919 736 l 849 736 m 444 904 q 413 916 425 904 q 400 948 400 928 q 421 994 400 973 q 469 1015 441 1015 q 500 1002 488 1015 q 513 972 513 990 q 492 924 513 945 q 444 904 471 904 m 735 904 q 704 916 716 904 q 691 948 691 928 q 712 994 691 973 q 760 1015 732 1015 q 791 1002 779 1015 q 804 972 804 990 q 783 924 804 945 q 735 904 762 904 z "},"":{"ha":833,"x_min":127,"x_max":776,"o":"m 581 0 l 598 82 q 311 -22 452 -22 q 174 18 220 -22 q 127 120 127 59 q 209 279 127 213 q 473 363 310 363 q 654 342 551 363 l 673 434 q 675 454 675 444 q 644 517 675 494 q 524 550 602 550 q 322 509 458 550 q 300 505 307 505 q 285 511 291 505 q 279 527 279 517 q 289 550 279 540 q 365 577 298 560 q 539 608 482 608 q 685 565 636 608 q 734 469 734 522 q 730 434 734 451 l 650 57 l 727 57 q 753 51 746 57 q 760 35 760 45 q 748 10 760 20 q 715 0 737 0 l 581 0 m 642 283 q 467 306 565 306 q 248 243 330 306 q 186 134 186 195 q 219 62 186 90 q 318 35 251 35 q 462 63 392 35 q 614 158 532 92 l 642 283 m 752 844 l 563 706 q 534 692 545 692 q 517 699 524 692 q 511 715 511 705 q 515 731 511 724 q 534 749 519 738 l 724 888 q 753 901 742 901 q 769 895 763 901 q 776 879 776 888 q 772 863 776 870 q 752 844 768 856 z "},"":{"ha":833,"x_min":127,"x_max":760,"o":"m 581 0 l 598 82 q 311 -22 452 -22 q 174 18 220 -22 q 127 120 127 59 q 209 279 127 213 q 473 363 310 363 q 654 342 551 363 l 673 434 q 675 454 675 444 q 644 517 675 494 q 524 550 602 550 q 322 509 458 550 q 300 505 307 505 q 285 511 291 505 q 279 527 279 517 q 289 550 279 540 q 365 577 298 560 q 539 608 482 608 q 685 565 636 608 q 734 469 734 522 q 730 434 734 451 l 650 57 l 727 57 q 753 51 746 57 q 760 35 760 45 q 748 10 760 20 q 715 0 737 0 l 581 0 m 642 283 q 467 306 565 306 q 248 243 330 306 q 186 134 186 195 q 219 62 186 90 q 318 35 251 35 q 462 63 392 35 q 614 158 532 92 l 642 283 m 545 887 l 675 749 q 688 727 688 732 q 677 703 688 713 q 652 692 666 692 q 629 705 641 692 l 498 844 q 486 865 486 857 q 497 890 486 879 q 522 901 508 901 q 532 898 528 901 q 545 887 537 896 z "},"":{"ha":833,"x_min":127,"x_max":767,"o":"m 581 0 l 598 82 q 311 -22 452 -22 q 174 18 220 -22 q 127 120 127 59 q 209 279 127 213 q 473 363 310 363 q 654 342 551 363 l 673 434 q 675 454 675 444 q 644 517 675 494 q 524 550 602 550 q 322 509 458 550 q 300 505 307 505 q 285 511 291 505 q 279 527 279 517 q 289 550 279 540 q 365 577 298 560 q 539 608 482 608 q 685 565 636 608 q 734 469 734 522 q 730 434 734 451 l 650 57 l 727 57 q 753 51 746 57 q 760 35 760 45 q 748 10 760 20 q 715 0 737 0 l 581 0 m 642 283 q 467 306 565 306 q 248 243 330 306 q 186 134 186 195 q 219 62 186 90 q 318 35 251 35 q 462 63 392 35 q 614 158 532 92 l 642 283 m 600 888 l 753 749 q 765 736 762 741 q 767 727 767 732 q 756 702 767 713 q 731 692 745 692 q 709 703 722 692 l 585 818 l 411 703 q 384 692 393 692 q 367 698 374 692 q 361 714 361 705 q 387 749 361 732 l 600 888 z "},"":{"ha":833,"x_min":127,"x_max":760,"o":"m 581 0 l 598 82 q 311 -22 452 -22 q 174 18 220 -22 q 127 120 127 59 q 209 279 127 213 q 473 363 310 363 q 654 342 551 363 l 673 434 q 675 454 675 444 q 644 517 675 494 q 524 550 602 550 q 322 509 458 550 q 300 505 307 505 q 285 511 291 505 q 279 527 279 517 q 289 550 279 540 q 365 577 298 560 q 539 608 482 608 q 685 565 636 608 q 734 469 734 522 q 730 434 734 451 l 650 57 l 727 57 q 753 51 746 57 q 760 35 760 45 q 748 10 760 20 q 715 0 737 0 l 581 0 m 642 283 q 467 306 565 306 q 248 243 330 306 q 186 134 186 195 q 219 62 186 90 q 318 35 251 35 q 462 63 392 35 q 614 158 532 92 l 642 283 m 393 722 q 361 734 374 722 q 349 766 349 747 q 369 812 349 791 q 417 833 390 833 q 449 821 437 833 q 461 790 461 808 q 440 743 461 763 q 393 722 420 722 m 684 722 q 652 734 665 722 q 640 766 640 747 q 660 812 640 791 q 708 833 681 833 q 740 821 727 833 q 752 790 752 808 q 731 743 752 763 q 684 722 711 722 z "},"":{"ha":833,"x_min":127,"x_max":790,"o":"m 581 0 l 598 82 q 311 -22 452 -22 q 174 18 220 -22 q 127 120 127 59 q 209 279 127 213 q 473 363 310 363 q 654 342 551 363 l 673 434 q 675 454 675 444 q 644 517 675 494 q 524 550 602 550 q 322 509 458 550 q 300 505 307 505 q 285 511 291 505 q 279 527 279 517 q 289 550 279 540 q 365 577 298 560 q 539 608 482 608 q 685 565 636 608 q 734 469 734 522 q 730 434 734 451 l 650 57 l 727 57 q 753 51 746 57 q 760 35 760 45 q 748 10 760 20 q 715 0 737 0 l 581 0 m 642 283 q 467 306 565 306 q 248 243 330 306 q 186 134 186 195 q 219 62 186 90 q 318 35 251 35 q 462 63 392 35 q 614 158 532 92 l 642 283 m 767 791 q 783 785 777 791 q 790 770 790 779 q 781 749 790 759 q 707 696 760 725 q 644 679 675 679 q 538 732 600 679 q 484 762 505 762 q 407 724 456 762 q 372 707 385 707 q 355 713 361 707 q 349 728 349 719 q 359 751 349 739 q 431 801 378 772 q 494 819 465 819 q 535 810 515 819 q 594 769 554 802 q 657 736 635 736 q 744 783 683 736 q 767 791 757 791 z "},"":{"ha":833,"x_min":127,"x_max":760,"o":"m 581 0 l 598 82 q 311 -22 452 -22 q 174 18 220 -22 q 127 120 127 59 q 209 279 127 213 q 473 363 310 363 q 654 342 551 363 l 673 434 q 675 454 675 444 q 644 517 675 494 q 524 550 602 550 q 322 509 458 550 q 300 505 307 505 q 285 511 291 505 q 279 527 279 517 q 289 550 279 540 q 365 577 298 560 q 539 608 482 608 q 685 565 636 608 q 734 469 734 522 q 730 434 734 451 l 650 57 l 727 57 q 753 51 746 57 q 760 35 760 45 q 748 10 760 20 q 715 0 737 0 l 581 0 m 642 283 q 467 306 565 306 q 248 243 330 306 q 186 134 186 195 q 219 62 186 90 q 318 35 251 35 q 462 63 392 35 q 614 158 532 92 l 642 283 m 548 684 q 477 711 505 684 q 449 780 449 739 q 495 880 449 835 q 601 925 541 925 q 672 898 644 925 q 700 831 700 871 q 654 728 700 773 q 548 684 608 684 m 557 724 q 627 754 597 724 q 658 822 658 784 q 640 866 658 848 q 592 884 621 884 q 522 854 552 884 q 491 789 491 825 q 509 743 491 761 q 557 724 528 724 z "},"":{"ha":833,"x_min":170,"x_max":831,"o":"m 767 530 q 783 576 775 568 q 808 587 794 587 q 824 581 818 587 q 831 566 831 574 q 829 549 831 560 l 801 420 q 786 390 796 399 q 764 381 777 381 q 748 387 754 381 q 741 401 741 393 q 743 415 741 406 q 743 426 743 420 q 700 505 743 472 q 549 550 643 550 q 393 510 466 550 q 274 389 319 469 q 229 231 229 309 q 285 89 229 142 q 441 35 341 35 q 580 59 506 35 q 722 138 654 83 q 751 151 739 151 q 766 145 760 151 q 772 130 772 140 q 759 102 772 117 q 615 15 711 52 q 421 -22 519 -22 q 238 44 307 -22 q 170 216 170 110 q 204 370 170 296 q 291 494 238 443 q 411 576 343 545 q 564 608 479 608 q 680 588 629 608 q 767 530 731 569 m 374 -111 l 395 -7 q 406 14 399 8 q 422 20 413 20 q 434 16 429 20 q 438 5 438 12 q 437 -7 438 1 l 422 -72 q 471 -93 454 -77 q 488 -132 488 -110 q 456 -197 488 -168 q 372 -226 425 -226 q 309 -214 342 -226 q 267 -193 276 -203 q 262 -179 262 -186 q 269 -162 262 -170 q 287 -155 277 -155 q 301 -159 294 -155 q 380 -185 342 -185 q 428 -170 410 -185 q 446 -140 446 -155 q 437 -121 446 -129 q 401 -111 422 -111 l 374 -111 z "},"":{"ha":833,"x_min":145,"x_max":796,"o":"m 785 280 l 205 280 q 203 248 203 259 q 266 95 203 155 q 437 35 329 35 q 574 55 500 35 q 701 111 648 76 q 726 121 716 121 q 741 115 734 121 q 747 98 747 109 q 736 75 747 86 q 611 10 705 42 q 421 -22 517 -22 q 221 52 296 -22 q 145 239 145 125 q 178 381 145 315 q 263 497 210 448 q 386 576 317 545 q 538 608 456 608 q 725 539 654 608 q 796 364 796 471 q 785 280 796 329 m 739 338 q 684 491 743 431 q 524 550 624 550 q 341 492 426 550 q 217 338 256 435 l 739 338 m 686 848 l 496 710 q 467 696 478 696 q 451 703 457 696 q 444 719 444 709 q 448 735 444 728 q 468 753 452 742 l 658 892 q 686 905 675 905 q 703 899 696 905 q 709 883 709 892 q 705 867 709 874 q 686 848 701 860 z "},"":{"ha":833,"x_min":145,"x_max":796,"o":"m 785 280 l 205 280 q 203 248 203 259 q 266 95 203 155 q 437 35 329 35 q 574 55 500 35 q 701 111 648 76 q 726 121 716 121 q 741 115 734 121 q 747 98 747 109 q 736 75 747 86 q 611 10 705 42 q 421 -22 517 -22 q 221 52 296 -22 q 145 239 145 125 q 178 381 145 315 q 263 497 210 448 q 386 576 317 545 q 538 608 456 608 q 725 539 654 608 q 796 364 796 471 q 785 280 796 329 m 739 338 q 684 491 743 431 q 524 550 624 550 q 341 492 426 550 q 217 338 256 435 l 739 338 m 505 894 l 636 755 q 648 734 648 739 q 637 709 648 720 q 612 699 627 699 q 589 712 602 699 l 458 850 q 447 872 447 863 q 458 897 447 886 q 483 907 469 907 q 493 905 488 907 q 505 894 498 903 z "},"":{"ha":833,"x_min":145,"x_max":796,"o":"m 785 280 l 205 280 q 203 248 203 259 q 266 95 203 155 q 437 35 329 35 q 574 55 500 35 q 701 111 648 76 q 726 121 716 121 q 741 115 734 121 q 747 98 747 109 q 736 75 747 86 q 611 10 705 42 q 421 -22 517 -22 q 221 52 296 -22 q 145 239 145 125 q 178 381 145 315 q 263 497 210 448 q 386 576 317 545 q 538 608 456 608 q 725 539 654 608 q 796 364 796 471 q 785 280 796 329 m 739 338 q 684 491 743 431 q 524 550 624 550 q 341 492 426 550 q 217 338 256 435 l 739 338 m 600 888 l 753 749 q 765 736 762 741 q 767 727 767 732 q 756 702 767 713 q 731 692 745 692 q 709 703 722 692 l 585 818 l 411 703 q 384 692 393 692 q 367 698 374 692 q 361 714 361 705 q 387 749 361 732 l 600 888 z "},"":{"ha":833,"x_min":145,"x_max":796,"o":"m 785 280 l 205 280 q 203 248 203 259 q 266 95 203 155 q 437 35 329 35 q 574 55 500 35 q 701 111 648 76 q 726 121 716 121 q 741 115 734 121 q 747 98 747 109 q 736 75 747 86 q 611 10 705 42 q 421 -22 517 -22 q 221 52 296 -22 q 145 239 145 125 q 178 381 145 315 q 263 497 210 448 q 386 576 317 545 q 538 608 456 608 q 725 539 654 608 q 796 364 796 471 q 785 280 796 329 m 739 338 q 684 491 743 431 q 524 550 624 550 q 341 492 426 550 q 217 338 256 435 l 739 338 m 427 722 q 396 734 408 722 q 383 766 383 747 q 404 812 383 791 q 452 833 425 833 q 484 821 471 833 q 496 790 496 808 q 475 743 496 763 q 427 722 454 722 m 718 722 q 687 734 699 722 q 674 766 674 747 q 695 812 674 791 q 743 833 715 833 q 774 821 762 833 q 787 790 787 808 q 766 743 787 763 q 718 722 745 722 z "},"":{"ha":833,"x_min":132,"x_max":713,"o":"m 570 587 l 457 57 l 681 57 q 707 51 700 57 q 713 35 713 45 q 702 10 713 20 q 669 0 691 0 l 164 0 q 138 6 145 0 q 132 23 132 12 q 143 47 132 37 q 176 57 154 57 l 400 57 l 500 530 l 334 530 q 308 536 315 530 q 301 553 301 542 q 313 577 301 566 q 347 587 324 587 l 570 587 m 637 844 l 448 705 q 418 692 429 692 q 402 698 408 692 q 395 714 395 705 q 399 730 395 723 q 419 749 404 737 l 609 887 q 637 901 627 901 q 654 894 648 901 q 661 878 661 888 q 656 862 661 869 q 637 844 652 855 z "},"":{"ha":833,"x_min":132,"x_max":713,"o":"m 570 587 l 457 57 l 681 57 q 707 51 700 57 q 713 35 713 45 q 702 10 713 20 q 669 0 691 0 l 164 0 q 138 6 145 0 q 132 23 132 12 q 143 47 132 37 q 176 57 154 57 l 400 57 l 500 530 l 334 530 q 308 536 315 530 q 301 553 301 542 q 313 577 301 566 q 347 587 324 587 l 570 587 m 491 882 l 622 743 q 634 722 634 726 q 623 697 634 708 q 598 686 612 686 q 575 700 587 686 l 444 838 q 433 860 433 851 q 444 884 433 873 q 469 895 454 895 q 479 893 474 895 q 491 882 484 890 z "},"":{"ha":833,"x_min":132,"x_max":750,"o":"m 570 587 l 457 57 l 681 57 q 707 51 700 57 q 713 35 713 45 q 702 10 713 20 q 669 0 691 0 l 164 0 q 138 6 145 0 q 132 23 132 12 q 143 47 132 37 q 176 57 154 57 l 400 57 l 500 530 l 334 530 q 308 536 315 530 q 301 553 301 542 q 313 577 301 566 q 347 587 324 587 l 570 587 m 583 888 l 736 749 q 748 736 745 741 q 750 727 750 732 q 739 702 750 713 q 714 692 728 692 q 692 703 705 692 l 568 818 l 394 703 q 367 692 376 692 q 350 698 357 692 q 344 714 344 705 q 370 749 344 732 l 583 888 z "},"":{"ha":833,"x_min":132,"x_max":726,"o":"m 570 587 l 457 57 l 681 57 q 707 51 700 57 q 713 35 713 45 q 702 10 713 20 q 669 0 691 0 l 164 0 q 138 6 145 0 q 132 23 132 12 q 143 47 132 37 q 176 57 154 57 l 400 57 l 500 530 l 334 530 q 308 536 315 530 q 301 553 301 542 q 313 577 301 566 q 347 587 324 587 l 570 587 m 367 722 q 335 734 348 722 q 323 766 323 747 q 343 812 323 791 q 391 833 364 833 q 423 821 411 833 q 435 790 435 808 q 415 743 435 763 q 367 722 394 722 m 658 722 q 626 734 639 722 q 614 766 614 747 q 634 812 614 791 q 682 833 655 833 q 714 821 701 833 q 726 790 726 808 q 706 743 726 763 q 658 722 685 722 z "},"":{"ha":833,"x_min":79,"x_max":789,"o":"m 357 587 l 339 501 q 466 585 414 563 q 580 608 519 608 q 712 563 664 608 q 760 447 760 518 q 756 416 760 433 l 680 57 l 728 57 q 753 51 747 57 q 760 35 760 45 q 749 10 760 20 q 715 0 738 0 l 562 0 q 536 6 543 0 q 530 23 530 12 q 541 47 530 37 q 574 57 552 57 l 623 57 l 696 406 q 700 436 700 422 q 665 518 700 486 q 566 550 631 550 q 461 526 507 550 q 321 414 414 503 l 245 57 l 309 57 q 335 51 328 57 q 342 35 342 45 q 331 10 342 20 q 297 0 319 0 l 111 0 q 85 6 92 0 q 79 23 79 12 q 90 47 79 37 q 123 57 101 57 l 188 57 l 288 530 l 240 530 q 214 536 221 530 q 208 553 208 542 q 219 577 208 566 q 252 587 230 587 l 357 587 m 766 791 q 783 785 776 791 q 789 770 789 779 q 781 749 789 759 q 707 696 760 725 q 644 679 674 679 q 538 732 600 679 q 483 762 505 762 q 406 724 456 762 q 371 707 384 707 q 355 713 361 707 q 349 728 349 719 q 359 751 349 739 q 431 801 377 772 q 494 819 465 819 q 534 810 515 819 q 594 769 553 802 q 656 736 634 736 q 743 783 682 736 q 766 791 756 791 z "},"":{"ha":833,"x_min":154,"x_max":804,"o":"m 410 -22 q 226 48 298 -22 q 154 229 154 119 q 208 409 154 317 q 357 554 262 501 q 549 608 452 608 q 732 537 660 608 q 804 361 804 467 q 751 178 804 269 q 603 33 699 87 q 410 -22 508 -22 m 422 35 q 581 80 503 35 q 702 199 659 125 q 745 349 745 274 q 686 492 745 435 q 536 550 627 550 q 413 524 470 550 q 313 457 357 498 q 241 358 269 416 q 212 240 212 301 q 271 93 212 151 q 422 35 330 35 m 760 844 l 571 706 q 542 692 553 692 q 525 699 532 692 q 519 715 519 705 q 523 731 519 724 q 543 749 527 738 l 732 888 q 761 901 750 901 q 778 895 771 901 q 784 879 784 888 q 780 863 784 870 q 760 844 776 856 z "},"":{"ha":833,"x_min":154,"x_max":804,"o":"m 410 -22 q 226 48 298 -22 q 154 229 154 119 q 208 409 154 317 q 357 554 262 501 q 549 608 452 608 q 732 537 660 608 q 804 361 804 467 q 751 178 804 269 q 603 33 699 87 q 410 -22 508 -22 m 422 35 q 581 80 503 35 q 702 199 659 125 q 745 349 745 274 q 686 492 745 435 q 536 550 627 550 q 413 524 470 550 q 313 457 357 498 q 241 358 269 416 q 212 240 212 301 q 271 93 212 151 q 422 35 330 35 m 515 888 l 646 749 q 658 728 658 732 q 647 703 658 714 q 622 692 636 692 q 599 706 611 692 l 468 844 q 456 866 456 857 q 467 890 456 880 q 492 901 478 901 q 503 899 498 901 q 515 888 507 897 z "},"":{"ha":833,"x_min":154,"x_max":804,"o":"m 410 -22 q 226 48 298 -22 q 154 229 154 119 q 208 409 154 317 q 357 554 262 501 q 549 608 452 608 q 732 537 660 608 q 804 361 804 467 q 751 178 804 269 q 603 33 699 87 q 410 -22 508 -22 m 422 35 q 581 80 503 35 q 702 199 659 125 q 745 349 745 274 q 686 492 745 435 q 536 550 627 550 q 413 524 470 550 q 313 457 357 498 q 241 358 269 416 q 212 240 212 301 q 271 93 212 151 q 422 35 330 35 m 600 888 l 753 749 q 765 736 762 741 q 767 727 767 732 q 756 702 767 713 q 731 692 745 692 q 709 703 722 692 l 585 818 l 411 703 q 384 692 393 692 q 367 698 374 692 q 361 714 361 705 q 387 749 361 732 l 600 888 z "},"":{"ha":833,"x_min":154,"x_max":804,"o":"m 410 -22 q 226 48 298 -22 q 154 229 154 119 q 208 409 154 317 q 357 554 262 501 q 549 608 452 608 q 732 537 660 608 q 804 361 804 467 q 751 178 804 269 q 603 33 699 87 q 410 -22 508 -22 m 422 35 q 581 80 503 35 q 702 199 659 125 q 745 349 745 274 q 686 492 745 435 q 536 550 627 550 q 413 524 470 550 q 313 457 357 498 q 241 358 269 416 q 212 240 212 301 q 271 93 212 151 q 422 35 330 35 m 423 723 q 392 735 404 723 q 379 767 379 747 q 400 813 379 792 q 448 833 420 833 q 479 821 467 833 q 492 791 492 809 q 471 743 492 764 q 423 723 450 723 m 714 723 q 683 735 695 723 q 670 767 670 747 q 691 813 670 792 q 739 833 711 833 q 770 821 758 833 q 783 791 783 809 q 762 743 783 764 q 714 723 741 723 z "},"":{"ha":833,"x_min":154,"x_max":804,"o":"m 410 -22 q 226 48 298 -22 q 154 229 154 119 q 208 409 154 317 q 357 554 262 501 q 549 608 452 608 q 732 537 660 608 q 804 361 804 467 q 751 178 804 269 q 603 33 699 87 q 410 -22 508 -22 m 422 35 q 581 80 503 35 q 702 199 659 125 q 745 349 745 274 q 686 492 745 435 q 536 550 627 550 q 413 524 470 550 q 313 457 357 498 q 241 358 269 416 q 212 240 212 301 q 271 93 212 151 q 422 35 330 35 m 766 791 q 783 785 776 791 q 789 770 789 779 q 781 749 789 759 q 707 696 760 725 q 644 679 674 679 q 538 732 600 679 q 483 762 505 762 q 406 724 456 762 q 371 707 384 707 q 355 713 361 707 q 349 728 349 719 q 359 751 349 739 q 431 801 377 772 q 494 819 465 819 q 534 810 515 819 q 594 769 553 802 q 656 736 634 736 q 743 783 682 736 q 766 791 756 791 z "},"":{"ha":833,"x_min":180,"x_max":793,"o":"m 612 1 l 629 84 q 353 -22 490 -22 q 245 17 285 -22 q 205 117 205 56 q 211 163 205 138 l 289 530 l 212 530 q 186 536 193 530 q 180 553 180 543 q 191 577 180 567 q 224 588 202 588 l 358 588 l 268 163 q 265 134 265 149 q 292 62 265 89 q 363 35 318 35 q 646 163 504 35 l 724 530 l 619 530 q 593 536 600 530 q 587 553 587 543 q 598 577 587 567 q 631 588 609 588 l 793 588 l 681 58 l 729 58 q 755 52 748 58 q 762 35 762 46 q 750 11 762 21 q 717 1 739 1 l 612 1 m 711 844 l 522 706 q 493 692 504 692 q 476 699 483 692 q 470 715 470 705 q 474 731 470 724 q 494 749 478 738 l 684 888 q 712 901 701 901 q 729 895 722 901 q 735 879 735 888 q 731 863 735 870 q 711 844 727 856 z "},"":{"ha":833,"x_min":180,"x_max":793,"o":"m 612 1 l 629 84 q 353 -22 490 -22 q 245 17 285 -22 q 205 117 205 56 q 211 163 205 138 l 289 530 l 212 530 q 186 536 193 530 q 180 553 180 543 q 191 577 180 567 q 224 588 202 588 l 358 588 l 268 163 q 265 134 265 149 q 292 62 265 89 q 363 35 318 35 q 646 163 504 35 l 724 530 l 619 530 q 593 536 600 530 q 587 553 587 543 q 598 577 587 567 q 631 588 609 588 l 793 588 l 681 58 l 729 58 q 755 52 748 58 q 762 35 762 46 q 750 11 762 21 q 717 1 739 1 l 612 1 m 466 888 l 597 749 q 609 728 609 732 q 598 703 609 714 q 573 692 587 692 q 550 706 562 692 l 419 844 q 408 866 408 857 q 418 890 408 880 q 444 901 429 901 q 454 899 449 901 q 466 888 458 897 z "},"":{"ha":833,"x_min":180,"x_max":793,"o":"m 612 0 l 629 83 q 353 -22 490 -22 q 245 17 285 -22 q 205 116 205 56 q 211 162 205 138 l 289 530 l 212 530 q 186 536 193 530 q 180 553 180 542 q 191 577 180 566 q 224 587 202 587 l 358 587 l 268 162 q 265 133 265 148 q 292 61 265 88 q 363 35 318 35 q 646 162 504 35 l 724 530 l 619 530 q 593 536 600 530 q 587 553 587 542 q 598 577 587 566 q 631 587 609 587 l 793 587 l 681 57 l 729 57 q 755 51 748 57 q 762 35 762 45 q 750 10 762 20 q 717 0 739 0 l 612 0 m 569 888 l 723 749 q 734 736 732 741 q 736 727 736 732 q 726 702 736 713 q 701 692 715 692 q 679 703 692 692 l 554 818 l 380 703 q 353 692 363 692 q 337 698 343 692 q 330 714 330 705 q 356 749 330 732 l 569 888 z "},"":{"ha":833,"x_min":180,"x_max":793,"o":"m 612 0 l 629 83 q 353 -22 490 -22 q 245 17 285 -22 q 205 116 205 56 q 211 162 205 138 l 289 530 l 212 530 q 186 536 193 530 q 180 553 180 542 q 191 577 180 566 q 224 587 202 587 l 358 587 l 268 162 q 265 133 265 148 q 292 61 265 88 q 363 35 318 35 q 646 162 504 35 l 724 530 l 619 530 q 593 536 600 530 q 587 553 587 542 q 598 577 587 566 q 631 587 609 587 l 793 587 l 681 57 l 729 57 q 755 51 748 57 q 762 35 762 45 q 750 10 762 20 q 717 0 739 0 l 612 0 m 400 722 q 369 734 381 722 q 356 766 356 747 q 377 812 356 791 q 425 833 397 833 q 456 821 444 833 q 469 790 469 808 q 448 743 469 763 q 400 722 427 722 m 691 722 q 660 734 672 722 q 647 766 647 747 q 668 812 647 791 q 715 833 688 833 q 747 821 734 833 q 760 790 760 808 q 739 743 760 763 q 691 722 718 722 z "},"":{"ha":833,"x_min":289,"x_max":783,"o":"m 558 531 l 435 -50 q 421 -79 431 -71 q 398 -88 411 -88 q 381 -82 388 -88 q 375 -67 375 -75 q 378 -50 375 -61 l 501 531 l 321 531 q 296 537 302 531 q 289 554 289 543 q 300 578 289 568 q 334 589 311 589 l 513 588 l 561 812 q 575 842 565 833 q 598 851 585 851 q 614 845 608 851 q 621 830 621 838 q 618 812 621 824 l 570 588 l 749 588 q 776 582 769 588 q 783 566 783 576 q 771 541 783 551 q 737 531 760 531 l 558 531 z "},"":{"ha":833,"x_min":392,"x_max":768,"o":"m 392 823 q 447 956 392 901 q 580 1011 503 1011 q 713 956 659 1011 q 768 823 768 901 q 713 690 768 745 q 580 635 658 635 q 447 690 503 635 q 392 823 392 745 m 466 823 q 499 742 466 776 q 581 709 533 709 q 661 742 627 709 q 694 823 694 776 q 661 904 694 871 q 581 938 627 938 q 499 904 533 938 q 466 823 466 871 z "},"":{"ha":833,"x_min":242,"x_max":787,"o":"m 536 699 l 572 868 q 586 897 576 888 q 609 906 596 906 q 625 900 618 906 q 631 886 631 894 q 629 868 631 879 l 593 701 q 730 650 680 698 q 764 673 743 673 q 780 667 774 673 q 787 650 787 661 q 785 638 787 644 l 767 552 q 752 522 762 531 q 730 513 743 513 q 714 519 720 513 q 707 534 707 526 l 709 558 q 678 614 709 591 q 568 646 638 646 q 378 570 456 646 q 300 393 300 494 q 347 278 300 323 q 474 233 394 233 q 572 248 519 233 q 664 292 624 263 q 691 303 680 303 q 708 297 702 303 q 713 282 713 292 q 652 225 713 255 q 483 178 566 183 l 453 38 q 438 9 448 18 q 416 0 429 0 q 400 6 406 0 q 393 21 393 12 q 395 38 393 27 l 425 178 q 292 245 342 189 q 242 384 242 302 q 280 523 242 452 q 382 637 317 594 q 536 699 446 680 z "},"":{"ha":833,"x_min":121,"x_max":755,"o":"m 264 57 l 616 57 q 664 75 642 57 q 696 130 685 94 q 711 154 701 146 q 732 162 720 162 q 748 156 742 162 q 755 140 755 149 q 733 80 755 116 q 678 22 711 45 q 608 0 644 0 l 154 0 q 128 6 135 0 q 121 23 121 12 q 132 46 121 36 q 159 56 142 56 q 220 83 189 58 q 313 220 273 130 q 350 385 352 310 l 204 385 q 178 390 185 385 q 171 407 171 396 q 182 431 171 421 q 216 441 194 441 l 348 441 q 340 556 340 513 q 416 739 340 662 q 588 815 492 815 q 716 758 667 815 q 747 703 747 724 q 735 681 747 691 q 711 671 724 671 q 690 688 699 671 q 652 734 671 720 q 578 758 617 758 q 453 701 507 758 q 399 562 399 645 q 400 519 399 539 l 406 441 l 545 441 q 570 436 564 441 q 578 419 578 429 q 567 395 578 405 q 533 385 555 385 l 407 385 q 365 207 403 294 q 264 57 328 120 z "},"":{"ha":833,"x_min":139,"x_max":857,"o":"m 857 851 l 827 704 q 816 683 823 690 q 800 677 809 677 q 788 681 793 677 q 784 692 784 686 q 785 704 784 696 l 808 810 l 570 810 q 461 763 511 810 q 412 669 412 716 q 433 614 412 642 q 581 498 465 572 l 648 454 q 766 359 738 396 q 793 283 793 322 q 746 191 793 231 q 616 149 699 150 q 627 104 627 125 q 599 16 627 61 q 523 -59 571 -29 q 414 -88 474 -88 l 139 -88 l 170 60 q 181 81 174 75 q 197 87 188 87 q 209 83 204 87 q 213 72 213 79 q 212 60 213 68 l 189 -47 l 422 -47 q 551 14 502 -47 q 584 90 584 55 q 558 155 584 121 q 436 252 532 189 l 359 303 q 235 406 267 364 q 202 485 202 446 q 248 571 202 532 q 381 615 294 610 q 370 659 370 640 q 399 746 370 701 q 477 821 427 791 q 576 851 526 851 l 857 851 m 406 576 q 382 574 395 574 q 278 547 313 574 q 243 492 243 521 q 275 427 243 461 q 394 335 307 393 l 468 286 q 592 186 560 224 q 614 191 600 191 q 696 204 667 192 q 738 235 725 216 q 751 271 751 253 q 623 416 751 332 l 546 465 q 456 528 481 507 q 406 576 431 548 z "},"":{"ha":833,"x_min":337,"x_max":680,"o":"m 471 264 q 375 301 413 264 q 337 397 337 339 q 400 537 337 475 q 546 600 464 600 q 642 562 604 600 q 680 469 680 524 q 616 326 680 389 q 471 264 553 264 z "},"":{"ha":833,"x_min":217,"x_max":898,"o":"m 779 810 l 597 -47 l 686 -47 q 703 -51 699 -47 q 709 -63 709 -56 q 701 -81 709 -73 q 677 -88 693 -88 l 545 -88 q 527 -84 531 -88 q 521 -71 521 -79 q 529 -54 521 -62 q 555 -47 538 -47 l 738 810 l 618 810 l 435 -47 q 453 -49 448 -47 q 459 -54 456 -50 q 462 -63 462 -58 q 454 -81 462 -73 q 430 -88 446 -88 l 241 -88 q 222 -84 227 -88 q 217 -71 217 -79 q 225 -54 217 -62 q 249 -47 233 -47 l 395 -47 l 486 382 q 288 450 358 391 q 237 557 237 494 q 239 581 237 568 l 254 647 q 296 732 263 692 q 349 779 320 762 q 463 830 399 810 q 597 851 526 851 l 875 851 q 893 847 888 851 q 898 835 898 842 q 890 817 898 825 q 866 810 882 810 l 779 810 m 577 810 q 412 750 477 801 q 334 644 347 700 l 323 591 q 321 571 321 580 q 365 475 321 516 q 495 425 410 433 l 577 810 z "},"":{"ha":833,"x_min":66,"x_max":755,"o":"m 187 57 l 317 671 q 402 798 333 744 q 557 851 471 851 q 676 806 631 851 q 722 687 722 760 q 693 585 722 631 q 606 505 665 540 q 718 417 682 471 q 755 294 755 363 q 693 96 755 190 q 508 -22 616 -22 q 423 11 454 -22 q 392 107 392 44 q 403 160 392 146 q 431 174 414 174 q 447 168 441 174 q 454 153 454 162 q 452 141 454 149 q 450 119 450 130 q 469 55 450 75 q 521 35 487 35 q 644 118 593 35 q 696 277 696 201 q 679 358 696 321 q 628 421 663 395 q 561 459 593 448 q 485 471 528 471 q 462 475 468 471 q 454 494 454 482 q 465 518 454 507 q 491 528 475 528 q 580 551 537 528 q 644 605 623 573 q 664 676 664 637 q 631 760 664 727 q 546 793 597 793 q 432 756 480 793 q 375 671 385 719 l 244 57 l 265 57 q 292 51 285 57 q 298 35 298 45 q 287 10 298 20 q 253 0 275 0 l 98 0 q 73 6 79 0 q 66 23 66 12 q 77 47 66 37 q 111 57 88 57 l 187 57 z "},"":{"ha":833,"x_min":0,"x_max":829,"o":"m 829 396 q 708 103 829 224 q 414 -18 587 -18 q 121 103 243 -18 q 0 396 0 224 q 121 690 0 568 q 414 811 243 811 q 708 690 587 811 q 829 396 829 568 m 783 396 q 675 657 783 549 q 414 765 568 765 q 154 657 262 765 q 45 396 45 549 q 154 136 45 243 q 414 28 262 28 q 675 136 568 28 q 783 396 783 243 m 313 372 l 313 204 l 372 204 q 385 202 381 204 q 391 196 389 200 q 394 188 394 193 q 391 179 394 183 q 385 173 389 175 q 372 172 381 172 l 237 172 q 224 173 228 172 q 218 179 220 175 q 215 188 215 183 q 218 196 215 192 q 224 202 220 201 q 237 204 228 204 l 280 204 l 280 589 l 237 589 q 224 591 228 589 q 218 597 220 593 q 215 605 215 601 q 218 614 215 610 q 224 620 220 618 q 237 621 228 621 l 432 621 q 534 583 492 621 q 575 496 575 545 q 549 431 575 462 q 464 380 524 401 q 523 327 498 357 q 602 204 548 297 l 627 204 q 639 202 635 204 q 646 196 643 200 q 648 188 648 192 q 646 179 648 183 q 639 173 643 175 q 627 172 635 172 l 583 172 q 491 315 524 278 q 415 372 458 351 l 313 372 m 313 404 l 400 404 q 505 434 467 404 q 543 498 543 465 q 510 560 543 531 q 431 589 478 589 l 313 589 l 313 404 z "},"":{"ha":833,"x_min":0,"x_max":829,"o":"m 829 396 q 708 103 829 224 q 414 -18 587 -18 q 121 103 243 -18 q 0 396 0 224 q 121 690 0 568 q 414 811 243 811 q 708 690 587 811 q 829 396 829 568 m 783 396 q 675 657 783 549 q 414 765 568 765 q 154 657 262 765 q 45 396 45 549 q 154 136 45 243 q 414 28 262 28 q 675 136 568 28 q 783 396 783 243 m 549 585 l 549 608 q 554 624 549 619 q 566 629 559 629 q 577 624 573 629 q 582 608 582 619 l 582 518 q 580 505 582 509 q 574 499 578 501 q 566 496 570 496 q 555 501 559 496 q 549 515 551 505 q 515 573 547 549 q 413 607 470 607 q 306 564 345 607 q 253 434 253 506 l 253 378 q 305 252 253 305 q 426 199 357 199 q 564 271 505 199 q 578 279 571 279 q 590 275 586 279 q 594 264 594 271 q 543 206 594 245 q 427 167 492 167 q 323 196 370 167 q 241 288 277 224 q 220 373 220 323 l 220 439 q 272 575 220 511 q 412 640 323 640 q 549 585 492 640 z "},"":{"ha":833,"x_min":-44,"x_max":836,"o":"m 164 870 l 164 463 l 253 463 q 271 458 265 463 q 276 445 276 453 q 270 432 276 437 q 253 428 265 428 l 41 428 q 24 433 29 428 q 18 445 18 437 q 24 458 18 453 q 41 463 29 463 l 130 463 l 130 870 l -9 870 l -9 751 q -15 734 -9 739 q -27 728 -20 728 q -39 734 -35 728 q -44 751 -44 739 l -44 904 l 338 904 l 338 751 q 336 738 338 742 q 330 731 334 734 q 321 728 326 728 q 309 734 313 728 q 304 751 304 739 l 304 870 l 164 870 m 608 570 l 568 570 l 432 870 l 426 870 l 426 463 l 490 463 q 509 458 503 463 q 514 445 514 453 q 509 433 514 437 q 490 428 503 428 l 361 428 q 342 433 348 428 q 337 445 337 437 q 342 458 337 453 q 361 463 348 463 l 390 463 l 390 870 l 368 870 q 350 875 356 870 q 345 887 345 880 q 350 899 345 895 q 368 904 355 904 l 454 904 l 588 609 l 719 904 l 805 904 q 823 899 818 904 q 829 887 829 895 q 823 875 829 880 q 805 870 818 870 l 783 870 l 783 463 l 812 463 q 831 458 825 463 q 836 445 836 453 q 831 433 836 437 q 812 428 825 428 l 683 428 q 665 433 670 428 q 659 445 659 437 q 665 458 659 453 q 683 463 670 463 l 748 463 l 748 870 l 741 870 l 608 570 z "},"":{"ha":833,"x_min":535,"x_max":800,"o":"m 777 844 l 587 706 q 558 692 569 692 q 542 699 548 692 q 535 715 535 705 q 539 731 535 724 q 559 749 543 738 l 749 888 q 777 901 766 901 q 794 895 787 901 q 800 879 800 888 q 796 863 800 870 q 777 844 792 856 z "},"":{"ha":833,"x_min":374,"x_max":778,"o":"m 418 723 q 387 735 399 723 q 374 767 374 747 q 395 813 374 792 q 443 833 416 833 q 475 821 463 833 q 487 791 487 809 q 466 743 487 764 q 418 723 446 723 m 709 723 q 678 735 690 723 q 665 767 665 747 q 686 813 665 792 q 734 833 707 833 q 765 821 753 833 q 778 791 778 809 q 757 743 778 764 q 709 723 736 723 z "},"":{"ha":833,"x_min":130,"x_max":872,"o":"m 589 471 l 486 324 l 796 324 q 821 319 815 324 q 829 302 829 312 q 818 277 829 288 q 784 267 806 267 l 447 267 l 245 -24 q 226 -44 233 -40 q 209 -49 218 -49 q 193 -42 199 -49 q 186 -25 186 -36 q 198 1 186 -16 l 383 267 l 163 267 q 137 273 144 267 q 130 290 130 279 q 141 314 130 304 q 175 324 153 324 l 422 324 l 525 471 l 206 471 q 180 477 187 471 q 174 494 174 484 q 185 518 174 508 q 218 529 197 529 l 565 529 l 766 819 q 785 840 778 836 q 802 844 793 844 q 819 838 812 844 q 825 821 825 831 q 813 795 825 812 l 629 529 l 840 529 q 865 523 859 529 q 872 506 872 517 q 861 481 872 492 q 827 471 850 471 l 589 471 z "},"":{"ha":833,"x_min":18,"x_max":962,"o":"m 473 267 l 275 267 l 172 57 l 210 57 q 235 51 229 57 q 242 35 242 45 q 231 10 242 20 q 197 0 220 0 l 51 0 q 25 6 32 0 q 18 23 18 12 q 30 47 18 37 q 63 57 41 57 l 115 57 l 446 736 l 358 736 q 332 742 338 736 q 325 760 325 748 q 336 783 325 773 q 370 793 348 793 l 962 793 l 917 579 q 903 550 913 558 q 880 541 893 541 q 864 547 871 541 q 857 562 857 553 q 860 579 857 568 l 893 736 l 631 736 l 568 441 l 678 441 l 686 480 q 701 510 691 501 q 724 519 711 519 q 740 512 733 519 q 746 498 746 506 q 744 480 746 492 l 715 346 q 701 316 711 325 q 678 307 691 307 q 662 314 669 307 q 656 329 656 320 q 658 346 656 334 l 666 385 l 556 385 l 486 57 l 778 57 l 806 189 q 818 216 810 210 q 840 227 829 227 l 852 224 q 865 206 865 217 q 863 189 865 200 l 823 0 l 344 0 q 318 6 325 0 q 311 23 311 12 q 322 47 311 37 q 356 57 334 57 l 429 57 l 473 267 m 486 322 l 574 736 l 503 736 l 302 322 l 486 322 z "},"":{"ha":833,"x_min":47,"x_max":954,"o":"m 212 71 l 103 -39 q 84 -54 91 -51 q 71 -57 78 -57 q 54 -51 60 -57 q 47 -34 47 -44 q 51 -21 47 -27 q 65 -3 54 -15 l 183 115 q 143 288 143 192 q 188 502 143 400 q 301 673 233 604 q 441 777 368 743 q 590 812 515 812 q 789 721 713 812 l 899 831 q 917 846 911 843 q 931 849 924 849 q 948 843 941 849 q 954 826 954 836 q 951 813 954 819 q 937 795 948 807 l 819 677 q 860 502 860 599 q 815 289 860 391 q 703 118 771 188 q 562 13 635 47 q 412 -22 488 -22 q 212 71 289 -22 m 743 675 q 581 755 677 755 q 455 725 517 755 q 336 634 393 694 q 240 486 279 574 q 201 303 201 397 q 231 162 201 227 l 743 675 m 258 117 q 422 35 323 35 q 545 64 484 35 q 663 151 606 93 q 760 298 720 210 q 801 488 801 387 q 771 630 801 566 l 258 117 z "},"":{"ha":833,"x_min":155,"x_max":841,"o":"m 498 460 q 689 574 584 574 q 799 532 757 574 q 841 423 841 491 q 800 312 841 355 q 694 270 759 270 q 498 385 593 270 q 397 294 441 317 q 303 271 352 271 q 197 312 239 271 q 155 420 155 354 q 199 530 155 487 q 307 573 242 573 q 498 460 408 573 m 532 422 q 626 341 592 358 q 694 323 659 323 q 765 350 739 323 q 791 422 791 377 q 763 494 791 466 q 691 522 734 522 q 611 497 654 522 q 532 422 568 473 m 466 423 q 372 504 407 486 q 302 522 338 522 q 232 494 260 522 q 205 422 205 467 q 232 350 205 376 q 300 323 258 323 q 388 351 343 323 q 466 423 432 380 z "},"":{"ha":833,"x_min":100,"x_max":821,"o":"m 524 433 l 463 149 q 449 119 459 128 q 427 111 439 111 q 410 117 416 111 q 404 132 404 123 q 406 149 404 138 l 467 433 l 214 433 q 189 439 195 433 q 182 456 182 446 q 193 481 182 471 q 227 491 204 491 l 479 491 l 539 774 q 553 804 543 795 q 576 812 563 812 q 592 806 586 812 q 599 791 599 800 q 596 774 599 786 l 536 491 l 788 491 q 809 489 804 491 q 818 480 814 486 q 821 468 821 475 q 810 444 821 454 q 776 433 798 433 l 524 433 m 653 0 l 174 0 q 116 1 121 0 q 104 8 109 3 q 100 22 100 14 q 107 43 100 33 q 124 56 115 52 q 186 58 132 58 l 665 57 q 723 56 718 57 q 734 49 730 55 q 739 35 739 43 q 732 15 739 24 q 715 2 724 5 q 653 0 707 0 z "},"":{"ha":833,"x_min":117,"x_max":903,"o":"m 167 616 l 856 959 q 880 968 872 968 q 896 961 890 968 q 903 945 903 955 q 873 909 903 924 l 283 616 l 747 323 q 765 300 765 313 q 754 276 765 286 q 730 265 743 265 q 709 273 722 265 l 167 616 m 670 163 l 191 163 q 133 165 138 163 q 121 172 126 166 q 117 186 117 178 q 124 206 117 197 q 141 218 132 216 q 203 220 149 220 l 682 220 q 740 220 735 220 q 751 212 747 218 q 756 198 756 206 q 749 178 756 188 q 732 165 741 168 q 670 163 724 163 z "},"":{"ha":833,"x_min":77,"x_max":854,"o":"m 854 616 l 166 273 q 142 265 149 265 q 125 272 132 265 q 119 288 119 278 q 149 323 119 309 l 739 616 l 274 909 q 257 932 257 920 q 268 957 257 946 q 292 968 278 968 q 312 960 299 968 l 854 616 m 631 163 l 151 163 q 94 165 99 163 q 82 172 87 166 q 77 186 77 178 q 85 206 77 197 q 102 218 92 216 q 163 220 109 220 l 643 220 q 701 220 696 220 q 712 212 707 218 q 717 198 717 206 q 709 178 717 188 q 692 165 702 168 q 631 163 685 163 z "},"":{"ha":833,"x_min":223,"x_max":928,"o":"m 519 347 l 496 239 l 681 239 q 699 236 694 239 q 704 224 704 231 q 696 206 704 214 q 672 199 688 199 l 488 199 l 457 57 l 578 57 q 605 51 598 57 q 612 35 612 45 q 600 10 612 20 q 566 0 589 0 l 267 0 q 241 6 248 0 q 234 23 234 12 q 245 47 234 37 q 279 57 256 57 l 400 57 l 430 199 l 247 199 q 229 203 233 199 q 223 216 223 208 q 231 232 223 225 q 255 239 239 239 l 439 239 l 462 347 l 278 347 q 259 351 264 347 q 254 363 254 355 q 262 380 254 373 q 287 387 271 387 l 450 387 l 295 736 l 261 736 q 236 741 242 736 q 229 759 229 748 q 240 783 229 773 q 273 793 251 793 l 429 793 q 454 788 448 793 q 462 770 462 781 q 450 747 462 757 q 416 736 439 736 l 362 736 l 505 416 l 783 736 l 728 736 q 703 741 709 736 q 696 759 696 748 q 707 783 696 773 q 741 793 718 793 l 895 793 q 920 788 914 793 q 928 770 928 781 q 917 747 928 757 q 883 736 905 736 l 850 736 l 545 387 l 712 387 q 730 384 726 387 q 735 371 735 378 q 727 354 735 361 q 703 347 719 347 l 519 347 z "},"":{"ha":833,"x_min":126,"x_max":793,"o":"m 238 23 l 186 -224 q 171 -253 181 -244 q 149 -262 161 -262 q 133 -256 139 -262 q 126 -241 126 -250 q 128 -224 126 -235 l 289 530 l 212 530 q 186 536 193 530 q 180 553 180 542 q 191 577 180 566 q 224 587 202 587 l 358 587 l 268 162 q 263 118 263 140 q 287 54 263 76 q 365 33 311 33 q 501 67 425 33 q 646 162 577 101 l 724 530 l 619 530 q 593 536 600 530 q 586 553 586 542 q 597 577 586 566 q 631 587 609 587 l 793 587 l 681 57 l 728 57 q 749 55 744 57 q 758 47 754 53 q 762 35 762 41 q 750 10 762 20 q 716 0 739 0 l 612 0 l 629 83 q 353 -22 500 -22 q 238 23 286 -22 z "},"":{"ha":833,"x_min":119,"x_max":677,"o":"m 621 519 q 601 697 619 647 q 552 770 582 748 q 484 793 522 793 q 401 766 441 793 q 324 671 361 739 q 309 649 315 653 q 294 644 302 644 q 272 652 281 644 q 264 671 264 661 q 298 742 264 690 q 384 822 332 793 q 484 851 435 851 q 605 798 555 851 q 677 533 677 722 q 625 234 677 363 q 482 42 572 105 q 304 -20 392 -20 q 170 32 220 -20 q 119 174 119 83 q 154 316 119 251 q 248 425 189 382 q 396 492 307 467 q 621 519 486 517 m 620 461 q 459 448 515 458 q 307 396 369 432 q 210 299 245 360 q 176 172 176 238 q 213 75 176 112 q 307 37 251 37 q 418 68 361 37 q 517 152 475 99 q 588 296 559 205 q 620 461 608 359 z "},"":{"ha":833,"x_min":131,"x_max":848,"o":"m 791 -205 l 791 -25 q 799 4 791 -5 q 820 13 807 13 q 840 4 832 13 q 848 -25 848 -5 l 848 -262 l 131 -262 l 131 -201 l 486 304 l 142 798 l 142 851 l 844 851 l 844 635 q 837 606 844 614 q 816 597 829 597 q 795 606 803 597 q 787 635 787 614 l 787 793 l 208 793 l 551 309 l 197 -205 l 791 -205 z "},"":{"ha":833,"x_min":125,"x_max":885,"o":"m 746 -205 l 746 793 l 264 793 l 264 -205 l 308 -205 q 337 -213 328 -205 q 346 -233 346 -220 q 337 -254 346 -245 q 308 -262 328 -262 l 163 -262 q 134 -254 142 -262 q 125 -233 125 -246 q 134 -213 125 -220 q 163 -205 142 -205 l 207 -205 l 207 793 l 163 793 q 134 802 142 793 q 125 823 125 810 q 129 838 125 831 q 140 848 134 845 q 163 851 146 851 l 847 851 q 876 843 867 851 q 885 822 885 835 q 876 802 885 810 q 847 793 867 793 l 804 793 l 804 -205 l 847 -205 q 876 -213 867 -205 q 885 -233 885 -220 q 876 -254 885 -245 q 847 -262 867 -262 l 703 -262 q 673 -254 682 -262 q 664 -233 664 -246 q 673 -213 664 -220 q 703 -205 682 -205 l 746 -205 z "},"":{"ha":833,"x_min":-24,"x_max":1094,"o":"m 592 583 l 528 282 q 444 -3 487 89 q 351 -150 401 -94 q 251 -230 300 -206 q 141 -254 202 -254 q 21 -214 66 -254 q -24 -123 -24 -174 q -3 -63 -24 -86 q 50 -40 19 -40 q 94 -58 78 -40 q 110 -117 110 -77 q 114 -174 110 -165 q 136 -197 119 -187 q 172 -208 152 -208 q 256 -181 213 -208 q 326 -117 298 -155 q 402 27 366 -64 q 474 284 439 119 l 538 584 q 631 899 583 798 q 778 1088 691 1025 q 928 1137 844 1137 q 1049 1097 1004 1137 q 1094 1006 1094 1057 q 1072 945 1094 968 q 1019 922 1050 922 q 975 941 991 922 q 959 1000 959 960 q 956 1056 959 1048 q 933 1080 950 1069 q 897 1090 917 1090 q 815 1064 856 1090 q 742 998 774 1038 q 672 867 710 958 q 592 583 633 777 z "},"":{"ha":833,"x_min":216,"x_max":644,"o":"m 508 507 l 517 546 q 423 504 461 515 q 343 493 385 493 q 248 520 279 493 q 216 588 216 548 q 276 694 216 646 q 448 743 337 743 q 559 731 496 743 l 570 779 q 572 787 572 783 q 555 819 572 807 q 482 837 530 837 q 353 813 440 837 q 336 810 342 810 q 320 816 327 810 q 314 831 314 822 q 322 851 314 842 q 369 869 330 859 q 494 889 452 889 q 593 861 559 889 q 628 797 628 833 q 625 774 628 785 l 576 559 l 614 559 q 637 553 630 559 q 644 536 644 547 q 634 516 644 525 q 606 507 625 507 l 508 507 m 548 680 q 445 690 492 690 q 307 654 359 690 q 271 596 271 628 q 290 560 271 574 q 349 545 308 545 q 533 616 437 545 l 548 680 z "},"":{"ha":833,"x_min":235,"x_max":676,"o":"m 412 493 q 284 539 332 493 q 235 653 235 585 q 314 815 235 741 q 499 889 393 889 q 628 843 579 889 q 676 730 676 798 q 597 568 676 642 q 412 493 518 493 m 419 545 q 560 602 500 545 q 621 724 621 658 q 585 804 621 771 q 492 837 550 837 q 351 781 412 837 q 291 660 291 725 q 326 578 291 612 q 419 545 361 545 z "},"":{"ha":833,"x_min":41,"x_max":792,"o":"m 99 57 l 290 57 l 290 121 q 105 231 170 149 q 41 435 41 313 q 156 705 41 604 q 418 807 271 807 q 606 759 518 807 q 743 622 694 711 q 792 434 792 534 q 729 237 792 317 q 541 121 667 156 l 541 57 l 732 57 l 732 91 q 739 132 732 123 q 761 140 747 140 q 777 136 770 140 q 786 124 783 131 q 787 91 788 118 l 787 0 l 486 0 l 486 166 q 672 259 608 186 q 736 443 736 332 q 637 672 736 590 q 421 755 538 755 q 217 684 309 755 q 98 439 98 593 q 163 251 98 321 q 345 166 228 180 l 345 0 l 45 0 l 45 91 q 47 124 45 118 q 57 136 50 132 q 72 141 64 141 q 85 137 80 141 q 96 124 94 132 q 99 91 99 117 l 99 57 z "},"":{"ha":833,"x_min":50,"x_max":882,"o":"m 868 279 l 506 279 q 502 220 502 244 q 541 73 502 126 q 609 35 569 35 q 783 113 671 35 q 807 123 797 123 q 824 117 818 123 q 830 101 830 111 q 821 79 830 89 q 706 8 792 49 q 595 -22 642 -22 q 520 5 556 -22 q 465 85 485 32 l 455 38 q 440 9 450 18 q 418 0 431 0 q 402 6 408 0 q 395 21 395 12 q 397 38 395 26 l 404 68 q 302 -3 344 16 q 218 -22 260 -22 q 96 26 143 -22 q 50 160 50 74 q 75 252 50 216 q 169 319 101 288 q 345 362 267 362 q 463 345 406 362 l 481 429 q 484 454 484 441 q 456 522 484 493 q 393 550 429 550 q 333 540 372 550 q 257 513 294 530 q 230 504 238 504 q 215 511 221 504 q 208 526 208 517 q 219 549 208 537 q 297 584 229 560 q 410 608 365 608 q 493 575 456 608 q 540 487 530 542 q 642 582 596 557 q 728 608 688 608 q 834 550 787 608 q 882 387 882 492 q 868 279 882 344 m 823 336 q 825 371 825 357 q 784 513 825 460 q 716 550 756 550 q 624 506 673 550 q 518 336 555 443 l 823 336 m 450 285 q 334 304 394 304 q 242 290 286 304 q 130 235 153 259 q 107 168 107 212 q 141 69 107 103 q 229 35 174 35 q 297 52 263 35 q 422 155 347 79 l 450 285 z "},"":{"ha":833,"x_min":69,"x_max":892,"o":"m 227 45 l 123 -43 q 93 -58 104 -58 q 76 -52 82 -58 q 69 -35 69 -45 q 90 -3 69 -20 l 192 83 q 146 231 146 147 q 181 372 146 303 q 268 490 216 441 q 380 568 320 539 q 547 608 463 608 q 735 541 662 608 l 838 627 q 869 642 857 642 q 885 636 879 642 q 892 620 892 630 q 871 587 892 605 l 770 502 q 815 356 815 438 q 780 212 815 281 q 691 93 745 142 q 566 10 637 43 q 411 -22 495 -22 q 227 45 304 -22 m 686 499 q 538 550 625 550 q 410 523 469 550 q 307 455 351 496 q 234 358 262 414 q 205 242 205 302 q 241 124 205 178 l 686 499 m 275 86 q 424 35 337 35 q 552 61 493 35 q 654 129 610 88 q 727 226 699 170 q 756 344 756 283 q 721 461 756 410 l 275 86 z "},"":{"ha":833,"x_min":145,"x_max":632,"o":"m 545 460 l 488 460 q 447 476 463 460 q 431 516 431 492 q 457 575 431 549 q 518 602 484 602 l 575 602 q 616 586 600 602 q 632 545 632 570 q 606 486 632 512 q 545 460 579 460 m 431 199 l 444 257 q 458 287 448 278 q 481 296 468 296 q 497 289 490 296 q 503 275 503 283 q 501 257 503 268 l 481 161 q 243 41 301 100 q 204 -60 204 1 q 247 -167 204 -125 q 366 -209 290 -209 q 453 -199 412 -209 q 559 -161 495 -189 l 568 -115 q 583 -85 573 -94 q 606 -76 593 -76 q 622 -82 615 -76 q 628 -97 628 -89 q 626 -115 628 -103 l 608 -197 q 458 -253 492 -245 q 350 -266 404 -266 q 198 -215 251 -266 q 145 -77 145 -163 q 197 67 145 7 q 431 199 248 128 z "},"":{"ha":833,"x_min":315,"x_max":613,"o":"m 526 454 l 500 454 q 459 470 475 454 q 443 511 443 486 q 469 570 443 544 q 530 595 496 595 l 556 595 q 597 580 581 595 q 613 540 613 564 q 587 480 613 506 q 526 454 561 454 m 323 -186 l 441 252 q 457 282 447 273 q 478 291 467 291 q 494 284 488 291 q 500 268 500 278 q 498 252 500 263 l 431 -186 q 406 -246 425 -229 q 360 -264 387 -264 q 328 -252 340 -264 q 315 -224 315 -240 q 323 -186 315 -213 z "},"":{"ha":833,"x_min":100,"x_max":832,"o":"m 132 368 q 112 371 117 368 q 103 378 106 373 q 100 391 100 384 q 111 415 100 405 q 144 425 122 425 l 832 425 l 760 83 q 746 54 755 62 q 723 45 736 45 q 707 52 713 45 q 700 66 700 58 q 703 83 700 72 l 763 368 l 132 368 z "},"":{"ha":833,"x_min":93,"x_max":798,"o":"m 748 1267 l 798 1267 l 587 -53 l 250 640 l 116 578 l 93 621 l 297 724 l 572 165 l 748 1267 z "},"":{"ha":833,"x_min":102,"x_max":897,"o":"m 559 529 l 694 529 q 721 523 714 529 q 728 506 728 517 q 716 482 728 492 q 682 471 705 471 l 547 471 l 464 82 q 371 -69 445 -7 q 214 -131 298 -131 q 115 -109 156 -131 q 102 -89 102 -102 q 112 -64 102 -75 q 135 -54 122 -54 q 155 -59 142 -54 q 227 -74 195 -74 q 334 -35 290 -74 q 409 91 393 19 l 490 471 l 354 471 q 328 477 335 471 q 321 494 321 484 q 333 519 321 509 q 366 529 344 529 l 502 529 l 528 651 q 624 809 548 746 q 786 873 700 873 q 859 862 823 873 q 893 846 886 854 q 897 834 897 842 q 887 809 897 819 q 863 799 876 799 q 838 806 859 799 q 779 816 810 816 q 663 776 707 816 q 585 651 600 722 l 559 529 z "},"":{"ha":833,"x_min":172,"x_max":831,"o":"m 810 551 q 825 545 819 551 q 831 530 831 538 q 819 504 831 518 q 712 416 771 450 q 635 391 670 391 q 578 408 606 391 q 511 471 550 425 q 454 528 472 517 q 421 539 437 539 q 377 526 400 539 q 303 467 353 513 q 273 441 279 446 q 259 437 267 437 q 243 444 249 437 q 237 460 237 450 q 269 505 237 473 q 336 562 300 536 q 431 597 386 597 q 483 584 458 597 q 543 532 507 572 q 614 458 600 467 q 643 449 628 449 q 760 518 690 449 q 793 547 785 543 q 810 551 800 551 m 744 355 q 759 349 753 355 q 766 334 766 342 q 753 307 766 321 q 647 220 706 254 q 570 195 604 195 q 513 212 541 195 q 446 275 485 228 q 389 332 407 321 q 356 343 371 343 q 311 330 334 343 q 237 271 288 317 q 208 245 214 249 q 193 241 201 241 q 178 247 184 241 q 172 263 172 253 q 203 308 172 277 q 271 365 235 339 q 366 400 321 400 q 417 388 393 400 q 477 335 441 376 q 548 261 534 271 q 578 252 562 252 q 694 321 625 252 q 728 351 720 347 q 744 355 735 355 z "},"":{"ha":833,"x_min":56,"x_max":771,"o":"m 56 0 l 523 782 l 628 782 l 771 0 l 56 0 m 136 48 l 709 48 l 587 744 l 548 744 l 136 48 z "},"":{"ha":833,"x_min":130,"x_max":867,"o":"m 130 294 l 492 572 q 526 589 513 589 q 542 582 536 589 q 549 566 549 576 q 527 532 549 551 l 264 294 l 426 58 q 435 35 435 43 q 425 11 435 22 q 400 1 414 1 q 374 16 389 1 l 130 294 m 448 294 l 810 572 q 844 589 831 589 q 861 582 854 589 q 867 566 867 576 q 845 532 867 551 l 583 294 l 744 58 q 754 35 754 43 q 743 11 754 22 q 719 1 732 1 q 692 16 707 1 l 448 294 z "},"":{"ha":833,"x_min":125,"x_max":862,"o":"m 544 294 l 181 16 q 148 1 160 1 q 131 7 137 1 q 125 23 125 13 q 129 38 125 31 q 146 58 132 45 l 409 294 l 248 532 q 237 554 237 546 q 248 578 237 568 q 273 589 259 589 q 299 572 285 589 l 544 294 m 862 294 l 499 16 q 466 1 478 1 q 449 7 455 1 q 443 23 443 13 q 447 38 443 31 q 465 58 450 45 l 728 294 l 566 532 q 556 554 556 546 q 567 578 556 568 q 591 589 577 589 q 617 572 603 589 l 862 294 z "},"":{"ha":833,"x_min":77,"x_max":777,"o":"m 133 -20 q 93 -5 109 -20 q 77 35 77 11 q 103 93 77 67 q 163 119 130 119 q 204 103 188 119 q 220 64 220 87 q 193 5 220 31 q 133 -20 167 -20 m 410 -20 q 371 -5 387 -20 q 355 35 355 11 q 381 93 355 67 q 441 119 408 119 q 481 103 466 119 q 497 64 497 87 q 471 5 497 31 q 410 -20 445 -20 m 690 -20 q 650 -5 666 -20 q 635 35 635 11 q 661 93 635 67 q 721 119 687 119 q 761 103 745 119 q 777 64 777 87 q 750 5 777 31 q 690 -20 724 -20 z "},"":{"ha":833,"x_min":17,"x_max":831,"o":"m 661 265 l 286 265 l 165 57 l 274 57 q 300 51 294 57 q 307 35 307 45 q 296 10 307 20 q 262 0 284 0 l 50 0 q 24 6 31 0 q 17 23 17 12 q 28 47 17 37 q 62 57 39 57 l 105 57 l 502 736 l 334 736 q 308 742 315 736 q 301 760 301 748 q 312 783 301 773 q 346 793 323 793 l 632 793 l 754 57 l 798 57 q 824 51 817 57 q 831 35 831 45 q 820 10 831 20 q 786 0 808 0 l 573 0 q 547 6 554 0 q 541 23 541 12 q 552 47 541 37 q 585 57 563 57 l 694 57 l 661 265 m 651 322 l 582 736 l 561 736 l 319 322 l 651 322 m 533 1069 l 664 930 q 676 909 676 913 q 665 884 676 895 q 640 873 654 873 q 617 887 629 873 l 486 1025 q 475 1047 475 1038 q 486 1072 475 1061 q 511 1082 496 1082 q 521 1080 516 1082 q 533 1069 526 1078 z "},"":{"ha":833,"x_min":17,"x_max":831,"o":"m 661 265 l 286 265 l 165 57 l 274 57 q 300 51 294 57 q 307 35 307 45 q 296 10 307 20 q 262 0 284 0 l 50 0 q 24 6 31 0 q 17 23 17 12 q 28 47 17 37 q 62 57 39 57 l 105 57 l 502 736 l 334 736 q 308 742 315 736 q 301 760 301 748 q 312 783 301 773 q 346 793 323 793 l 632 793 l 754 57 l 798 57 q 824 51 817 57 q 831 35 831 45 q 820 10 831 20 q 786 0 808 0 l 573 0 q 547 6 554 0 q 541 23 541 12 q 552 47 541 37 q 585 57 563 57 l 694 57 l 661 265 m 651 322 l 582 736 l 561 736 l 319 322 l 651 322 m 749 973 q 766 967 759 973 q 772 952 772 960 q 764 930 772 941 q 690 878 743 907 q 627 861 657 861 q 521 914 583 861 q 466 943 488 943 q 389 905 439 943 q 354 888 367 888 q 338 895 344 888 q 332 910 332 901 q 342 932 332 921 q 414 983 360 954 q 477 1000 448 1000 q 517 992 498 1000 q 577 951 536 983 q 640 918 617 918 q 726 964 665 918 q 749 973 739 973 z "},"":{"ha":833,"x_min":143,"x_max":860,"o":"m 413 -22 q 220 61 297 -22 q 143 288 143 145 q 188 501 143 399 q 300 673 233 603 q 441 777 368 743 q 590 812 515 812 q 793 716 727 812 q 860 506 860 620 q 792 243 860 370 q 620 47 725 116 q 413 -22 515 -22 m 423 35 q 598 95 508 35 q 745 267 689 156 q 801 491 801 378 q 736 683 801 612 q 581 755 672 755 q 455 725 517 755 q 336 634 393 694 q 240 485 279 574 q 201 304 201 397 q 266 106 201 178 q 423 35 331 35 m 832 973 q 848 967 842 973 q 855 952 855 960 q 846 930 855 941 q 772 878 825 907 q 709 861 740 861 q 604 914 665 861 q 549 943 570 943 q 472 905 522 943 q 437 888 450 888 q 420 895 427 888 q 414 910 414 901 q 425 932 414 921 q 496 983 443 954 q 559 1000 530 1000 q 600 992 581 1000 q 660 951 619 983 q 722 918 700 918 q 809 964 748 918 q 832 973 822 973 z "},"":{"ha":833,"x_min":84,"x_max":962,"o":"m 555 384 l 486 57 l 777 57 l 805 188 q 819 217 809 208 q 842 226 829 226 q 858 220 852 226 q 865 205 865 214 q 862 188 865 199 l 822 0 l 368 0 q 159 76 234 0 q 84 285 84 153 q 116 468 84 375 q 204 634 147 562 q 290 712 235 673 q 397 772 345 751 q 526 793 449 793 l 962 793 l 916 576 q 902 547 912 555 q 880 538 892 538 q 863 545 870 538 q 857 559 857 551 q 859 576 857 565 l 893 736 l 630 736 l 567 441 l 677 441 l 686 479 q 700 509 690 500 q 723 518 710 518 q 739 512 732 518 q 746 497 746 505 q 743 479 746 491 l 715 345 q 700 315 710 324 q 677 307 690 307 q 662 313 668 307 q 655 328 655 319 q 657 345 655 334 l 666 384 l 555 384 m 572 736 l 528 736 q 409 720 455 736 q 317 668 363 703 q 243 599 271 633 q 171 459 199 541 q 142 296 142 378 q 204 120 142 182 q 383 57 266 57 l 429 57 l 572 736 z "},"":{"ha":833,"x_min":66,"x_max":882,"o":"m 869 280 l 505 280 q 500 225 500 248 q 534 79 500 124 q 610 35 568 35 q 751 92 663 35 q 808 122 797 122 q 824 116 818 122 q 830 99 830 109 q 813 71 830 85 q 732 20 783 47 q 595 -22 652 -22 q 504 19 546 -22 q 448 145 462 61 q 335 17 395 56 q 227 -22 275 -22 q 114 36 163 -22 q 66 206 66 94 q 114 409 66 309 q 241 565 161 509 q 359 608 301 608 q 454 567 410 608 q 513 447 498 526 q 625 572 569 536 q 728 608 682 608 q 835 552 788 608 q 882 387 882 495 q 869 280 882 344 m 237 35 q 322 71 275 35 q 423 205 386 120 q 460 378 460 291 q 424 506 460 461 q 347 551 388 551 q 262 516 309 551 q 161 383 199 468 q 123 212 123 298 q 159 80 123 125 q 237 35 195 35 m 823 338 q 824 373 824 361 q 785 513 824 462 q 716 551 755 551 q 625 508 673 551 q 518 338 559 450 l 823 338 z "},"":{"ha":833,"x_min":182,"x_max":821,"o":"m 776 368 l 215 368 q 189 374 196 368 q 182 391 182 380 q 194 415 182 405 q 227 425 205 425 l 788 425 q 813 420 807 425 q 821 403 821 414 q 809 378 821 389 q 776 368 798 368 z "},"":{"ha":833,"x_min":75,"x_max":930,"o":"m 885 369 l 107 369 q 81 375 88 369 q 75 392 75 381 q 86 416 75 406 q 119 427 97 427 l 897 427 q 922 421 916 427 q 930 404 930 414 q 919 379 930 389 q 885 369 907 369 z "},"":{"ha":833,"x_min":302,"x_max":799,"o":"m 302 851 l 450 851 l 504 559 q 506 542 506 549 q 493 513 506 526 q 463 500 480 500 q 446 506 453 500 q 433 528 439 511 l 302 851 m 595 851 l 743 851 l 798 559 q 799 542 799 549 q 786 513 799 526 q 756 500 773 500 q 740 506 747 500 q 726 528 732 511 l 595 851 z "},"":{"ha":833,"x_min":262,"x_max":892,"o":"m 452 851 l 600 851 l 332 528 q 290 500 310 500 q 270 508 277 500 q 262 528 262 515 q 273 559 262 539 l 452 851 m 745 851 l 892 851 l 625 528 q 583 500 603 500 q 563 508 570 500 q 555 528 555 515 q 567 559 555 539 l 745 851 z "},"":{"ha":833,"x_min":526,"x_max":736,"o":"m 526 851 l 711 851 l 735 498 q 721 459 736 476 q 684 443 705 443 q 662 450 672 443 q 648 477 654 456 l 526 851 z "},"":{"ha":833,"x_min":300,"x_max":666,"o":"m 480 851 l 666 851 l 385 477 q 334 443 359 443 q 310 452 319 443 q 300 474 300 461 q 307 498 300 486 l 480 851 z "},"":{"ha":833,"x_min":181,"x_max":821,"o":"m 546 611 q 514 623 526 611 q 501 655 501 635 q 522 701 501 680 q 570 721 543 721 q 602 709 589 721 q 614 678 614 696 q 594 631 614 652 q 546 611 573 611 m 734 368 l 255 368 q 197 369 203 368 q 186 376 191 370 q 181 391 181 382 q 189 411 181 401 q 205 423 196 420 q 267 425 213 425 l 747 425 q 804 424 800 425 q 816 417 811 422 q 821 402 821 411 q 813 383 821 393 q 796 370 806 373 q 734 368 789 368 m 433 72 q 401 84 414 72 q 389 116 389 96 q 409 162 389 141 q 457 182 430 182 q 489 170 477 182 q 501 139 501 157 q 480 92 501 113 q 433 72 460 72 z "},"":{"ha":833,"x_min":105,"x_max":729,"o":"m 446 964 l 729 481 l 446 0 l 370 0 l 105 481 l 370 964 l 446 964 m 409 899 l 178 481 l 409 64 l 652 481 l 409 899 z "},"":{"ha":833,"x_min":20,"x_max":884,"o":"m 387 0 l 236 530 l 219 530 q 193 536 200 530 q 186 553 186 542 q 192 570 186 562 q 206 583 197 579 q 231 587 214 587 l 387 587 q 407 585 401 587 q 416 577 412 583 q 419 564 419 572 q 408 540 419 551 q 374 530 397 530 l 298 530 l 431 62 l 760 530 l 684 530 q 657 536 665 530 q 650 553 650 542 q 662 577 650 566 q 696 587 673 587 l 851 587 q 876 582 870 587 q 884 564 884 575 q 877 546 884 555 q 861 532 871 536 q 821 530 854 530 l 304 -205 l 393 -205 q 414 -207 408 -205 q 422 -215 419 -209 q 426 -227 426 -220 q 415 -252 426 -241 q 381 -262 404 -262 l 53 -262 q 27 -256 34 -262 q 20 -239 20 -250 q 32 -215 20 -225 q 65 -205 43 -205 l 244 -205 l 387 0 m 418 723 q 387 735 399 723 q 374 767 374 747 q 395 813 374 792 q 443 833 416 833 q 475 821 463 833 q 487 791 487 809 q 466 743 487 764 q 418 723 446 723 m 709 723 q 678 735 690 723 q 665 767 665 747 q 686 813 665 792 q 734 833 707 833 q 765 821 753 833 q 778 791 778 809 q 757 743 778 764 q 709 723 736 723 z "},"":{"ha":833,"x_min":208,"x_max":928,"o":"m 522 358 l 458 57 l 606 57 q 632 51 625 57 q 639 35 639 45 q 628 10 639 20 q 594 0 616 0 l 241 0 q 215 6 222 0 q 208 23 208 12 q 219 47 208 37 q 253 57 231 57 l 401 57 l 465 358 l 295 736 l 261 736 q 235 742 242 736 q 229 760 229 748 q 240 783 229 773 q 273 793 251 793 l 430 793 q 456 788 449 793 q 463 771 463 782 q 451 747 463 757 q 418 736 440 736 l 361 736 l 506 416 l 783 736 l 727 736 q 701 742 707 736 q 694 760 694 748 q 705 783 694 773 q 739 793 716 793 l 895 793 q 921 788 914 793 q 928 771 928 782 q 917 747 928 757 q 883 736 905 736 l 849 736 l 522 358 m 469 904 q 438 916 450 904 q 425 948 425 928 q 446 994 425 973 q 494 1015 467 1015 q 526 1002 513 1015 q 538 972 538 990 q 517 924 538 945 q 469 904 496 904 m 760 904 q 729 916 741 904 q 716 948 716 928 q 737 994 716 973 q 785 1015 758 1015 q 816 1002 804 1015 q 829 972 829 990 q 808 924 829 945 q 760 904 787 904 z "},"":{"ha":833,"x_min":117,"x_max":899,"o":"m 871 606 l 165 205 q 140 196 148 196 q 123 202 130 196 q 117 218 117 208 q 144 254 117 238 l 850 654 q 876 663 868 663 q 893 657 886 663 q 899 641 899 650 q 871 606 899 621 z "},"":{"ha":833,"x_min":24,"x_max":881,"o":"m 629 334 q 604 302 629 310 q 543 300 598 300 l 204 300 q 204 287 204 293 q 274 107 204 180 q 450 35 343 35 q 721 163 585 35 q 749 177 736 177 q 772 157 772 177 q 757 127 772 142 q 439 -22 616 -22 q 311 5 372 -22 q 239 54 265 26 q 144 269 144 153 q 146 300 144 285 l 97 300 q 40 301 46 300 q 24 323 24 304 q 48 355 24 347 q 109 357 54 357 l 155 357 l 168 419 l 117 419 q 60 420 66 419 q 44 442 44 424 q 68 475 44 467 q 130 477 75 477 l 181 477 q 260 632 201 551 q 404 761 319 713 q 590 812 493 812 q 812 715 731 812 l 821 755 q 858 793 829 793 q 881 772 881 793 q 878 755 881 768 l 844 597 q 808 559 836 559 q 785 580 785 559 q 787 595 785 585 q 788 610 788 605 q 738 702 788 661 q 580 755 672 755 q 450 726 515 755 q 369 673 401 705 q 271 553 309 615 q 239 477 251 519 l 583 477 q 640 475 634 477 q 656 454 656 471 q 631 421 656 429 q 570 419 625 419 l 226 419 l 212 357 l 555 357 q 613 356 607 357 q 629 334 629 352 z "},"":{"ha":833,"x_min":266,"x_max":685,"o":"m 266 294 l 629 572 q 662 589 650 589 q 679 582 672 589 q 685 566 685 576 q 663 532 685 551 l 400 294 l 562 58 q 572 35 572 43 q 561 11 572 22 q 536 1 551 1 q 511 16 525 1 l 266 294 z "},"":{"ha":833,"x_min":279,"x_max":699,"o":"m 699 294 l 336 16 q 302 1 315 1 q 286 7 292 1 q 279 23 279 13 q 283 38 279 31 q 301 58 287 45 l 564 294 l 402 532 q 392 554 392 546 q 403 578 392 568 q 427 589 414 589 q 454 572 439 589 l 699 294 z "},"":{"ha":833,"x_min":36,"x_max":883,"o":"m 883 880 l 851 732 l 768 732 l 799 880 l 883 880 m 356 530 l 255 57 l 356 57 q 382 51 376 57 q 389 35 389 45 q 378 10 389 20 q 344 0 366 0 l 68 0 q 43 6 50 0 q 36 23 36 12 q 47 47 36 37 q 81 57 58 57 l 198 57 l 298 530 l 189 530 q 163 536 170 530 q 157 553 157 542 q 168 577 157 566 q 201 587 179 587 l 311 587 l 329 671 q 402 801 346 751 q 519 851 458 851 q 596 838 551 851 q 629 823 623 830 q 635 807 635 816 q 626 784 635 794 q 603 773 616 773 q 589 777 599 773 q 509 793 537 793 q 429 755 462 793 q 386 671 396 718 l 368 587 l 469 587 q 494 582 488 587 q 502 564 502 575 q 491 540 502 551 q 456 530 479 530 l 356 530 m 821 587 l 709 57 l 814 57 q 840 51 833 57 q 846 35 846 45 q 835 10 846 20 q 802 0 824 0 l 530 0 q 505 6 511 0 q 498 23 498 12 q 509 47 498 37 q 543 57 520 57 l 652 57 l 752 530 l 671 530 q 646 536 652 530 q 639 553 639 542 q 650 577 639 566 q 684 587 661 587 l 821 587 z "},"":{"ha":833,"x_min":36,"x_max":877,"o":"m 356 530 l 255 57 l 356 57 q 382 51 376 57 q 389 35 389 45 q 378 10 389 20 q 344 0 366 0 l 68 0 q 43 6 50 0 q 36 23 36 12 q 47 47 36 37 q 81 57 58 57 l 198 57 l 298 530 l 189 530 q 163 536 170 530 q 157 553 157 542 q 168 577 157 566 q 201 587 179 587 l 311 587 l 329 671 q 402 801 346 751 q 519 851 458 851 q 596 838 551 851 q 629 823 623 830 q 635 807 635 816 q 626 784 635 794 q 603 773 616 773 q 589 777 599 773 q 509 793 537 793 q 429 755 462 793 q 386 671 396 718 l 368 587 l 469 587 q 494 582 488 587 q 502 564 502 575 q 491 540 502 551 q 456 530 479 530 l 356 530 m 877 851 l 708 57 l 817 57 q 843 51 836 57 q 850 35 850 45 q 839 10 850 20 q 805 0 827 0 l 530 0 q 504 6 511 0 q 497 23 497 12 q 508 47 497 37 q 542 57 519 57 l 651 57 l 807 793 l 727 793 q 701 800 708 793 q 694 817 694 806 q 706 841 694 830 q 739 851 717 851 l 877 851 z "},"":{"ha":833,"x_min":214,"x_max":783,"o":"m 558 532 l 495 237 l 675 237 q 701 231 694 237 q 708 214 708 224 q 696 190 708 200 q 663 179 685 179 l 484 179 l 435 -50 q 420 -79 430 -71 q 397 -88 410 -88 q 381 -82 388 -88 q 375 -67 375 -75 q 377 -50 375 -61 l 426 179 l 246 179 q 220 185 227 179 q 214 202 214 191 q 225 226 214 216 q 258 237 236 237 l 438 237 l 501 532 l 321 532 q 296 538 302 532 q 289 555 289 544 q 300 579 289 568 q 334 589 311 589 l 513 589 l 561 812 q 575 842 565 833 q 597 851 585 851 q 614 845 608 851 q 621 830 621 838 q 618 812 621 824 l 570 589 l 750 589 q 776 583 769 589 q 783 566 783 577 q 771 542 783 553 q 738 532 760 532 l 558 532 z "},"":{"ha":833,"x_min":402,"x_max":614,"o":"m 515 524 l 541 524 q 594 503 573 524 q 614 451 614 483 q 580 373 614 407 q 501 340 546 340 l 477 340 q 423 360 444 340 q 402 413 402 380 q 437 490 402 456 q 515 524 471 524 z "},"":{"ha":833,"x_min":163,"x_max":529,"o":"m 343 188 l 529 188 l 248 -186 q 197 -220 222 -220 q 173 -211 182 -220 q 163 -189 163 -202 q 170 -164 163 -177 l 343 188 z "},"":{"ha":833,"x_min":121,"x_max":752,"o":"m 311 174 l 459 174 l 192 -149 q 149 -176 170 -176 q 129 -169 137 -176 q 121 -149 121 -161 q 134 -118 121 -138 l 311 174 m 605 174 l 752 174 l 485 -149 q 443 -176 463 -176 q 422 -169 430 -176 q 414 -149 414 -161 q 427 -118 414 -138 l 605 174 z "},"":{"ha":833,"x_min":192,"x_max":831,"o":"m 288 570 q 223 606 254 570 q 192 696 192 642 q 247 810 192 753 q 351 867 302 867 q 416 832 386 867 q 447 743 447 797 q 392 627 447 684 q 288 570 337 570 m 298 612 q 365 654 325 612 q 405 735 405 696 q 380 803 405 772 q 342 826 361 826 q 275 784 315 826 q 235 703 235 741 q 259 635 235 666 q 298 612 278 612 m 805 549 l 241 378 q 226 374 231 374 q 216 379 220 374 q 211 391 211 384 q 217 406 211 399 q 237 416 222 412 l 801 588 q 817 591 811 591 q 826 587 822 591 q 831 575 831 582 q 825 560 831 567 q 805 549 820 553 m 295 -14 q 230 21 260 -14 q 199 111 199 56 q 254 225 199 168 q 358 282 309 282 q 423 247 393 282 q 454 159 454 212 q 399 43 454 100 q 295 -14 344 -14 m 304 26 q 372 69 332 26 q 412 150 412 111 q 387 218 412 187 q 349 241 368 241 q 281 199 321 241 q 241 119 241 156 q 266 50 241 81 q 304 26 285 26 m 659 -14 q 594 21 625 -14 q 564 111 564 56 q 618 225 564 168 q 722 282 673 282 q 788 247 757 282 q 819 159 819 212 q 763 43 819 100 q 659 -14 708 -14 m 669 26 q 736 69 696 26 q 777 150 777 111 q 751 218 777 187 q 713 241 732 241 q 646 199 686 241 q 606 119 606 156 q 631 50 606 81 q 669 26 650 26 z "},"":{"ha":833,"x_min":17,"x_max":831,"o":"m 661 265 l 286 265 l 165 57 l 274 57 q 300 51 294 57 q 307 35 307 45 q 296 10 307 20 q 262 0 284 0 l 50 0 q 24 6 31 0 q 17 23 17 12 q 28 47 17 37 q 62 57 39 57 l 105 57 l 502 736 l 334 736 q 308 742 315 736 q 301 760 301 748 q 312 783 301 773 q 346 793 323 793 l 632 793 l 754 57 l 798 57 q 824 51 817 57 q 831 35 831 45 q 820 10 831 20 q 786 0 808 0 l 573 0 q 547 6 554 0 q 541 23 541 12 q 552 47 541 37 q 585 57 563 57 l 694 57 l 661 265 m 651 322 l 582 736 l 561 736 l 319 322 l 651 322 m 592 1072 l 746 932 q 757 919 755 924 q 760 910 760 915 q 749 885 760 896 q 724 875 738 875 q 702 886 715 875 l 577 1001 l 404 886 q 376 875 386 875 q 360 881 366 875 q 353 897 353 888 q 379 932 353 916 l 592 1072 z "},"":{"ha":833,"x_min":65,"x_max":865,"o":"m 313 383 l 243 57 l 682 57 l 717 225 q 731 254 722 245 q 754 263 741 263 q 770 257 764 263 q 777 243 777 251 q 774 225 777 237 l 726 0 l 98 0 q 72 6 79 0 q 65 23 65 12 q 76 47 65 37 q 110 57 87 57 l 186 57 l 331 736 l 254 736 q 229 742 235 736 q 222 760 222 748 q 233 783 222 773 q 267 793 244 793 l 865 793 l 823 597 q 809 568 819 576 q 787 559 800 559 q 770 566 777 559 q 764 580 764 572 q 766 597 764 586 l 795 736 l 388 736 l 325 440 l 529 440 l 543 505 q 557 534 547 525 q 580 543 567 543 q 596 536 589 543 q 603 522 603 530 q 600 505 603 516 l 561 319 q 546 290 556 298 q 524 281 536 281 q 508 287 514 281 q 501 302 501 293 q 503 319 501 308 l 517 383 l 313 383 m 644 1069 l 798 930 q 809 917 807 922 q 812 908 812 913 q 801 883 812 894 q 776 873 790 873 q 754 884 767 873 l 629 999 l 456 884 q 429 873 438 873 q 412 879 418 873 q 406 895 406 886 q 431 930 406 913 l 644 1069 z "},"":{"ha":833,"x_min":17,"x_max":831,"o":"m 661 265 l 286 265 l 165 57 l 274 57 q 300 51 294 57 q 307 35 307 45 q 296 10 307 20 q 262 0 284 0 l 50 0 q 24 6 31 0 q 17 23 17 12 q 28 47 17 37 q 62 57 39 57 l 105 57 l 502 736 l 334 736 q 308 742 315 736 q 301 760 301 748 q 312 783 301 773 q 346 793 323 793 l 632 793 l 754 57 l 798 57 q 824 51 817 57 q 831 35 831 45 q 820 10 831 20 q 786 0 808 0 l 573 0 q 547 6 554 0 q 541 23 541 12 q 552 47 541 37 q 585 57 563 57 l 694 57 l 661 265 m 651 322 l 582 736 l 561 736 l 319 322 l 651 322 m 759 1025 l 570 887 q 541 873 551 873 q 524 880 530 873 q 517 896 517 886 q 522 912 517 905 q 541 930 526 919 l 731 1069 q 760 1082 749 1082 q 776 1076 770 1082 q 783 1060 783 1069 q 779 1044 783 1051 q 759 1025 774 1037 z "},"":{"ha":833,"x_min":65,"x_max":865,"o":"m 313 383 l 243 57 l 682 57 l 717 225 q 731 254 722 245 q 754 263 741 263 q 770 257 764 263 q 777 243 777 251 q 774 225 777 237 l 726 0 l 98 0 q 72 6 79 0 q 65 23 65 12 q 76 47 65 37 q 110 57 87 57 l 186 57 l 331 736 l 254 736 q 229 742 235 736 q 222 760 222 748 q 233 783 222 773 q 267 793 244 793 l 865 793 l 823 597 q 809 568 819 576 q 787 559 800 559 q 770 566 777 559 q 764 580 764 572 q 766 597 764 586 l 795 736 l 388 736 l 325 440 l 529 440 l 543 505 q 557 534 547 525 q 580 543 567 543 q 596 536 589 543 q 603 522 603 530 q 600 505 603 516 l 561 319 q 546 290 556 298 q 524 281 536 281 q 508 287 514 281 q 501 302 501 293 q 503 319 501 308 l 517 383 l 313 383 m 463 904 q 432 916 444 904 q 419 948 419 928 q 440 994 419 973 q 488 1015 460 1015 q 519 1002 507 1015 q 532 972 532 990 q 511 924 532 945 q 463 904 490 904 m 754 904 q 723 916 735 904 q 710 948 710 928 q 731 994 710 973 q 779 1015 751 1015 q 810 1002 798 1015 q 823 972 823 990 q 802 924 823 945 q 754 904 781 904 z "},"":{"ha":833,"x_min":65,"x_max":865,"o":"m 313 383 l 243 57 l 682 57 l 717 225 q 731 254 722 245 q 754 263 741 263 q 770 257 764 263 q 777 243 777 251 q 774 225 777 237 l 726 0 l 98 0 q 72 6 79 0 q 65 23 65 12 q 76 47 65 37 q 110 57 87 57 l 186 57 l 331 736 l 254 736 q 229 742 235 736 q 222 760 222 748 q 233 783 222 773 q 267 793 244 793 l 865 793 l 823 597 q 809 568 819 576 q 787 559 800 559 q 770 566 777 559 q 764 580 764 572 q 766 597 764 586 l 795 736 l 388 736 l 325 440 l 529 440 l 543 505 q 557 534 547 525 q 580 543 567 543 q 596 536 589 543 q 603 522 603 530 q 600 505 603 516 l 561 319 q 546 290 556 298 q 524 281 536 281 q 508 287 514 281 q 501 302 501 293 q 503 319 501 308 l 517 383 l 313 383 m 586 1069 l 717 930 q 729 909 729 913 q 718 884 729 895 q 693 873 707 873 q 670 887 682 873 l 539 1025 q 528 1047 528 1038 q 538 1072 528 1061 q 564 1082 549 1082 q 574 1080 569 1082 q 586 1069 578 1078 z "},"":{"ha":833,"x_min":161,"x_max":846,"o":"m 602 736 l 458 57 l 653 57 q 679 51 672 57 q 686 35 686 45 q 674 10 686 20 q 641 0 663 0 l 193 0 q 168 6 174 0 q 161 23 161 12 q 172 47 161 37 q 205 57 183 57 l 401 57 l 545 736 l 350 736 q 324 742 331 736 q 317 760 317 748 q 329 783 317 773 q 362 793 340 793 l 809 793 q 836 788 829 793 q 842 771 842 782 q 831 747 842 757 q 798 736 819 736 l 602 736 m 823 1025 l 633 887 q 604 873 615 873 q 588 880 594 873 q 581 896 581 886 q 585 912 581 905 q 605 930 589 919 l 795 1069 q 823 1082 812 1082 q 840 1076 833 1082 q 846 1060 846 1069 q 842 1044 846 1051 q 823 1025 838 1037 z "},"":{"ha":833,"x_min":161,"x_max":842,"o":"m 602 736 l 458 57 l 653 57 q 679 51 672 57 q 686 35 686 45 q 674 10 686 20 q 641 0 663 0 l 193 0 q 168 6 174 0 q 161 23 161 12 q 172 47 161 37 q 205 57 183 57 l 401 57 l 545 736 l 350 736 q 324 742 331 736 q 317 760 317 748 q 329 783 317 773 q 362 793 340 793 l 809 793 q 836 788 829 793 q 842 771 842 782 q 831 747 842 757 q 798 736 819 736 l 602 736 m 644 1069 l 798 929 q 809 917 806 921 q 811 907 811 912 q 800 883 811 893 q 775 872 789 872 q 753 884 766 872 l 629 998 l 455 884 q 428 872 437 872 q 411 879 418 872 q 405 895 405 885 q 431 929 405 913 l 644 1069 z "},"":{"ha":833,"x_min":161,"x_max":842,"o":"m 602 736 l 458 57 l 653 57 q 679 51 672 57 q 686 35 686 45 q 674 10 686 20 q 641 0 663 0 l 193 0 q 168 6 174 0 q 161 23 161 12 q 172 47 161 37 q 205 57 183 57 l 401 57 l 545 736 l 350 736 q 324 742 331 736 q 317 760 317 748 q 329 783 317 773 q 362 793 340 793 l 809 793 q 836 788 829 793 q 842 771 842 782 q 831 747 842 757 q 798 736 819 736 l 602 736 m 463 904 q 432 916 444 904 q 419 948 419 928 q 440 994 419 973 q 488 1015 460 1015 q 519 1002 507 1015 q 532 972 532 990 q 511 924 532 945 q 463 904 490 904 m 754 904 q 723 916 735 904 q 710 948 710 928 q 731 994 710 973 q 779 1015 751 1015 q 810 1002 798 1015 q 823 972 823 990 q 802 924 823 945 q 754 904 781 904 z "},"":{"ha":833,"x_min":161,"x_max":842,"o":"m 602 736 l 458 57 l 653 57 q 679 51 672 57 q 686 35 686 45 q 674 10 686 20 q 641 0 663 0 l 193 0 q 168 6 174 0 q 161 23 161 12 q 172 47 161 37 q 205 57 183 57 l 401 57 l 545 736 l 350 736 q 324 742 331 736 q 317 760 317 748 q 329 783 317 773 q 362 793 340 793 l 809 793 q 836 788 829 793 q 842 771 842 782 q 831 747 842 757 q 798 736 819 736 l 602 736 m 584 1069 l 715 930 q 727 909 727 913 q 716 884 727 895 q 691 873 705 873 q 668 887 680 873 l 537 1025 q 526 1047 526 1038 q 536 1072 526 1061 q 562 1082 547 1082 q 572 1080 567 1082 q 584 1069 576 1078 z "},"":{"ha":833,"x_min":143,"x_max":860,"o":"m 413 -22 q 220 61 297 -22 q 143 288 143 145 q 188 501 143 399 q 300 673 233 603 q 441 777 368 743 q 590 812 515 812 q 793 716 727 812 q 860 506 860 620 q 792 243 860 370 q 620 47 725 116 q 413 -22 515 -22 m 423 35 q 598 95 508 35 q 745 267 689 156 q 801 491 801 378 q 736 683 801 612 q 581 755 672 755 q 455 725 517 755 q 336 634 393 694 q 240 485 279 574 q 201 304 201 397 q 266 106 201 178 q 423 35 331 35 m 750 1025 l 561 887 q 532 873 543 873 q 515 880 522 873 q 509 896 509 886 q 513 912 509 905 q 532 930 517 919 l 722 1069 q 751 1082 740 1082 q 767 1076 761 1082 q 774 1060 774 1069 q 770 1044 774 1051 q 750 1025 766 1037 z "},"":{"ha":833,"x_min":143,"x_max":860,"o":"m 413 -22 q 220 61 297 -22 q 143 288 143 145 q 188 501 143 399 q 300 673 233 603 q 441 777 368 743 q 590 812 515 812 q 793 716 727 812 q 860 506 860 620 q 792 243 860 370 q 620 47 725 116 q 413 -22 515 -22 m 423 35 q 598 95 508 35 q 745 267 689 156 q 801 491 801 378 q 736 683 801 612 q 581 755 672 755 q 455 725 517 755 q 336 634 393 694 q 240 485 279 574 q 201 304 201 397 q 266 106 201 178 q 423 35 331 35 m 644 1069 l 798 930 q 809 917 807 922 q 812 908 812 913 q 801 883 812 894 q 776 873 790 873 q 754 884 767 873 l 629 999 l 456 884 q 429 873 438 873 q 412 879 418 873 q 406 895 406 886 q 431 930 406 913 l 644 1069 z "},"":{"ha":833,"x_min":143,"x_max":860,"o":"m 413 -22 q 220 61 297 -22 q 143 288 143 145 q 188 501 143 399 q 300 673 233 603 q 441 777 368 743 q 590 812 515 812 q 793 716 727 812 q 860 506 860 620 q 792 243 860 370 q 620 47 725 116 q 413 -22 515 -22 m 423 35 q 598 95 508 35 q 745 267 689 156 q 801 491 801 378 q 736 683 801 612 q 581 755 672 755 q 455 725 517 755 q 336 634 393 694 q 240 485 279 574 q 201 304 201 397 q 266 106 201 178 q 423 35 331 35 m 573 1069 l 704 930 q 716 909 716 913 q 705 884 716 895 q 680 873 694 873 q 657 887 669 873 l 526 1025 q 515 1047 515 1038 q 526 1072 515 1061 q 551 1082 536 1082 q 561 1080 556 1082 q 573 1069 566 1078 z "},"":{"ha":833,"x_min":191,"x_max":941,"o":"m 849 736 l 748 260 q 624 58 722 139 q 410 -22 526 -22 q 252 39 314 -22 q 191 201 191 101 q 197 260 191 228 l 298 736 l 251 736 q 225 742 232 736 q 218 759 218 748 q 230 783 218 773 q 263 793 241 793 l 473 793 q 499 788 492 793 q 506 771 506 782 q 494 747 506 757 q 461 736 483 736 l 356 736 l 255 260 q 250 211 250 236 q 299 84 250 134 q 420 35 348 35 q 530 60 478 35 q 629 139 582 85 q 690 260 676 194 l 792 736 l 687 736 q 661 742 668 736 q 654 760 654 748 q 665 783 654 773 q 699 793 677 793 l 909 793 q 935 788 928 793 q 941 771 941 782 q 930 747 941 757 q 897 736 919 736 l 849 736 m 748 1025 l 559 887 q 530 873 541 873 q 513 880 519 873 q 507 896 507 886 q 511 912 507 905 q 530 930 515 919 l 720 1069 q 749 1082 738 1082 q 765 1076 759 1082 q 772 1060 772 1069 q 768 1044 772 1051 q 748 1025 764 1037 z "},"":{"ha":833,"x_min":191,"x_max":941,"o":"m 849 736 l 748 260 q 624 58 722 139 q 410 -22 526 -22 q 252 39 314 -22 q 191 201 191 101 q 197 260 191 228 l 298 736 l 251 736 q 225 742 232 736 q 218 759 218 748 q 230 783 218 773 q 263 793 241 793 l 473 793 q 499 788 492 793 q 506 771 506 782 q 494 747 506 757 q 461 736 483 736 l 356 736 l 255 260 q 250 211 250 236 q 299 84 250 134 q 420 35 348 35 q 530 60 478 35 q 629 139 582 85 q 690 260 676 194 l 792 736 l 687 736 q 661 742 668 736 q 654 760 654 748 q 665 783 654 773 q 699 793 677 793 l 909 793 q 935 788 928 793 q 941 771 941 782 q 930 747 941 757 q 897 736 919 736 l 849 736 m 644 1069 l 798 929 q 809 917 807 921 q 812 907 812 912 q 801 883 812 893 q 776 872 790 872 q 754 884 767 872 l 629 998 l 456 884 q 429 872 438 872 q 412 879 418 872 q 406 895 406 885 q 431 929 406 913 l 644 1069 z "},"":{"ha":833,"x_min":191,"x_max":941,"o":"m 849 736 l 748 260 q 624 58 722 139 q 410 -22 526 -22 q 252 39 314 -22 q 191 201 191 101 q 197 260 191 228 l 298 736 l 251 736 q 225 742 232 736 q 218 759 218 748 q 230 783 218 773 q 263 793 241 793 l 473 793 q 499 788 492 793 q 506 771 506 782 q 494 747 506 757 q 461 736 483 736 l 356 736 l 255 260 q 250 211 250 236 q 299 84 250 134 q 420 35 348 35 q 530 60 478 35 q 629 139 582 85 q 690 260 676 194 l 792 736 l 687 736 q 661 742 668 736 q 654 760 654 748 q 665 783 654 773 q 699 793 677 793 l 909 793 q 935 788 928 793 q 941 771 941 782 q 930 747 941 757 q 897 736 919 736 l 849 736 m 562 1069 l 693 930 q 705 909 705 913 q 694 884 705 895 q 669 873 684 873 q 646 887 659 873 l 515 1025 q 504 1047 504 1038 q 515 1072 504 1061 q 540 1082 526 1082 q 550 1080 545 1082 q 562 1069 555 1078 z "},"":{"ha":833,"x_min":132,"x_max":713,"o":"m 570 587 l 457 57 l 681 57 q 707 51 700 57 q 713 35 713 45 q 702 10 713 20 q 669 0 691 0 l 164 0 q 138 6 145 0 q 132 23 132 12 q 143 47 132 37 q 176 57 154 57 l 400 57 l 500 530 l 334 530 q 308 536 315 530 q 301 553 301 542 q 313 577 301 566 q 347 587 324 587 l 570 587 z "},"":{"ha":833,"x_min":361,"x_max":767,"o":"m 600 888 l 753 749 q 765 736 762 741 q 767 727 767 732 q 756 702 767 713 q 731 692 745 692 q 709 703 722 692 l 585 818 l 411 703 q 384 692 393 692 q 367 698 374 692 q 361 714 361 705 q 387 749 361 732 l 600 888 z "},"":{"ha":833,"x_min":349,"x_max":789,"o":"m 766 791 q 783 785 776 791 q 789 770 789 779 q 781 749 789 759 q 707 696 760 725 q 644 679 674 679 q 538 732 600 679 q 483 762 505 762 q 406 724 456 762 q 371 707 384 707 q 355 713 361 707 q 349 728 349 719 q 359 751 349 739 q 431 801 377 772 q 494 819 465 819 q 534 810 515 819 q 594 769 553 802 q 656 736 634 736 q 743 783 682 736 q 766 791 756 791 z "},"":{"ha":833,"x_min":369,"x_max":776,"o":"m 730 730 l 401 730 q 376 736 382 730 q 369 753 369 742 q 380 777 369 766 q 414 787 391 787 l 743 787 q 768 782 762 787 q 776 765 776 775 q 765 740 776 750 q 730 730 753 730 z "},"":{"ha":833,"x_min":385,"x_max":796,"o":"m 422 880 q 439 874 433 880 q 445 861 445 869 q 444 848 445 857 q 444 838 444 842 q 477 775 444 803 q 570 748 511 748 q 679 778 632 748 q 737 848 725 808 q 752 873 743 866 q 774 880 762 880 q 790 874 783 880 q 796 859 796 867 q 772 798 796 833 q 685 720 741 749 q 557 690 628 690 q 429 730 473 690 q 385 825 385 769 q 396 867 385 854 q 422 880 407 880 z "},"":{"ha":833,"x_min":505,"x_max":646,"o":"m 560 709 q 520 724 536 709 q 505 764 505 740 q 531 822 505 796 q 591 848 557 848 q 631 832 615 848 q 646 793 646 817 q 620 734 646 760 q 560 709 594 709 z "},"":{"ha":833,"x_min":449,"x_max":700,"o":"m 548 684 q 477 711 505 684 q 449 780 449 739 q 495 880 449 835 q 601 925 541 925 q 672 898 644 925 q 700 831 700 871 q 654 728 700 773 q 548 684 608 684 m 557 724 q 627 754 597 724 q 658 822 658 784 q 640 866 658 848 q 592 884 621 884 q 522 854 552 884 q 491 789 491 825 q 509 743 491 761 q 557 724 528 724 z "},"":{"ha":833,"x_min":262,"x_max":488,"o":"m 374 -111 l 395 -7 q 406 14 399 8 q 422 20 413 20 q 434 16 429 20 q 438 5 438 12 q 437 -7 438 1 l 422 -72 q 471 -93 454 -77 q 488 -132 488 -110 q 456 -197 488 -168 q 372 -226 425 -226 q 309 -214 342 -226 q 267 -193 276 -203 q 262 -179 262 -186 q 269 -162 262 -170 q 287 -155 277 -155 q 301 -159 294 -155 q 380 -185 342 -185 q 428 -170 410 -185 q 446 -140 446 -155 q 437 -121 446 -129 q 401 -111 422 -111 l 374 -111 z "},"":{"ha":833,"x_min":357,"x_max":798,"o":"m 572 846 l 411 707 q 380 692 393 692 q 364 698 370 692 q 357 714 357 704 q 378 747 357 729 l 538 885 q 570 901 557 901 q 586 894 580 901 q 593 878 593 888 q 572 846 593 863 m 777 846 l 617 707 q 586 692 599 692 q 569 698 576 692 q 563 714 563 704 q 584 747 563 729 l 744 885 q 775 901 762 901 q 792 894 785 901 q 798 878 798 888 q 777 846 798 863 z "},"":{"ha":833,"x_min":374,"x_max":566,"o":"m 496 -24 q 441 -56 467 -27 q 415 -115 415 -85 q 430 -146 415 -134 q 473 -159 444 -159 q 530 -140 504 -159 q 549 -130 542 -130 q 561 -135 556 -130 q 566 -146 566 -139 q 545 -174 566 -161 q 463 -199 509 -199 q 397 -178 420 -199 q 374 -124 374 -157 q 418 -26 374 -70 q 511 18 462 18 q 524 14 519 18 q 528 3 528 9 q 520 -16 528 -8 q 496 -24 514 -22 z "},"":{"ha":833,"x_min":389,"x_max":795,"o":"m 556 684 l 402 823 q 389 846 389 836 q 399 870 389 859 q 425 881 410 881 q 446 869 433 881 l 571 754 l 745 869 q 772 880 762 880 q 788 874 782 880 q 795 858 795 867 q 769 823 795 840 l 556 684 z "},"":{"ha":833,"x_min":91,"x_max":817,"o":"m 473 736 l 412 446 l 581 535 q 607 544 599 544 q 623 537 616 544 q 629 522 629 531 q 624 503 629 511 q 600 486 618 495 l 397 380 l 329 57 l 709 57 l 757 285 q 771 314 761 305 q 794 323 781 323 q 810 317 804 323 q 817 302 817 311 q 814 285 817 296 l 753 0 l 123 0 q 98 6 104 0 q 91 23 91 12 q 102 47 91 37 q 136 57 113 57 l 271 57 l 333 347 l 165 259 q 140 250 148 250 q 124 257 130 250 q 117 273 117 264 q 123 292 117 283 q 146 309 128 299 l 347 413 l 416 736 l 280 736 q 254 742 261 736 q 248 760 248 748 q 259 783 248 773 q 292 793 270 793 l 621 793 q 647 788 640 793 q 654 771 654 782 q 643 747 654 757 q 609 736 631 736 l 473 736 z "},"":{"ha":833,"x_min":133,"x_max":734,"o":"m 627 851 l 547 475 l 686 545 q 711 554 703 554 q 728 548 722 554 q 734 532 734 542 q 728 513 734 522 q 705 496 722 505 l 533 408 l 458 57 l 682 57 q 708 51 701 57 q 715 35 715 45 q 704 10 715 20 q 670 0 692 0 l 165 0 q 140 6 146 0 q 133 23 133 12 q 144 47 133 37 q 178 57 155 57 l 401 57 l 469 376 l 332 305 q 307 297 315 297 q 290 303 296 297 q 284 320 284 310 q 290 338 284 330 q 313 355 296 347 l 483 441 l 558 793 l 393 793 q 368 800 374 793 q 361 817 361 806 q 372 841 361 830 q 406 851 383 851 l 627 851 z "},"":{"ha":833,"x_min":132,"x_max":853,"o":"m 777 736 q 792 782 785 774 q 819 793 804 793 q 834 787 828 793 q 841 772 841 781 q 838 755 841 767 l 808 610 q 793 581 803 590 q 770 572 783 572 q 754 578 761 572 q 748 593 748 585 q 750 607 748 598 q 751 626 751 616 q 705 716 751 677 q 578 755 659 755 q 403 695 471 755 q 335 564 335 636 q 376 482 335 510 q 519 436 416 454 q 657 404 621 418 q 733 349 707 384 q 759 261 759 313 q 717 124 759 191 q 591 18 675 58 q 415 -22 506 -22 q 287 1 341 -22 q 198 71 233 24 l 191 38 q 177 9 187 18 q 154 0 167 0 q 138 6 144 0 q 132 21 132 12 q 134 38 132 27 l 168 195 q 181 225 172 216 q 204 234 191 234 q 221 228 214 234 q 227 214 227 222 q 225 199 227 209 q 224 180 224 190 q 277 78 224 122 q 428 35 330 35 q 568 66 502 35 q 668 148 635 98 q 701 247 701 197 q 681 311 701 284 q 621 355 661 338 q 503 382 594 366 q 330 441 382 403 q 277 552 277 479 q 366 732 277 652 q 588 812 454 812 q 695 793 648 812 q 777 736 743 774 m 614 883 l 460 1023 q 447 1045 447 1035 q 458 1069 447 1059 q 483 1080 469 1080 q 504 1069 492 1080 l 629 954 l 803 1068 q 830 1080 821 1080 q 847 1073 840 1080 q 853 1057 853 1067 q 827 1023 853 1039 l 614 883 z "},"":{"ha":833,"x_min":146,"x_max":795,"o":"m 722 550 q 736 578 726 570 q 759 587 747 587 q 775 581 769 587 q 782 566 782 574 q 779 549 782 560 l 759 451 q 744 422 754 431 q 722 413 734 413 q 706 419 712 413 q 699 433 699 425 l 700 445 q 701 455 701 450 q 668 515 701 492 q 533 550 620 550 q 367 505 429 550 q 321 435 321 472 q 361 375 321 398 q 484 348 390 359 q 619 324 578 338 q 704 271 676 306 q 732 193 732 237 q 695 93 732 143 q 583 10 659 43 q 414 -22 508 -22 q 295 -5 347 -22 q 208 46 243 12 q 194 10 202 18 q 169 0 182 0 q 153 6 159 0 q 146 21 146 12 q 149 38 146 27 l 174 155 q 188 184 178 176 q 211 193 198 193 q 227 187 220 193 q 233 172 233 180 q 231 156 233 166 q 229 141 229 146 q 269 73 229 102 q 424 35 322 35 q 609 83 545 35 q 673 178 673 131 q 654 229 673 204 q 597 268 635 254 q 473 292 559 283 q 347 315 387 301 q 285 357 307 329 q 262 422 262 386 q 292 506 262 465 q 389 577 321 547 q 542 608 457 608 q 646 593 601 608 q 722 550 691 579 m 556 684 l 402 823 q 389 846 389 836 q 399 870 389 859 q 425 881 410 881 q 446 869 433 881 l 571 754 l 745 869 q 772 880 762 880 q 788 874 782 880 q 795 858 795 867 q 769 823 795 840 l 556 684 z "},"":{"ha":833,"x_min":144,"x_max":854,"o":"m 693 0 l 144 0 l 162 83 l 762 732 l 764 736 l 385 736 l 349 569 q 334 539 344 548 q 311 530 324 530 q 295 537 302 530 q 289 551 289 543 q 292 569 289 557 l 339 793 l 831 793 l 814 713 l 212 63 l 212 57 l 648 57 l 690 256 q 705 286 694 277 q 727 294 715 294 q 744 288 737 294 q 750 273 750 281 q 747 256 750 267 l 693 0 m 616 883 l 462 1023 q 448 1045 448 1035 q 459 1069 448 1059 q 484 1080 470 1080 q 505 1069 493 1080 l 631 954 l 804 1068 q 831 1080 822 1080 q 848 1073 842 1080 q 854 1057 854 1067 q 829 1023 854 1039 l 616 883 z "},"":{"ha":833,"x_min":161,"x_max":795,"o":"m 791 587 l 780 536 l 252 57 l 637 57 l 654 136 q 668 165 658 156 q 690 174 677 174 q 707 168 701 174 q 713 153 713 161 q 711 136 713 146 l 682 0 l 161 0 l 172 51 l 699 530 l 344 530 l 328 452 q 313 423 323 431 q 290 414 303 414 q 274 420 281 414 q 268 435 268 427 q 270 452 268 441 l 299 587 l 791 587 m 556 684 l 402 823 q 389 846 389 836 q 399 870 389 859 q 425 881 410 881 q 446 869 433 881 l 571 754 l 745 869 q 772 880 762 880 q 788 874 782 880 q 795 858 795 867 q 769 823 795 840 l 556 684 z "},"":{"ha":833,"x_min":388,"x_max":446,"o":"m 446 772 l 445 517 q 441 450 445 457 q 416 437 431 437 q 399 444 407 437 q 389 458 391 450 q 388 517 388 464 l 388 772 q 389 831 388 825 q 399 845 391 839 q 416 851 407 851 q 434 845 426 851 q 444 831 441 839 q 446 772 446 825 m 446 158 l 445 -97 q 441 -163 445 -157 q 416 -176 431 -176 q 399 -170 407 -176 q 389 -156 391 -164 q 388 -97 388 -150 l 388 158 q 389 217 388 212 q 399 232 391 226 q 416 237 407 237 q 434 232 426 237 q 444 217 441 226 q 446 158 446 212 z "},"":{"ha":833,"x_min":64,"x_max":827,"o":"m 226 382 l 171 382 q 114 384 119 382 q 102 391 106 385 q 98 406 98 397 q 105 425 98 416 q 122 438 112 435 q 183 440 129 440 l 237 440 l 300 736 l 253 736 q 227 742 234 736 q 220 760 220 748 q 232 783 220 773 q 265 793 243 793 l 571 793 q 754 716 682 793 q 827 511 827 639 q 819 436 827 477 l 802 357 q 726 186 783 269 q 559 40 669 102 q 402 0 488 0 l 96 0 q 71 6 77 0 q 64 23 64 12 q 75 47 64 37 q 109 57 86 57 l 156 57 l 226 382 m 283 382 l 214 57 l 420 57 q 506 72 467 57 q 608 135 545 87 q 691 228 652 169 q 742 345 730 288 l 764 448 q 770 497 770 475 q 710 671 770 606 q 565 736 650 736 l 358 736 l 295 440 l 467 440 q 524 439 519 440 q 536 431 531 437 q 541 417 541 425 q 533 397 541 407 q 515 385 526 388 q 454 382 509 382 l 283 382 z "},"":{"ha":833,"x_min":143,"x_max":830,"o":"m 661 795 q 777 836 684 805 q 808 840 793 840 q 825 835 819 840 q 830 820 830 830 q 817 795 830 806 q 702 759 804 785 q 785 632 756 703 q 813 460 813 562 q 761 204 813 315 q 614 36 709 93 q 406 -21 519 -21 q 216 52 288 -21 q 143 232 143 124 q 237 460 143 353 q 520 587 350 587 q 667 552 608 587 q 757 450 726 517 q 727 614 753 551 q 640 739 701 678 q 431 671 555 708 q 389 663 400 663 q 370 669 376 663 q 364 684 364 675 q 374 705 364 696 q 448 734 387 718 q 585 770 553 763 q 509 789 543 787 q 466 798 475 791 q 456 817 456 805 q 468 838 456 827 q 498 848 479 848 q 567 836 520 848 q 661 795 613 823 m 400 32 q 565 71 486 32 q 686 184 644 110 q 728 341 728 258 q 673 481 728 428 q 518 534 618 534 q 278 425 376 534 q 198 237 198 335 q 256 91 198 151 q 400 32 313 32 z "},"":{"ha":833,"x_min":208,"x_max":928,"o":"m 522 358 l 458 57 l 606 57 q 632 51 625 57 q 639 35 639 45 q 628 10 639 20 q 594 0 616 0 l 241 0 q 215 6 222 0 q 208 23 208 12 q 219 47 208 37 q 253 57 231 57 l 401 57 l 465 358 l 295 736 l 261 736 q 235 742 242 736 q 229 760 229 748 q 240 783 229 773 q 273 793 251 793 l 430 793 q 456 788 449 793 q 463 771 463 782 q 451 747 463 757 q 418 736 440 736 l 361 736 l 506 416 l 783 736 l 727 736 q 701 742 707 736 q 694 760 694 748 q 705 783 694 773 q 739 793 716 793 l 895 793 q 921 788 914 793 q 928 771 928 782 q 917 747 928 757 q 883 736 905 736 l 849 736 l 522 358 m 718 1044 l 528 905 q 499 892 510 892 q 483 898 489 892 q 476 914 476 905 q 480 930 476 923 q 500 949 484 937 l 690 1087 q 718 1101 707 1101 q 735 1094 728 1101 q 741 1078 741 1088 q 737 1062 741 1069 q 718 1044 733 1055 z "},"":{"ha":833,"x_min":20,"x_max":884,"o":"m 387 0 l 236 530 l 219 530 q 193 536 200 530 q 186 553 186 542 q 192 570 186 562 q 206 583 197 579 q 231 587 214 587 l 387 587 q 407 585 401 587 q 416 577 412 583 q 419 564 419 572 q 408 540 419 551 q 374 530 397 530 l 298 530 l 431 62 l 760 530 l 684 530 q 657 536 665 530 q 650 553 650 542 q 662 577 650 566 q 696 587 673 587 l 851 587 q 876 582 870 587 q 884 564 884 575 q 877 546 884 555 q 861 532 871 536 q 821 530 854 530 l 304 -205 l 393 -205 q 414 -207 408 -205 q 422 -215 419 -209 q 426 -227 426 -220 q 415 -252 426 -241 q 381 -262 404 -262 l 53 -262 q 27 -256 34 -262 q 20 -239 20 -250 q 32 -215 20 -225 q 65 -205 43 -205 l 244 -205 l 387 0 m 744 844 l 555 706 q 526 692 536 692 q 509 699 515 692 q 503 715 503 705 q 507 731 503 724 q 526 749 511 738 l 716 888 q 745 901 734 901 q 761 895 755 901 q 768 879 768 888 q 764 863 768 870 q 744 844 760 856 z "},"":{"ha":833,"x_min":127,"x_max":846,"o":"m 345 793 l 657 793 q 682 789 676 793 q 690 771 690 782 q 679 747 690 757 q 645 736 667 736 l 450 736 l 427 630 l 575 630 q 758 596 703 630 q 846 439 846 543 q 824 336 846 387 q 763 249 802 286 q 696 205 739 226 q 616 175 653 184 q 473 161 563 161 l 328 161 l 305 57 l 500 57 q 526 52 519 57 q 533 35 533 45 q 522 10 533 20 q 488 0 511 0 l 159 0 q 134 6 140 0 q 127 23 127 12 q 138 47 127 37 q 172 57 149 57 l 248 57 l 393 736 l 316 736 q 290 743 297 736 q 283 760 283 749 q 290 778 283 768 q 306 791 296 787 q 345 793 313 793 m 340 219 l 497 219 q 721 284 654 219 q 787 431 787 349 q 744 535 787 497 q 601 572 702 572 l 415 572 l 340 219 z "},"":{"ha":833,"x_min":-20,"x_max":829,"o":"m 383 851 l 305 484 q 433 578 362 548 q 572 608 504 608 q 756 538 684 608 q 829 368 829 469 q 740 146 829 251 q 465 14 627 14 q 233 140 299 14 l 159 -205 l 297 -205 q 321 -210 316 -205 q 330 -227 330 -216 q 318 -252 330 -241 q 285 -262 307 -262 l 13 -262 q -13 -256 -6 -262 q -20 -239 -20 -250 q -8 -215 -20 -225 q 25 -205 3 -205 l 102 -205 l 314 793 l 237 793 q 212 800 218 793 q 205 817 205 806 q 216 841 205 830 q 250 851 227 851 l 383 851 m 460 70 q 600 104 541 70 q 725 225 681 150 q 769 370 769 300 q 713 497 769 444 q 570 551 657 551 q 417 508 492 551 q 302 393 342 466 q 262 245 262 320 q 316 121 262 173 q 460 70 370 70 z "},"":{"ha":833,"x_min":181,"x_max":821,"o":"m 734 368 l 255 368 q 197 369 203 368 q 186 376 191 370 q 181 391 181 382 q 189 411 181 401 q 205 423 196 420 q 267 425 213 425 l 747 425 q 804 424 800 425 q 816 417 811 422 q 821 402 821 411 q 813 383 821 393 q 796 370 806 373 q 734 368 789 368 z "},"":{"ha":833,"x_min":288,"x_max":794,"o":"m 541 356 l 349 178 q 315 161 332 161 q 296 168 303 161 q 288 186 288 176 q 304 214 288 201 l 310 218 l 502 397 l 361 575 q 351 598 351 588 q 361 620 351 610 q 383 629 372 629 q 390 627 387 629 q 402 615 395 625 l 543 437 l 733 614 q 770 630 750 630 q 788 623 781 630 q 794 607 794 616 q 779 578 794 591 l 773 574 l 583 397 l 723 218 q 734 194 734 205 q 725 173 734 182 q 703 163 715 163 q 692 166 697 163 q 680 178 687 170 l 541 356 z "},"":{"ha":833,"x_min":257,"x_max":583,"o":"m 551 869 l 450 456 l 555 456 q 577 452 572 456 q 583 440 583 447 q 575 425 583 432 q 549 418 566 418 l 285 418 q 263 422 269 418 q 257 434 257 427 q 266 449 257 442 q 292 456 274 456 l 399 456 l 488 815 l 382 788 q 368 786 374 786 q 353 791 359 786 q 348 802 348 795 q 354 815 348 809 q 376 825 359 821 l 551 869 z "},"":{"ha":833,"x_min":229,"x_max":653,"o":"m 293 456 l 530 456 q 540 479 534 475 q 561 487 549 487 q 577 482 572 487 q 583 472 583 477 q 581 461 583 469 l 570 418 l 229 418 l 241 467 l 403 575 q 559 687 533 665 q 594 727 585 710 q 602 760 602 743 q 578 812 602 790 q 513 833 553 833 q 438 815 475 833 q 378 758 401 796 q 351 743 369 743 q 334 749 340 743 q 330 758 330 752 q 348 791 330 769 q 424 850 377 828 q 519 871 471 871 q 616 839 579 871 q 653 765 653 807 q 628 699 653 732 q 457 566 603 665 q 293 456 312 467 z "},"":{"ha":833,"x_min":252,"x_max":654,"o":"m 556 659 q 604 620 586 646 q 621 567 621 595 q 559 460 621 513 q 406 408 498 408 q 318 424 361 408 q 256 458 275 439 q 252 469 252 463 q 259 484 252 477 q 279 490 267 490 q 306 479 289 490 q 414 446 351 446 q 525 484 479 446 q 570 560 570 522 q 541 617 570 593 q 453 643 512 642 q 431 648 437 644 q 425 659 425 652 q 434 674 425 667 q 458 681 442 681 q 524 686 507 681 q 582 720 559 696 q 604 770 604 744 q 582 815 604 796 q 519 833 561 833 q 402 795 447 833 q 378 785 391 785 q 362 789 368 785 q 357 800 357 793 q 363 812 357 806 q 432 854 386 836 q 526 871 478 871 q 621 843 588 871 q 654 777 654 815 q 629 711 654 744 q 556 659 604 677 z "},"":{"ha":833,"x_min":81,"x_max":903,"o":"m 376 869 l 274 456 l 380 456 q 402 452 396 456 q 408 440 408 447 q 399 425 408 432 q 373 418 391 418 l 109 418 q 87 422 93 418 q 81 434 81 427 q 90 449 81 442 q 116 456 98 456 l 224 456 l 312 815 l 206 788 q 193 786 199 786 q 177 791 184 786 q 172 802 172 795 q 178 815 172 809 q 201 825 184 821 l 376 869 m 852 606 l 146 205 q 121 196 129 196 q 104 202 111 196 q 98 218 98 208 q 125 254 98 238 l 831 654 q 857 663 849 663 q 874 657 867 663 q 880 641 880 650 q 852 606 880 621 m 543 39 l 779 39 q 789 62 784 57 q 810 69 798 69 q 827 64 821 69 q 833 54 833 60 q 831 43 833 51 l 820 0 l 479 0 l 491 50 l 652 157 q 809 270 783 247 q 843 309 835 292 q 852 342 852 326 q 827 394 852 372 q 763 416 803 416 q 688 397 724 416 q 627 340 651 378 q 600 326 618 326 q 584 331 590 326 q 579 340 579 334 q 597 374 579 351 q 673 432 627 410 q 768 454 720 454 q 866 421 829 454 q 903 347 903 389 q 878 281 903 315 q 707 148 852 248 q 543 39 562 49 z "},"":{"ha":833,"x_min":75,"x_max":878,"o":"m 369 869 l 267 456 l 373 456 q 395 452 389 456 q 401 440 401 447 q 392 425 401 432 q 366 418 384 418 l 102 418 q 80 422 86 418 q 75 434 75 427 q 83 449 75 442 q 109 456 92 456 l 217 456 l 305 815 l 199 788 q 186 786 192 786 q 170 791 177 786 q 165 802 165 795 q 171 815 165 809 q 194 825 177 821 l 369 869 m 850 606 l 144 205 q 119 196 127 196 q 102 202 109 196 q 96 218 96 208 q 123 254 96 238 l 829 654 q 855 663 847 663 q 872 657 865 663 q 878 641 878 650 q 850 606 878 621 m 604 121 l 381 121 l 391 160 l 650 443 l 734 443 l 664 159 l 683 159 q 705 155 699 159 q 711 144 711 151 q 707 133 711 138 q 696 124 703 127 q 675 121 689 121 l 654 121 l 634 38 l 653 38 q 675 34 669 38 q 681 22 681 29 q 672 7 681 14 q 646 0 663 0 l 521 0 q 499 4 505 0 q 493 16 493 9 q 502 31 493 24 q 528 38 510 38 l 584 38 l 604 121 m 614 159 l 674 405 l 671 405 l 446 159 l 614 159 z "},"":{"ha":833,"x_min":79,"x_max":918,"o":"m 384 659 q 431 620 414 646 q 449 567 449 595 q 387 460 449 513 q 233 408 326 408 q 145 424 189 408 q 84 458 102 439 q 79 469 79 463 q 87 484 79 477 q 107 490 95 490 q 134 479 117 490 q 241 446 178 446 q 353 484 307 446 q 398 560 398 522 q 369 617 398 593 q 281 643 340 642 q 259 648 264 644 q 253 659 253 652 q 261 674 253 667 q 286 681 270 681 q 351 686 334 681 q 409 720 387 696 q 431 770 431 744 q 410 815 431 796 q 347 833 389 833 q 230 795 275 833 q 206 785 219 785 q 190 789 195 785 q 184 800 184 793 q 191 812 184 806 q 260 854 214 836 q 354 871 306 871 q 449 843 416 871 q 482 777 482 815 q 457 711 482 744 q 384 659 432 677 m 890 606 l 184 205 q 159 196 166 196 q 141 202 148 196 q 135 218 135 208 q 163 254 135 238 l 869 654 q 895 663 886 663 q 911 657 905 663 q 918 641 918 650 q 890 606 918 621 m 633 121 l 410 121 l 420 160 l 679 443 l 763 443 l 693 159 l 712 159 q 734 155 728 159 q 740 144 740 151 q 736 133 740 138 q 725 124 732 127 q 705 121 718 121 l 684 121 l 663 38 l 682 38 q 704 34 698 38 q 710 22 710 29 q 701 7 710 14 q 675 0 692 0 l 550 0 q 528 4 534 0 q 522 16 522 9 q 531 31 522 24 q 557 38 539 38 l 613 38 l 633 121 m 643 159 l 703 405 l 700 405 l 475 159 l 643 159 z "},"":{"ha":833,"x_min":126,"x_max":954,"o":"m 339 218 l 488 218 q 514 213 508 218 q 521 196 521 207 q 510 172 521 182 q 476 161 498 161 l 327 161 l 304 57 l 500 57 q 526 51 519 57 q 532 35 532 45 q 521 10 532 20 q 488 0 510 0 l 159 0 q 133 6 140 0 q 126 23 126 12 q 137 47 126 37 q 171 57 149 57 l 248 57 l 269 161 l 197 161 q 171 168 178 161 q 164 184 164 174 q 175 208 164 198 q 209 218 186 218 l 281 218 l 392 736 l 315 736 q 290 742 296 736 q 283 760 283 748 q 294 783 283 773 q 328 793 305 793 l 954 793 l 913 597 q 899 568 909 576 q 876 559 888 559 q 860 566 866 559 q 853 580 853 572 q 856 597 853 586 l 885 736 l 449 736 l 386 440 l 590 440 l 604 505 q 618 534 608 525 q 641 543 628 543 q 657 536 650 543 q 664 522 664 530 q 661 505 664 516 l 622 319 q 607 290 617 298 q 585 281 597 281 q 569 287 575 281 q 562 302 562 293 q 564 319 562 308 l 578 383 l 374 383 l 339 218 z "},"":{"ha":833,"x_min":150,"x_max":889,"o":"m 789 294 l 737 50 q 460 -22 592 -22 q 215 68 302 -22 q 150 255 150 136 q 160 343 150 296 l 182 448 q 268 630 202 541 q 425 766 334 720 q 609 812 515 812 q 732 793 677 812 q 825 736 786 774 q 841 782 833 774 q 867 793 852 793 q 883 787 876 793 q 889 772 889 781 q 887 755 889 767 l 859 627 q 845 597 855 606 q 823 589 836 589 q 807 594 813 589 q 801 608 801 600 q 802 624 801 613 q 804 637 804 630 q 762 709 804 679 q 602 755 701 755 q 449 719 521 755 q 299 582 378 684 q 239 447 256 526 l 217 343 q 208 259 208 300 q 277 97 208 159 q 477 35 347 35 q 575 45 528 35 q 687 83 621 56 l 732 294 l 536 294 q 510 300 517 294 q 503 317 503 307 q 514 341 503 331 q 548 352 526 352 l 821 351 q 846 347 840 351 q 854 329 854 340 q 847 310 854 319 q 831 297 841 300 q 789 294 824 294 m 495 1084 q 511 1079 505 1084 q 517 1065 517 1073 q 517 1052 517 1061 q 516 1042 516 1046 q 550 980 516 1007 q 642 952 583 952 q 751 982 705 952 q 810 1052 798 1013 q 825 1077 816 1070 q 846 1084 834 1084 q 862 1078 856 1084 q 869 1063 869 1072 q 845 1002 869 1038 q 757 924 814 953 q 629 895 701 895 q 502 934 546 895 q 457 1029 457 973 q 468 1072 457 1059 q 495 1084 479 1084 z "},"":{"ha":833,"x_min":144,"x_max":900,"o":"m 711 483 l 733 587 l 867 587 q 892 582 886 587 q 900 564 900 575 q 888 540 900 551 q 854 530 877 530 l 779 530 l 657 -39 q 613 -139 646 -94 q 543 -203 590 -170 q 464 -249 496 -235 q 378 -262 431 -262 l 217 -262 q 191 -256 198 -262 q 184 -239 184 -250 q 196 -215 184 -225 q 229 -204 207 -204 l 393 -205 q 486 -180 441 -205 q 570 -104 532 -156 q 602 -31 592 -76 l 638 140 q 373 14 519 14 q 210 80 275 14 q 144 250 144 146 q 178 390 144 323 q 260 502 212 456 q 370 578 309 548 q 502 608 431 608 q 711 483 646 608 m 389 72 q 497 96 446 72 q 589 158 548 119 q 655 253 629 197 q 680 366 680 308 q 627 497 680 445 q 494 550 574 550 q 292 461 381 550 q 203 260 203 372 q 256 125 203 178 q 389 72 309 72 m 425 880 q 441 874 435 880 q 447 861 447 869 q 446 848 447 857 q 446 838 446 842 q 479 775 446 803 q 572 748 513 748 q 681 778 634 748 q 739 848 727 808 q 754 873 745 866 q 776 880 764 880 q 792 874 785 880 q 798 859 798 867 q 774 798 798 833 q 687 720 743 749 q 559 690 630 690 q 431 730 475 690 q 387 825 387 769 q 398 867 387 854 q 425 880 409 880 z "},"":{"ha":833,"x_min":161,"x_max":842,"o":"m 602 736 l 458 57 l 653 57 q 679 51 672 57 q 686 35 686 45 q 674 10 686 20 q 641 0 663 0 l 193 0 q 168 6 174 0 q 161 23 161 12 q 172 47 161 37 q 205 57 183 57 l 401 57 l 545 736 l 350 736 q 324 742 331 736 q 317 760 317 748 q 329 783 317 773 q 362 793 340 793 l 809 793 q 836 788 829 793 q 842 771 842 782 q 831 747 842 757 q 798 736 819 736 l 602 736 m 634 912 q 594 928 610 912 q 578 968 578 943 q 605 1025 578 1000 q 665 1051 631 1051 q 705 1036 689 1051 q 720 997 720 1020 q 694 938 720 964 q 634 912 668 912 z "},"":{"ha":833,"x_min":132,"x_max":841,"o":"m 777 736 q 792 782 785 774 q 819 793 804 793 q 834 787 828 793 q 841 772 841 781 q 838 755 841 767 l 808 610 q 793 581 803 590 q 770 572 783 572 q 754 578 761 572 q 748 593 748 585 q 750 607 748 598 q 751 626 751 616 q 705 716 751 677 q 578 755 659 755 q 403 695 471 755 q 335 564 335 636 q 376 482 335 510 q 519 436 416 454 q 657 404 621 418 q 733 349 707 384 q 759 261 759 313 q 717 124 759 191 q 591 18 675 58 q 415 -22 506 -22 q 287 1 341 -22 q 198 71 233 24 l 191 38 q 177 9 187 18 q 154 0 167 0 q 138 6 144 0 q 132 21 132 12 q 134 38 132 27 l 168 195 q 181 225 172 216 q 204 234 191 234 q 221 228 214 234 q 227 214 227 222 q 225 199 227 209 q 224 180 224 190 q 277 78 224 122 q 428 35 330 35 q 568 66 502 35 q 668 148 635 98 q 701 247 701 197 q 681 311 701 284 q 621 355 661 338 q 503 382 594 366 q 330 441 382 403 q 277 552 277 479 q 366 732 277 652 q 588 812 454 812 q 695 793 648 812 q 777 736 743 774 m 378 -111 l 399 -7 q 410 14 403 8 q 426 20 417 20 q 438 16 433 20 q 442 5 442 12 q 441 -7 442 1 l 427 -72 q 475 -93 458 -77 q 492 -132 492 -110 q 460 -197 492 -168 q 376 -226 429 -226 q 313 -214 346 -226 q 271 -193 280 -203 q 266 -179 266 -186 q 273 -162 266 -170 q 291 -155 281 -155 q 305 -159 298 -155 q 384 -185 346 -185 q 432 -170 414 -185 q 450 -140 450 -155 q 441 -121 450 -129 q 406 -111 427 -111 l 378 -111 z "},"":{"ha":833,"x_min":146,"x_max":782,"o":"m 722 550 q 736 578 726 570 q 759 587 747 587 q 775 581 769 587 q 782 566 782 574 q 779 549 782 560 l 759 451 q 744 422 754 431 q 722 413 734 413 q 706 419 712 413 q 699 433 699 425 l 700 445 q 701 455 701 450 q 668 515 701 492 q 533 550 620 550 q 367 505 429 550 q 321 435 321 472 q 361 375 321 398 q 484 348 390 359 q 619 324 578 338 q 704 271 676 306 q 732 193 732 237 q 695 93 732 143 q 583 10 659 43 q 414 -22 508 -22 q 295 -5 347 -22 q 208 46 243 12 q 194 10 202 18 q 169 0 182 0 q 153 6 159 0 q 146 21 146 12 q 149 38 146 27 l 174 155 q 188 184 178 176 q 211 193 198 193 q 227 187 220 193 q 233 172 233 180 q 231 156 233 166 q 229 141 229 146 q 269 73 229 102 q 424 35 322 35 q 609 83 545 35 q 673 178 673 131 q 654 229 673 204 q 597 268 635 254 q 473 292 559 283 q 347 315 387 301 q 285 357 307 329 q 262 422 262 386 q 292 506 262 465 q 389 577 321 547 q 542 608 457 608 q 646 593 601 608 q 722 550 691 579 m 372 -111 l 394 -7 q 405 14 397 8 q 420 20 412 20 q 432 16 428 20 q 437 5 437 12 q 435 -7 437 1 l 421 -72 q 470 -93 453 -77 q 486 -132 486 -110 q 455 -197 486 -168 q 371 -226 423 -226 q 308 -214 340 -226 q 266 -193 275 -203 q 260 -179 260 -186 q 268 -162 260 -170 q 286 -155 275 -155 q 300 -159 292 -155 q 378 -185 340 -185 q 427 -170 408 -185 q 445 -140 445 -155 q 436 -121 445 -129 q 400 -111 421 -111 l 372 -111 z "},"":{"ha":833,"x_min":159,"x_max":895,"o":"m 827 715 l 836 755 q 849 785 840 776 q 872 793 859 793 q 889 787 882 793 q 895 772 895 781 q 892 755 895 767 l 859 597 q 845 568 854 576 q 822 559 835 559 q 806 565 812 559 q 800 580 800 572 q 801 593 800 585 q 802 610 802 602 q 752 702 802 662 q 594 755 687 755 q 465 726 530 755 q 383 673 415 705 q 286 553 324 616 q 246 450 259 509 l 225 350 q 218 287 218 318 q 289 107 218 179 q 465 35 359 35 q 601 66 536 35 q 735 163 665 97 q 764 177 750 177 q 780 171 774 177 q 786 157 786 165 q 771 127 786 142 q 620 17 705 57 q 454 -22 534 -22 q 325 5 386 -22 q 253 54 279 26 q 185 155 212 96 q 159 269 159 214 q 166 342 159 306 l 191 458 q 273 630 209 542 q 426 765 338 719 q 604 812 515 812 q 730 788 675 812 q 827 715 786 764 m 817 1048 l 628 909 q 599 896 610 896 q 582 902 589 896 q 576 918 576 909 q 580 934 576 927 q 600 953 584 941 l 789 1091 q 818 1105 807 1105 q 834 1098 828 1105 q 841 1082 841 1092 q 837 1066 841 1074 q 817 1048 833 1059 z "},"":{"ha":833,"x_min":170,"x_max":831,"o":"m 767 530 q 783 576 775 568 q 808 587 794 587 q 824 581 818 587 q 831 566 831 574 q 829 549 831 560 l 801 420 q 786 390 796 399 q 764 381 777 381 q 748 387 754 381 q 741 401 741 393 q 743 415 741 406 q 743 426 743 420 q 700 505 743 472 q 549 550 643 550 q 393 510 466 550 q 274 389 319 469 q 229 231 229 309 q 285 89 229 142 q 441 35 341 35 q 580 59 506 35 q 722 138 654 83 q 751 151 739 151 q 766 145 760 151 q 772 130 772 140 q 759 102 772 117 q 615 15 711 52 q 421 -22 519 -22 q 238 44 307 -22 q 170 216 170 110 q 204 370 170 296 q 291 494 238 443 q 411 576 343 545 q 564 608 479 608 q 680 588 629 608 q 767 530 731 569 m 756 844 l 567 706 q 538 692 549 692 q 521 699 528 692 q 515 715 515 705 q 519 731 515 724 q 538 749 523 738 l 728 888 q 757 901 746 901 q 773 895 767 901 q 780 879 780 888 q 776 863 780 870 q 756 844 772 856 z "},"":{"ha":833,"x_min":159,"x_max":895,"o":"m 827 715 l 836 755 q 849 785 840 776 q 872 793 859 793 q 889 787 882 793 q 895 772 895 781 q 892 755 895 767 l 859 597 q 845 568 854 576 q 822 559 835 559 q 806 565 812 559 q 800 580 800 572 q 801 593 800 585 q 802 610 802 602 q 752 702 802 662 q 594 755 687 755 q 465 726 530 755 q 383 673 415 705 q 286 553 324 616 q 246 450 259 509 l 225 350 q 218 287 218 318 q 289 107 218 179 q 465 35 359 35 q 601 66 536 35 q 735 163 665 97 q 764 177 750 177 q 780 171 774 177 q 786 157 786 165 q 771 127 786 142 q 620 17 705 57 q 454 -22 534 -22 q 325 5 386 -22 q 253 54 279 26 q 185 155 212 96 q 159 269 159 214 q 166 342 159 306 l 191 458 q 273 630 209 542 q 426 765 338 719 q 604 812 515 812 q 730 788 675 812 q 827 715 786 764 m 654 887 l 500 1027 q 486 1049 486 1039 q 497 1074 486 1063 q 522 1084 508 1084 q 543 1073 531 1084 l 669 958 l 842 1072 q 869 1084 860 1084 q 886 1077 880 1084 q 892 1061 892 1071 q 867 1027 892 1043 l 654 887 z "},"":{"ha":833,"x_min":170,"x_max":831,"o":"m 767 530 q 783 576 775 568 q 808 587 794 587 q 824 581 818 587 q 831 566 831 574 q 829 549 831 560 l 801 420 q 786 390 796 399 q 764 381 777 381 q 748 387 754 381 q 741 401 741 393 q 743 415 741 406 q 743 426 743 420 q 700 505 743 472 q 549 550 643 550 q 393 510 466 550 q 274 389 319 469 q 229 231 229 309 q 285 89 229 142 q 441 35 341 35 q 580 59 506 35 q 722 138 654 83 q 751 151 739 151 q 766 145 760 151 q 772 130 772 140 q 759 102 772 117 q 615 15 711 52 q 421 -22 519 -22 q 238 44 307 -22 q 170 216 170 110 q 204 370 170 296 q 291 494 238 443 q 411 576 343 545 q 564 608 479 608 q 680 588 629 608 q 767 530 731 569 m 576 684 l 422 823 q 409 846 409 836 q 420 870 409 859 q 445 881 431 881 q 466 869 454 881 l 591 754 l 765 869 q 792 880 783 880 q 809 874 802 880 q 815 858 815 867 q 789 823 815 840 l 576 684 z "},"":{"ha":833,"x_min":140,"x_max":950,"o":"m 851 734 l 877 734 q 934 733 929 734 q 946 726 941 732 q 950 711 950 720 q 943 692 950 701 q 926 680 936 682 q 865 677 919 677 l 839 677 l 707 57 l 784 57 q 810 51 803 57 q 817 35 817 45 q 805 10 817 20 q 772 0 794 0 l 637 0 l 662 113 q 379 -22 534 -22 q 208 47 276 -22 q 140 227 140 116 q 195 411 140 317 q 339 556 250 504 q 516 608 429 608 q 739 472 665 608 l 782 677 l 614 677 q 545 679 553 677 q 531 687 536 681 q 526 703 526 692 q 532 722 526 713 q 546 732 538 730 q 602 734 554 734 l 794 734 l 806 793 l 730 793 q 704 800 711 793 q 697 817 697 806 q 709 841 697 830 q 743 851 720 851 l 876 851 l 851 734 m 395 35 q 510 60 456 35 q 608 128 564 85 q 679 230 652 170 q 706 352 706 290 q 650 494 706 437 q 509 550 594 550 q 294 454 389 550 q 199 237 199 359 q 255 91 199 148 q 395 35 311 35 z "},"":{"ha":833,"x_min":168,"x_max":1040,"o":"m 995 934 l 201 934 q 181 936 186 934 q 172 944 176 938 q 168 956 168 949 q 179 981 168 970 q 213 991 191 991 l 1007 991 q 1032 985 1026 991 q 1040 968 1040 979 q 1029 944 1040 954 q 995 934 1017 934 z "},"":{"ha":833,"x_min":46,"x_max":860,"o":"m 690 265 l 315 265 l 194 57 l 303 57 q 330 51 323 57 q 336 35 336 45 q 325 10 336 20 q 291 0 313 0 l 79 0 q 53 6 60 0 q 46 23 46 12 q 57 47 46 37 q 91 57 68 57 l 134 57 l 531 736 l 363 736 q 337 742 344 736 q 330 760 330 748 q 341 783 330 773 q 375 793 353 793 l 661 793 l 783 57 l 827 57 q 853 51 846 57 q 860 35 860 45 q 849 10 860 20 q 815 0 838 0 l 602 0 q 576 6 583 0 q 570 23 570 12 q 581 47 570 37 q 614 57 592 57 l 724 57 l 690 265 m 680 322 l 611 736 l 590 736 l 349 322 l 680 322 m 463 1084 q 479 1079 473 1084 q 486 1065 486 1073 q 485 1052 486 1061 q 484 1042 484 1046 q 518 980 484 1007 q 610 952 551 952 q 719 982 673 952 q 778 1052 766 1013 q 793 1077 784 1070 q 814 1084 802 1084 q 830 1078 824 1084 q 837 1063 837 1072 q 813 1002 837 1038 q 725 924 782 953 q 597 895 669 895 q 470 934 514 895 q 425 1029 425 973 q 436 1072 425 1059 q 463 1084 448 1084 z "},"":{"ha":833,"x_min":127,"x_max":791,"o":"m 581 0 l 598 82 q 311 -22 452 -22 q 174 18 220 -22 q 127 120 127 59 q 209 279 127 213 q 473 363 310 363 q 654 342 551 363 l 673 434 q 675 454 675 444 q 644 517 675 494 q 524 550 602 550 q 322 509 458 550 q 300 505 307 505 q 285 511 291 505 q 279 527 279 517 q 289 550 279 540 q 365 577 298 560 q 539 608 482 608 q 685 565 636 608 q 734 469 734 522 q 730 434 734 451 l 650 57 l 727 57 q 753 51 746 57 q 760 35 760 45 q 748 10 760 20 q 715 0 737 0 l 581 0 m 642 283 q 467 306 565 306 q 248 243 330 306 q 186 134 186 195 q 219 62 186 90 q 318 35 251 35 q 462 63 392 35 q 614 158 532 92 l 642 283 m 418 880 q 434 874 428 880 q 440 861 440 869 q 439 848 440 857 q 439 838 439 842 q 472 775 439 803 q 565 748 506 748 q 674 778 627 748 q 732 848 720 808 q 748 873 739 866 q 769 880 757 880 q 785 874 779 880 q 791 859 791 867 q 768 798 791 833 q 680 720 736 749 q 552 690 623 690 q 424 730 469 690 q 380 825 380 769 q 391 867 380 854 q 418 880 402 880 z "},"":{"ha":833,"x_min":17,"x_max":869,"o":"m 661 265 l 286 265 l 165 57 l 274 57 q 300 51 294 57 q 307 35 307 45 q 296 10 307 20 q 262 0 284 0 l 50 0 q 24 6 31 0 q 17 23 17 12 q 28 47 17 37 q 62 57 39 57 l 105 57 l 502 736 l 334 736 q 308 742 315 736 q 301 760 301 748 q 312 783 301 773 q 346 793 323 793 l 632 793 l 754 57 l 798 57 q 824 51 817 57 q 831 35 831 45 q 820 10 831 20 q 786 0 808 0 l 573 0 q 547 6 554 0 q 541 23 541 12 q 552 47 541 37 q 585 57 563 57 l 694 57 l 661 265 m 651 322 l 582 736 l 561 736 l 319 322 l 651 322 m 800 3 q 744 -30 770 -1 q 718 -88 718 -58 q 733 -120 718 -107 q 776 -132 747 -132 q 833 -113 807 -132 q 852 -104 845 -104 q 864 -108 859 -104 q 869 -119 869 -113 q 848 -148 869 -134 q 766 -173 812 -173 q 700 -152 723 -173 q 677 -98 677 -131 q 721 1 677 -43 q 814 45 765 45 q 827 40 822 45 q 831 29 831 36 q 823 10 831 18 q 800 3 817 5 z "},"":{"ha":833,"x_min":127,"x_max":790,"o":"m 581 0 l 598 82 q 311 -22 452 -22 q 174 18 220 -22 q 127 120 127 59 q 209 279 127 213 q 473 363 310 363 q 654 342 551 363 l 673 434 q 675 454 675 444 q 644 517 675 494 q 524 550 602 550 q 322 509 458 550 q 300 505 307 505 q 285 511 291 505 q 279 527 279 517 q 289 550 279 540 q 365 577 298 560 q 539 608 482 608 q 685 565 636 608 q 734 469 734 522 q 730 434 734 451 l 650 57 l 727 57 q 753 51 746 57 q 760 35 760 45 q 748 10 760 20 q 715 0 737 0 l 581 0 m 642 283 q 467 306 565 306 q 248 243 330 306 q 186 134 186 195 q 219 62 186 90 q 318 35 251 35 q 462 63 392 35 q 614 158 532 92 l 642 283 m 721 0 q 666 -32 692 -3 q 640 -91 640 -61 q 654 -122 640 -110 q 697 -135 669 -135 q 754 -116 728 -135 q 774 -106 766 -106 q 785 -111 781 -106 q 790 -122 790 -115 q 770 -151 790 -137 q 688 -176 733 -176 q 621 -155 644 -176 q 598 -100 598 -134 q 642 -2 598 -46 q 735 42 686 42 q 748 38 743 42 q 753 26 753 33 q 745 7 753 16 q 721 0 739 2 z "},"":{"ha":833,"x_min":104,"x_max":868,"o":"m 197 57 l 341 736 l 294 736 q 268 742 275 736 q 261 760 261 748 q 272 783 261 773 q 306 793 283 793 l 612 793 q 795 716 722 793 q 868 511 868 639 q 859 436 868 477 l 842 357 q 767 186 824 269 q 600 40 709 102 q 443 0 528 0 l 137 0 q 111 6 118 0 q 104 23 104 12 q 116 47 104 37 q 149 57 127 57 l 197 57 m 254 57 l 461 57 q 546 72 507 57 q 648 135 585 87 q 732 228 693 169 q 783 345 770 288 l 804 448 q 810 497 810 475 q 751 671 810 606 q 606 736 691 736 l 399 736 l 254 57 m 580 887 l 426 1027 q 412 1049 412 1039 q 423 1074 412 1063 q 448 1084 434 1084 q 469 1073 457 1084 l 595 958 l 768 1072 q 795 1084 786 1084 q 812 1077 806 1084 q 819 1061 819 1071 q 793 1027 819 1043 l 580 887 z "},"":{"ha":833,"x_min":140,"x_max":1112,"o":"m 876 851 l 707 57 l 784 57 q 810 51 803 57 q 817 35 817 45 q 805 10 817 20 q 772 0 794 0 l 637 0 l 662 113 q 379 -22 534 -22 q 208 47 276 -22 q 140 227 140 116 q 195 411 140 317 q 339 556 250 504 q 516 608 429 608 q 739 472 665 608 l 806 793 l 730 793 q 704 800 711 793 q 697 817 697 806 q 709 841 697 830 q 743 851 720 851 l 876 851 m 395 35 q 510 60 456 35 q 608 128 564 85 q 679 230 652 170 q 706 352 706 290 q 650 494 706 437 q 509 550 594 550 q 294 454 389 550 q 199 237 199 359 q 255 91 199 148 q 395 35 311 35 m 1111 787 q 1077 707 1097 737 q 984 605 1042 654 q 949 586 962 586 q 933 592 939 586 q 926 606 926 598 q 931 620 926 612 q 958 647 935 627 q 1029 724 1010 692 q 983 729 995 724 q 965 745 972 734 q 958 772 958 755 q 982 827 958 804 q 1037 851 1005 851 l 1061 851 q 1098 838 1085 851 q 1112 803 1112 825 q 1111 787 1112 795 z "},"":{"ha":833,"x_min":64,"x_max":827,"o":"m 226 382 l 171 382 q 114 384 119 382 q 102 391 106 385 q 98 406 98 397 q 105 425 98 416 q 122 438 112 435 q 183 440 129 440 l 237 440 l 300 736 l 253 736 q 227 742 234 736 q 220 760 220 748 q 232 783 220 773 q 265 793 243 793 l 571 793 q 754 716 682 793 q 827 511 827 639 q 819 436 827 477 l 802 357 q 726 186 783 269 q 559 40 669 102 q 402 0 488 0 l 96 0 q 71 6 77 0 q 64 23 64 12 q 75 47 64 37 q 109 57 86 57 l 156 57 l 226 382 m 283 382 l 214 57 l 420 57 q 506 72 467 57 q 608 135 545 87 q 691 228 652 169 q 742 345 730 288 l 764 448 q 770 497 770 475 q 710 671 770 606 q 565 736 650 736 l 358 736 l 295 440 l 467 440 q 524 439 519 440 q 536 431 531 437 q 541 417 541 425 q 533 397 541 407 q 515 385 526 388 q 454 382 509 382 l 283 382 z "},"":{"ha":833,"x_min":65,"x_max":865,"o":"m 313 383 l 243 57 l 682 57 l 717 225 q 731 254 722 245 q 754 263 741 263 q 770 257 764 263 q 777 243 777 251 q 774 225 777 237 l 726 0 l 98 0 q 72 6 79 0 q 65 23 65 12 q 76 47 65 37 q 110 57 87 57 l 186 57 l 331 736 l 254 736 q 229 742 235 736 q 222 760 222 748 q 233 783 222 773 q 267 793 244 793 l 865 793 l 823 597 q 809 568 819 576 q 787 559 800 559 q 770 566 777 559 q 764 580 764 572 q 766 597 764 586 l 795 736 l 388 736 l 325 440 l 529 440 l 543 505 q 557 534 547 525 q 580 543 567 543 q 596 536 589 543 q 603 522 603 530 q 600 505 603 516 l 561 319 q 546 290 556 298 q 524 281 536 281 q 508 287 514 281 q 501 302 501 293 q 503 319 501 308 l 517 383 l 313 383 m 648 0 q 593 -32 619 -3 q 567 -91 567 -61 q 582 -122 567 -110 q 625 -135 596 -135 q 682 -116 656 -135 q 701 -106 694 -106 q 713 -111 708 -106 q 718 -122 718 -115 q 697 -151 718 -137 q 615 -176 661 -176 q 549 -155 572 -176 q 526 -100 526 -134 q 570 -2 526 -46 q 663 42 614 42 q 675 38 671 42 q 680 26 680 33 q 672 7 680 16 q 648 0 666 2 z "},"":{"ha":833,"x_min":145,"x_max":796,"o":"m 785 280 l 205 280 q 203 248 203 259 q 266 95 203 155 q 437 35 329 35 q 574 55 500 35 q 701 111 648 76 q 726 121 716 121 q 741 115 734 121 q 747 98 747 109 q 736 75 747 86 q 611 10 705 42 q 421 -22 517 -22 q 221 52 296 -22 q 145 239 145 125 q 178 381 145 315 q 263 497 210 448 q 386 576 317 545 q 538 608 456 608 q 725 539 654 608 q 796 364 796 471 q 785 280 796 329 m 739 338 q 684 491 743 431 q 524 550 624 550 q 341 492 426 550 q 217 338 256 435 l 739 338 m 486 -20 q 430 -53 456 -24 q 404 -111 404 -81 q 419 -143 404 -130 q 462 -155 433 -155 q 519 -136 493 -155 q 538 -127 531 -127 q 550 -131 545 -127 q 555 -142 555 -136 q 534 -171 555 -157 q 452 -196 498 -196 q 386 -175 409 -196 q 363 -121 363 -154 q 407 -22 363 -66 q 500 22 451 22 q 513 17 508 22 q 517 6 517 13 q 509 -13 517 -5 q 486 -20 503 -18 z "},"":{"ha":833,"x_min":65,"x_max":865,"o":"m 313 383 l 243 57 l 682 57 l 717 225 q 731 254 722 245 q 754 263 741 263 q 770 257 764 263 q 777 243 777 251 q 774 225 777 237 l 726 0 l 98 0 q 72 6 79 0 q 65 23 65 12 q 76 47 65 37 q 110 57 87 57 l 186 57 l 331 736 l 254 736 q 229 742 235 736 q 222 760 222 748 q 233 783 222 773 q 267 793 244 793 l 865 793 l 823 597 q 809 568 819 576 q 787 559 800 559 q 770 566 777 559 q 764 580 764 572 q 766 597 764 586 l 795 736 l 388 736 l 325 440 l 529 440 l 543 505 q 557 534 547 525 q 580 543 567 543 q 596 536 589 543 q 603 522 603 530 q 600 505 603 516 l 561 319 q 546 290 556 298 q 524 281 536 281 q 508 287 514 281 q 501 302 501 293 q 503 319 501 308 l 517 383 l 313 383 m 605 887 l 451 1027 q 437 1049 437 1039 q 448 1074 437 1063 q 473 1084 459 1084 q 494 1073 482 1084 l 620 958 l 793 1072 q 821 1084 811 1084 q 837 1077 831 1084 q 844 1061 844 1071 q 818 1027 844 1043 l 605 887 z "},"":{"ha":833,"x_min":145,"x_max":796,"o":"m 785 280 l 205 280 q 203 248 203 259 q 266 95 203 155 q 437 35 329 35 q 574 55 500 35 q 701 111 648 76 q 726 121 716 121 q 741 115 734 121 q 747 98 747 109 q 736 75 747 86 q 611 10 705 42 q 421 -22 517 -22 q 221 52 296 -22 q 145 239 145 125 q 178 381 145 315 q 263 497 210 448 q 386 576 317 545 q 538 608 456 608 q 725 539 654 608 q 796 364 796 471 q 785 280 796 329 m 739 338 q 684 491 743 431 q 524 550 624 550 q 341 492 426 550 q 217 338 256 435 l 739 338 m 554 684 l 400 823 q 387 846 387 836 q 397 870 387 859 q 422 881 408 881 q 444 869 431 881 l 569 754 l 743 869 q 770 880 760 880 q 786 874 780 880 q 793 858 793 867 q 767 823 793 840 l 554 684 z "},"":{"ha":833,"x_min":92,"x_max":817,"o":"m 475 736 l 330 57 l 709 57 l 757 283 q 771 313 761 304 q 793 321 781 321 q 810 315 804 321 q 817 300 817 309 q 814 283 817 295 l 754 0 l 125 0 q 99 6 106 0 q 92 23 92 12 q 103 47 92 37 q 137 57 115 57 l 273 57 l 417 736 l 281 736 q 256 742 262 736 q 249 760 249 748 q 260 783 249 773 q 294 793 271 793 l 623 793 q 648 788 642 793 q 655 771 655 782 q 644 747 655 757 q 610 736 633 736 l 475 736 m 684 1048 l 494 909 q 465 896 476 896 q 449 902 455 896 q 442 918 442 909 q 446 934 442 927 q 466 953 450 941 l 656 1091 q 684 1105 673 1105 q 701 1098 694 1105 q 707 1082 707 1092 q 703 1066 707 1074 q 684 1048 699 1059 z "},"":{"ha":833,"x_min":133,"x_max":783,"o":"m 627 851 l 458 57 l 682 57 q 708 51 701 57 q 715 35 715 45 q 704 10 715 20 q 670 0 692 0 l 165 0 q 140 6 146 0 q 133 23 133 12 q 144 47 133 37 q 178 57 155 57 l 401 57 l 558 793 l 393 793 q 368 800 374 793 q 361 817 361 806 q 372 841 361 830 q 406 851 383 851 l 627 851 m 760 1053 l 570 915 q 541 901 552 901 q 525 908 531 901 q 518 924 518 914 q 522 940 518 932 q 542 958 526 947 l 732 1097 q 760 1110 749 1110 q 777 1104 770 1110 q 783 1088 783 1097 q 779 1072 783 1079 q 760 1053 775 1065 z "},"":{"ha":833,"x_min":92,"x_max":865,"o":"m 475 736 l 330 57 l 709 57 l 757 283 q 771 313 761 304 q 793 321 781 321 q 810 315 804 321 q 817 300 817 309 q 814 283 817 295 l 754 0 l 125 0 q 99 6 106 0 q 92 23 92 12 q 103 47 92 37 q 137 57 115 57 l 273 57 l 417 736 l 281 736 q 256 742 262 736 q 249 760 249 748 q 260 783 249 773 q 294 793 271 793 l 623 793 q 648 788 642 793 q 655 771 655 782 q 644 747 655 757 q 610 736 633 736 l 475 736 m 865 730 q 831 650 850 680 q 738 547 795 596 q 703 528 715 528 q 687 534 693 528 q 680 548 680 541 q 685 562 680 555 q 712 589 689 570 q 783 666 764 634 q 737 671 749 666 q 719 687 726 676 q 712 714 712 698 q 735 770 712 746 q 791 793 759 793 l 814 793 q 852 781 839 793 q 865 745 865 768 q 865 730 865 738 z "},"":{"ha":833,"x_min":133,"x_max":869,"o":"m 627 851 l 458 57 l 682 57 q 708 51 701 57 q 715 35 715 45 q 704 10 715 20 q 670 0 692 0 l 165 0 q 140 6 146 0 q 133 23 133 12 q 144 47 133 37 q 178 57 155 57 l 401 57 l 558 793 l 393 793 q 368 800 374 793 q 361 817 361 806 q 372 841 361 830 q 406 851 383 851 l 627 851 m 869 787 q 835 707 854 737 q 742 605 800 654 q 707 586 720 586 q 691 592 697 586 q 684 606 684 598 q 689 620 684 612 q 716 647 693 627 q 787 724 768 692 q 741 729 753 724 q 723 745 730 734 q 716 772 716 755 q 740 827 716 804 q 795 851 763 851 l 819 851 q 856 838 843 851 q 869 803 869 825 q 869 787 869 795 z "},"":{"ha":833,"x_min":92,"x_max":817,"o":"m 475 736 l 330 57 l 709 57 l 757 283 q 771 313 761 304 q 793 321 781 321 q 810 315 804 321 q 817 300 817 309 q 814 283 817 295 l 754 0 l 125 0 q 99 6 106 0 q 92 23 92 12 q 103 47 92 37 q 137 57 115 57 l 273 57 l 417 736 l 281 736 q 256 742 262 736 q 249 760 249 748 q 260 783 249 773 q 294 793 271 793 l 623 793 q 648 788 642 793 q 655 771 655 782 q 644 747 655 757 q 610 736 633 736 l 475 736 m 618 382 q 578 397 593 382 q 562 437 562 413 q 588 495 562 469 q 648 521 614 521 q 688 506 673 521 q 704 467 704 490 q 678 408 704 433 q 618 382 652 382 z "},"":{"ha":833,"x_min":133,"x_max":762,"o":"m 627 851 l 458 57 l 682 57 q 708 51 701 57 q 715 35 715 45 q 704 10 715 20 q 670 0 692 0 l 165 0 q 140 6 146 0 q 133 23 133 12 q 144 47 133 37 q 178 57 155 57 l 401 57 l 558 793 l 393 793 q 368 800 374 793 q 361 817 361 806 q 372 841 361 830 q 406 851 383 851 l 627 851 m 675 356 q 635 372 651 356 q 620 412 620 387 q 646 469 620 444 q 706 495 672 495 q 746 480 730 495 q 762 441 762 465 q 735 382 762 408 q 675 356 709 356 z "},"":{"ha":833,"x_min":66,"x_max":945,"o":"m 696 0 l 623 0 l 355 710 l 216 57 l 321 57 q 347 51 340 57 q 353 35 353 45 q 342 10 353 20 q 309 0 331 0 l 98 0 q 73 6 79 0 q 66 23 66 12 q 77 47 66 37 q 111 57 88 57 l 158 57 l 302 736 l 227 736 q 201 742 208 736 q 194 760 194 748 q 205 783 194 773 q 239 793 216 793 l 387 793 l 656 82 l 795 736 l 690 736 q 665 742 671 736 q 658 760 658 748 q 669 783 658 773 q 703 793 680 793 l 913 793 q 939 788 932 793 q 945 771 945 782 q 934 747 945 757 q 901 736 923 736 l 853 736 l 696 0 m 784 1048 l 595 909 q 566 896 576 896 q 549 902 555 896 q 543 918 543 909 q 547 934 543 927 q 566 953 551 941 l 756 1091 q 785 1105 774 1105 q 801 1098 795 1105 q 808 1082 808 1092 q 804 1066 808 1074 q 784 1048 800 1059 z "},"":{"ha":833,"x_min":79,"x_max":763,"o":"m 357 587 l 339 501 q 466 585 414 563 q 580 608 519 608 q 712 563 664 608 q 760 447 760 518 q 756 416 760 433 l 680 57 l 728 57 q 753 51 747 57 q 760 35 760 45 q 749 10 760 20 q 715 0 738 0 l 562 0 q 536 6 543 0 q 530 23 530 12 q 541 47 530 37 q 574 57 552 57 l 623 57 l 696 406 q 700 436 700 422 q 665 518 700 486 q 566 550 631 550 q 461 526 507 550 q 321 414 414 503 l 245 57 l 309 57 q 335 51 328 57 q 342 35 342 45 q 331 10 342 20 q 297 0 319 0 l 111 0 q 85 6 92 0 q 79 23 79 12 q 90 47 79 37 q 123 57 101 57 l 188 57 l 288 530 l 240 530 q 214 536 221 530 q 208 553 208 542 q 219 577 208 566 q 252 587 230 587 l 357 587 m 739 844 l 550 706 q 521 692 532 692 q 504 699 511 692 q 498 715 498 705 q 502 731 498 724 q 522 749 506 738 l 711 888 q 740 901 729 901 q 756 895 750 901 q 763 879 763 888 q 759 863 763 870 q 739 844 755 856 z "},"":{"ha":833,"x_min":66,"x_max":945,"o":"m 696 0 l 623 0 l 355 710 l 216 57 l 321 57 q 347 51 340 57 q 353 35 353 45 q 342 10 353 20 q 309 0 331 0 l 98 0 q 73 6 79 0 q 66 23 66 12 q 77 47 66 37 q 111 57 88 57 l 158 57 l 302 736 l 227 736 q 201 742 208 736 q 194 760 194 748 q 205 783 194 773 q 239 793 216 793 l 387 793 l 656 82 l 795 736 l 690 736 q 665 742 671 736 q 658 760 658 748 q 669 783 658 773 q 703 793 680 793 l 913 793 q 939 788 932 793 q 945 771 945 782 q 934 747 945 757 q 901 736 923 736 l 853 736 l 696 0 m 578 887 l 425 1027 q 411 1049 411 1039 q 422 1074 411 1063 q 447 1084 433 1084 q 468 1073 456 1084 l 593 958 l 767 1072 q 794 1084 785 1084 q 811 1077 804 1084 q 817 1061 817 1071 q 791 1027 817 1043 l 578 887 z "},"":{"ha":833,"x_min":79,"x_max":808,"o":"m 357 587 l 339 501 q 466 585 414 563 q 580 608 519 608 q 712 563 664 608 q 760 447 760 518 q 756 416 760 433 l 680 57 l 728 57 q 753 51 747 57 q 760 35 760 45 q 749 10 760 20 q 715 0 738 0 l 562 0 q 536 6 543 0 q 530 23 530 12 q 541 47 530 37 q 574 57 552 57 l 623 57 l 696 406 q 700 436 700 422 q 665 518 700 486 q 566 550 631 550 q 461 526 507 550 q 321 414 414 503 l 245 57 l 309 57 q 335 51 328 57 q 342 35 342 45 q 331 10 342 20 q 297 0 319 0 l 111 0 q 85 6 92 0 q 79 23 79 12 q 90 47 79 37 q 123 57 101 57 l 188 57 l 288 530 l 240 530 q 214 536 221 530 q 208 553 208 542 q 219 577 208 566 q 252 587 230 587 l 357 587 m 570 684 l 416 823 q 402 846 402 836 q 413 870 402 859 q 438 881 424 881 q 459 869 447 881 l 585 754 l 758 869 q 785 880 776 880 q 802 874 795 880 q 808 858 808 867 q 783 823 808 840 l 570 684 z "},"":{"ha":833,"x_min":143,"x_max":949,"o":"m 413 -22 q 220 61 297 -22 q 143 288 143 145 q 188 501 143 399 q 300 673 233 603 q 441 777 368 743 q 590 812 515 812 q 793 716 727 812 q 860 506 860 620 q 792 243 860 370 q 620 47 725 116 q 413 -22 515 -22 m 423 35 q 598 95 508 35 q 745 267 689 156 q 801 491 801 378 q 736 683 801 612 q 581 755 672 755 q 455 725 517 755 q 336 634 393 694 q 240 485 279 574 q 201 304 201 397 q 266 106 201 178 q 423 35 331 35 m 722 1049 l 562 911 q 531 895 543 895 q 514 901 521 895 q 508 918 508 907 q 528 950 508 932 l 689 1088 q 720 1104 707 1104 q 737 1098 730 1104 q 743 1081 743 1091 q 722 1049 743 1067 m 928 1049 l 768 911 q 736 895 749 895 q 720 901 726 895 q 713 918 713 907 q 734 950 713 932 l 895 1088 q 926 1104 913 1104 q 942 1098 936 1104 q 949 1081 949 1091 q 928 1049 949 1067 z "},"":{"ha":833,"x_min":154,"x_max":893,"o":"m 410 -22 q 226 48 298 -22 q 154 229 154 119 q 208 409 154 317 q 357 554 262 501 q 549 608 452 608 q 732 537 660 608 q 804 361 804 467 q 751 178 804 269 q 603 33 699 87 q 410 -22 508 -22 m 422 35 q 581 80 503 35 q 702 199 659 125 q 745 349 745 274 q 686 492 745 435 q 536 550 627 550 q 413 524 470 550 q 313 457 357 498 q 241 358 269 416 q 212 240 212 301 q 271 93 212 151 q 422 35 330 35 m 667 846 l 506 707 q 475 692 488 692 q 459 698 465 692 q 452 714 452 704 q 473 747 452 729 l 633 885 q 665 901 652 901 q 681 894 675 901 q 688 878 688 888 q 667 846 688 863 m 872 846 l 712 707 q 681 692 694 692 q 664 698 671 692 q 658 714 658 704 q 679 747 658 729 l 839 885 q 870 901 857 901 q 887 894 880 901 q 893 878 893 888 q 872 846 893 863 z "},"":{"ha":833,"x_min":66,"x_max":831,"o":"m 307 354 l 244 57 l 349 57 q 375 51 368 57 q 382 35 382 45 q 371 10 382 20 q 337 0 359 0 l 98 0 q 73 6 79 0 q 66 23 66 12 q 77 47 66 37 q 111 57 88 57 l 187 57 l 332 736 l 255 736 q 229 742 236 736 q 222 760 222 748 q 234 783 222 773 q 267 793 245 793 l 611 793 q 763 740 705 793 q 821 611 821 686 q 764 475 821 541 q 578 369 707 410 q 661 276 629 328 q 754 57 693 224 l 798 57 q 824 51 817 57 q 831 35 831 45 q 820 10 831 20 q 786 0 808 0 l 709 0 q 601 253 646 189 q 488 354 555 318 l 307 354 m 319 411 l 474 411 q 625 442 553 411 q 730 517 697 473 q 763 598 763 560 q 717 694 763 652 q 598 736 671 736 l 389 736 l 319 411 m 734 1048 l 545 909 q 516 896 527 896 q 499 902 506 896 q 493 918 493 909 q 497 934 493 927 q 517 953 501 941 l 707 1091 q 735 1105 724 1105 q 752 1098 745 1105 q 758 1082 758 1092 q 754 1066 758 1074 q 734 1048 750 1059 z "},"":{"ha":833,"x_min":121,"x_max":865,"o":"m 473 587 l 443 444 q 638 573 578 545 q 745 602 699 602 q 828 570 791 602 q 865 522 865 539 q 854 496 865 507 q 829 486 844 486 q 818 488 822 486 q 804 503 814 490 q 769 536 785 527 q 737 545 753 545 q 641 515 699 545 q 427 369 582 485 l 361 57 l 613 57 q 640 51 633 57 q 646 35 646 45 q 635 10 646 20 q 601 0 623 0 l 154 0 q 128 6 135 0 q 121 22 121 12 q 132 45 121 35 q 165 55 143 55 l 303 55 l 404 530 l 299 530 q 273 536 280 530 q 267 552 267 542 q 278 577 267 566 q 311 587 289 587 l 473 587 m 788 844 l 599 706 q 570 692 581 692 q 553 699 559 692 q 547 715 547 705 q 551 731 547 724 q 570 749 555 738 l 760 888 q 789 901 778 901 q 805 895 799 901 q 812 879 812 888 q 808 863 812 870 q 788 844 804 856 z "},"":{"ha":833,"x_min":66,"x_max":831,"o":"m 307 354 l 244 57 l 349 57 q 375 51 368 57 q 382 35 382 45 q 371 10 382 20 q 337 0 359 0 l 98 0 q 73 6 79 0 q 66 23 66 12 q 77 47 66 37 q 111 57 88 57 l 187 57 l 332 736 l 255 736 q 229 742 236 736 q 222 760 222 748 q 234 783 222 773 q 267 793 245 793 l 611 793 q 763 740 705 793 q 821 611 821 686 q 764 475 821 541 q 578 369 707 410 q 661 276 629 328 q 754 57 693 224 l 798 57 q 824 51 817 57 q 831 35 831 45 q 820 10 831 20 q 786 0 808 0 l 709 0 q 601 253 646 189 q 488 354 555 318 l 307 354 m 319 411 l 474 411 q 625 442 553 411 q 730 517 697 473 q 763 598 763 560 q 717 694 763 652 q 598 736 671 736 l 389 736 l 319 411 m 543 887 l 389 1027 q 375 1049 375 1039 q 386 1074 375 1063 q 411 1084 397 1084 q 432 1073 420 1084 l 557 958 l 731 1072 q 758 1084 749 1084 q 775 1077 768 1084 q 781 1061 781 1071 q 755 1027 781 1043 l 543 887 z "},"":{"ha":833,"x_min":121,"x_max":865,"o":"m 473 587 l 443 444 q 638 573 578 545 q 745 602 699 602 q 828 570 791 602 q 865 522 865 539 q 854 496 865 507 q 829 486 844 486 q 818 488 822 486 q 804 503 814 490 q 769 536 785 527 q 737 545 753 545 q 641 515 699 545 q 427 369 582 485 l 361 57 l 613 57 q 640 51 633 57 q 646 35 646 45 q 635 10 646 20 q 601 0 623 0 l 154 0 q 128 6 135 0 q 121 22 121 12 q 132 45 121 35 q 165 55 143 55 l 303 55 l 404 530 l 299 530 q 273 536 280 530 q 267 552 267 542 q 278 577 267 566 q 311 587 289 587 l 473 587 m 584 684 l 430 823 q 416 846 416 836 q 427 870 416 859 q 452 881 438 881 q 473 869 461 881 l 599 754 l 772 869 q 800 880 790 880 q 816 874 810 880 q 823 858 823 867 q 797 823 823 840 l 584 684 z "},"":{"ha":833,"x_min":132,"x_max":841,"o":"m 777 736 q 792 782 785 774 q 819 793 804 793 q 834 787 828 793 q 841 772 841 781 q 838 755 841 767 l 808 610 q 793 581 803 590 q 770 572 783 572 q 754 578 761 572 q 748 593 748 585 q 750 607 748 598 q 751 626 751 616 q 705 716 751 677 q 578 755 659 755 q 403 695 471 755 q 335 564 335 636 q 376 482 335 510 q 519 436 416 454 q 657 404 621 418 q 733 349 707 384 q 759 261 759 313 q 717 124 759 191 q 591 18 675 58 q 415 -22 506 -22 q 287 1 341 -22 q 198 71 233 24 l 191 38 q 177 9 187 18 q 154 0 167 0 q 138 6 144 0 q 132 21 132 12 q 134 38 132 27 l 168 195 q 181 225 172 216 q 204 234 191 234 q 221 228 214 234 q 227 214 227 222 q 225 199 227 209 q 224 180 224 190 q 277 78 224 122 q 428 35 330 35 q 568 66 502 35 q 668 148 635 98 q 701 247 701 197 q 681 311 701 284 q 621 355 661 338 q 503 382 594 366 q 330 441 382 403 q 277 552 277 479 q 366 732 277 652 q 588 812 454 812 q 695 793 648 812 q 777 736 743 774 m 814 1048 l 625 909 q 595 896 606 896 q 579 902 585 896 q 572 918 572 909 q 576 934 572 927 q 596 953 581 941 l 786 1091 q 814 1105 804 1105 q 831 1098 825 1105 q 838 1082 838 1092 q 833 1066 838 1074 q 814 1048 829 1059 z "},"":{"ha":833,"x_min":146,"x_max":782,"o":"m 722 550 q 736 578 726 570 q 759 587 747 587 q 775 581 769 587 q 782 566 782 574 q 779 549 782 560 l 759 451 q 744 422 754 431 q 722 413 734 413 q 706 419 712 413 q 699 433 699 425 l 700 445 q 701 455 701 450 q 668 515 701 492 q 533 550 620 550 q 367 505 429 550 q 321 435 321 472 q 361 375 321 398 q 484 348 390 359 q 619 324 578 338 q 704 271 676 306 q 732 193 732 237 q 695 93 732 143 q 583 10 659 43 q 414 -22 508 -22 q 295 -5 347 -22 q 208 46 243 12 q 194 10 202 18 q 169 0 182 0 q 153 6 159 0 q 146 21 146 12 q 149 38 146 27 l 174 155 q 188 184 178 176 q 211 193 198 193 q 227 187 220 193 q 233 172 233 180 q 231 156 233 166 q 229 141 229 146 q 269 73 229 102 q 424 35 322 35 q 609 83 545 35 q 673 178 673 131 q 654 229 673 204 q 597 268 635 254 q 473 292 559 283 q 347 315 387 301 q 285 357 307 329 q 262 422 262 386 q 292 506 262 465 q 389 577 321 547 q 542 608 457 608 q 646 593 601 608 q 722 550 691 579 m 751 844 l 562 706 q 532 692 543 692 q 516 699 522 692 q 509 715 509 705 q 513 731 509 724 q 533 749 517 738 l 723 888 q 751 901 741 901 q 768 895 762 901 q 774 879 774 888 q 770 863 774 870 q 751 844 766 856 z "},"":{"ha":833,"x_min":207,"x_max":904,"o":"m 602 736 l 457 57 l 605 57 q 631 51 624 57 q 637 35 637 45 q 626 10 637 20 q 593 0 615 0 l 239 0 q 214 6 220 0 q 207 23 207 12 q 218 47 207 37 q 252 57 229 57 l 399 57 l 544 736 l 311 736 l 269 539 q 255 509 264 518 q 232 500 245 500 q 215 507 222 500 q 209 522 209 513 q 212 539 209 528 l 266 793 l 904 793 l 850 539 q 836 509 846 518 q 812 500 825 500 q 797 507 803 500 q 790 522 790 513 q 793 539 790 528 l 835 736 l 602 736 m 374 -104 l 395 0 q 406 21 399 15 q 422 27 413 27 q 434 23 429 27 q 438 12 438 18 q 437 0 438 7 l 422 -65 q 471 -86 454 -70 q 488 -125 488 -103 q 456 -190 488 -161 q 372 -219 425 -219 q 309 -208 342 -219 q 267 -186 276 -196 q 262 -172 262 -180 q 269 -155 262 -163 q 287 -148 277 -148 q 301 -153 294 -148 q 380 -178 342 -178 q 428 -163 410 -178 q 446 -134 446 -149 q 437 -115 446 -122 q 401 -104 422 -104 l 374 -104 z "},"":{"ha":833,"x_min":220,"x_max":769,"o":"m 427 587 l 736 587 q 763 582 756 587 q 769 565 769 576 q 764 545 769 553 q 753 534 760 537 q 724 530 744 530 l 415 530 l 334 151 q 331 121 331 134 q 365 61 331 88 q 463 35 398 35 q 594 52 523 35 q 707 91 665 68 q 731 100 722 100 q 747 93 741 100 q 753 76 753 87 q 736 50 753 62 q 590 -5 694 20 q 450 -22 515 -22 q 319 17 366 -22 q 273 112 273 56 q 277 151 273 130 l 357 530 l 252 530 q 227 536 233 530 q 220 553 220 542 q 231 577 220 566 q 264 587 242 587 l 370 587 l 406 755 q 420 785 410 776 q 443 793 430 793 q 459 787 452 793 q 465 772 465 781 q 463 755 465 767 l 427 587 m 414 -111 l 436 -7 q 447 14 439 8 q 463 20 454 20 q 474 16 470 20 q 479 5 479 12 q 477 -7 479 1 l 463 -72 q 512 -93 495 -77 q 528 -132 528 -110 q 497 -197 528 -168 q 413 -226 465 -226 q 350 -214 382 -226 q 308 -193 317 -203 q 302 -179 302 -186 q 310 -162 302 -170 q 328 -155 317 -155 q 342 -159 334 -155 q 420 -185 382 -185 q 469 -170 450 -185 q 487 -140 487 -155 q 478 -121 487 -129 q 442 -111 463 -111 l 414 -111 z "},"":{"ha":833,"x_min":207,"x_max":904,"o":"m 602 736 l 457 57 l 605 57 q 631 51 624 57 q 637 35 637 45 q 626 10 637 20 q 593 0 615 0 l 239 0 q 214 6 220 0 q 207 23 207 12 q 218 47 207 37 q 252 57 229 57 l 399 57 l 544 736 l 311 736 l 269 539 q 255 509 264 518 q 232 500 245 500 q 215 507 222 500 q 209 522 209 513 q 212 539 209 528 l 266 793 l 904 793 l 850 539 q 836 509 846 518 q 812 500 825 500 q 797 507 803 500 q 790 522 790 513 q 793 539 790 528 l 835 736 l 602 736 m 604 887 l 450 1027 q 436 1049 436 1039 q 447 1074 436 1063 q 472 1084 458 1084 q 493 1073 481 1084 l 618 958 l 792 1072 q 819 1084 810 1084 q 836 1077 829 1084 q 842 1061 842 1071 q 817 1027 842 1043 l 604 887 z "},"":{"ha":833,"x_min":220,"x_max":1014,"o":"m 427 587 l 736 587 q 763 582 756 587 q 769 565 769 576 q 764 545 769 553 q 753 534 760 537 q 724 530 744 530 l 415 530 l 334 151 q 331 121 331 134 q 365 61 331 88 q 463 35 398 35 q 594 52 523 35 q 707 91 665 68 q 731 100 722 100 q 747 93 741 100 q 753 76 753 87 q 736 50 753 62 q 590 -5 694 20 q 450 -22 515 -22 q 319 17 366 -22 q 273 112 273 56 q 277 151 273 130 l 357 530 l 252 530 q 227 536 233 530 q 220 553 220 542 q 231 577 220 566 q 264 587 242 587 l 370 587 l 406 755 q 420 785 410 776 q 443 793 430 793 q 459 787 452 793 q 465 772 465 781 q 463 755 465 767 l 427 587 m 1013 787 q 979 707 999 737 q 886 605 944 654 q 851 586 864 586 q 835 592 842 586 q 829 606 829 598 q 833 620 829 612 q 861 647 838 627 q 932 724 912 692 q 886 729 897 724 q 867 745 874 734 q 861 772 861 755 q 884 827 861 804 q 939 851 907 851 l 963 851 q 1001 838 987 851 q 1014 803 1014 825 q 1013 787 1014 795 z "},"":{"ha":833,"x_min":191,"x_max":941,"o":"m 849 736 l 748 260 q 624 58 722 139 q 410 -22 526 -22 q 252 39 314 -22 q 191 201 191 101 q 197 260 191 228 l 298 736 l 251 736 q 225 742 232 736 q 218 759 218 748 q 230 783 218 773 q 263 793 241 793 l 473 793 q 499 788 492 793 q 506 771 506 782 q 494 747 506 757 q 461 736 483 736 l 356 736 l 255 260 q 250 211 250 236 q 299 84 250 134 q 420 35 348 35 q 530 60 478 35 q 629 139 582 85 q 690 260 676 194 l 792 736 l 687 736 q 661 742 668 736 q 654 760 654 748 q 665 783 654 773 q 699 793 677 793 l 909 793 q 935 788 928 793 q 941 771 941 782 q 930 747 941 757 q 897 736 919 736 l 849 736 m 608 863 q 537 890 565 863 q 509 959 509 918 q 555 1059 509 1014 q 661 1104 602 1104 q 732 1077 705 1104 q 760 1010 760 1050 q 714 907 760 952 q 608 863 668 863 m 617 903 q 688 933 657 903 q 718 1001 718 963 q 700 1045 718 1027 q 652 1063 682 1063 q 582 1034 612 1063 q 551 968 551 1004 q 570 922 551 940 q 617 903 588 903 z "},"":{"ha":833,"x_min":180,"x_max":793,"o":"m 612 0 l 629 83 q 353 -22 490 -22 q 245 17 285 -22 q 205 116 205 56 q 211 162 205 138 l 289 530 l 212 530 q 186 536 193 530 q 180 553 180 542 q 191 577 180 566 q 224 587 202 587 l 358 587 l 268 162 q 265 133 265 148 q 292 61 265 88 q 363 35 318 35 q 646 162 504 35 l 724 530 l 619 530 q 593 536 600 530 q 587 553 587 542 q 598 577 587 566 q 631 587 609 587 l 793 587 l 681 57 l 729 57 q 755 51 748 57 q 762 35 762 45 q 750 10 762 20 q 717 0 739 0 l 612 0 m 553 684 q 481 711 509 684 q 454 780 454 739 q 500 880 454 835 q 606 925 546 925 q 677 898 649 925 q 705 831 705 871 q 659 728 705 773 q 553 684 612 684 m 562 724 q 632 754 602 724 q 663 822 663 784 q 644 866 663 848 q 597 884 626 884 q 526 854 557 884 q 496 789 496 825 q 514 743 496 761 q 562 724 532 724 z "},"":{"ha":833,"x_min":191,"x_max":941,"o":"m 849 736 l 748 260 q 624 58 722 139 q 410 -22 526 -22 q 252 39 314 -22 q 191 201 191 101 q 197 260 191 228 l 298 736 l 251 736 q 225 742 232 736 q 218 759 218 748 q 230 783 218 773 q 263 793 241 793 l 473 793 q 499 788 492 793 q 506 771 506 782 q 494 747 506 757 q 461 736 483 736 l 356 736 l 255 260 q 250 211 250 236 q 299 84 250 134 q 420 35 348 35 q 530 60 478 35 q 629 139 582 85 q 690 260 676 194 l 792 736 l 687 736 q 661 742 668 736 q 654 760 654 748 q 665 783 654 773 q 699 793 677 793 l 909 793 q 935 788 928 793 q 941 771 941 782 q 930 747 941 757 q 897 736 919 736 l 849 736 m 689 1049 l 528 911 q 498 895 510 895 q 481 901 488 895 q 475 918 475 907 q 495 950 475 932 l 656 1088 q 687 1104 674 1104 q 704 1098 697 1104 q 710 1081 710 1091 q 689 1049 710 1067 m 895 1049 l 734 911 q 703 895 716 895 q 687 901 693 895 q 680 918 680 907 q 701 950 680 932 l 861 1088 q 892 1104 880 1104 q 909 1098 903 1104 q 916 1081 916 1091 q 895 1049 916 1067 z "},"":{"ha":833,"x_min":180,"x_max":868,"o":"m 612 0 l 629 83 q 353 -22 490 -22 q 245 17 285 -22 q 205 116 205 56 q 211 162 205 138 l 289 530 l 212 530 q 186 536 193 530 q 180 553 180 542 q 191 577 180 566 q 224 587 202 587 l 358 587 l 268 162 q 265 133 265 148 q 292 61 265 88 q 363 35 318 35 q 646 162 504 35 l 724 530 l 619 530 q 593 536 600 530 q 587 553 587 542 q 598 577 587 566 q 631 587 609 587 l 793 587 l 681 57 l 729 57 q 755 51 748 57 q 762 35 762 45 q 750 10 762 20 q 717 0 739 0 l 612 0 m 642 846 l 481 707 q 450 692 463 692 q 434 698 440 692 q 427 714 427 704 q 448 747 427 729 l 608 885 q 640 901 627 901 q 656 894 650 901 q 663 878 663 888 q 642 846 663 863 m 847 846 l 687 707 q 656 692 669 692 q 639 698 646 692 q 633 714 633 704 q 654 747 633 729 l 814 885 q 845 901 832 901 q 862 894 855 901 q 868 878 868 888 q 847 846 868 863 z "},"":{"ha":833,"x_min":144,"x_max":831,"o":"m 693 0 l 144 0 l 162 83 l 762 732 l 764 736 l 385 736 l 349 569 q 334 539 344 548 q 311 530 324 530 q 295 537 302 530 q 289 551 289 543 q 292 569 289 557 l 339 793 l 831 793 l 814 713 l 212 63 l 212 57 l 648 57 l 690 256 q 705 286 694 277 q 727 294 715 294 q 744 288 737 294 q 750 273 750 281 q 747 256 750 267 l 693 0 m 799 1048 l 610 909 q 581 896 591 896 q 564 902 570 896 q 557 918 557 909 q 562 934 557 927 q 581 953 566 941 l 771 1091 q 800 1105 789 1105 q 816 1098 810 1105 q 823 1082 823 1092 q 819 1066 823 1074 q 799 1048 814 1059 z "},"":{"ha":833,"x_min":161,"x_max":791,"o":"m 791 587 l 780 536 l 252 57 l 637 57 l 654 136 q 668 165 658 156 q 690 174 677 174 q 707 168 701 174 q 713 153 713 161 q 711 136 713 146 l 682 0 l 161 0 l 172 51 l 699 530 l 344 530 l 328 452 q 313 423 323 431 q 290 414 303 414 q 274 420 281 414 q 268 435 268 427 q 270 452 268 441 l 299 587 l 791 587 m 754 844 l 565 706 q 536 692 547 692 q 519 699 526 692 q 513 715 513 705 q 517 731 513 724 q 536 749 521 738 l 726 888 q 755 901 744 901 q 771 895 765 901 q 778 879 778 888 q 774 863 778 870 q 754 844 770 856 z "},"":{"ha":833,"x_min":144,"x_max":831,"o":"m 693 0 l 144 0 l 162 83 l 762 732 l 764 736 l 385 736 l 349 569 q 334 539 344 548 q 311 530 324 530 q 295 537 302 530 q 289 551 289 543 q 292 569 289 557 l 339 793 l 831 793 l 814 713 l 212 63 l 212 57 l 648 57 l 690 256 q 705 286 694 277 q 727 294 715 294 q 744 288 737 294 q 750 273 750 281 q 747 256 750 267 l 693 0 m 615 912 q 575 928 591 912 q 559 968 559 943 q 586 1025 559 1000 q 646 1051 612 1051 q 686 1036 670 1051 q 701 997 701 1020 q 675 938 701 964 q 615 912 649 912 z "},"":{"ha":833,"x_min":161,"x_max":791,"o":"m 791 587 l 780 536 l 252 57 l 637 57 l 654 136 q 668 165 658 156 q 690 174 677 174 q 707 168 701 174 q 713 153 713 161 q 711 136 713 146 l 682 0 l 161 0 l 172 51 l 699 530 l 344 530 l 328 452 q 313 423 323 431 q 290 414 303 414 q 274 420 281 414 q 268 435 268 427 q 270 452 268 441 l 299 587 l 791 587 m 570 709 q 530 724 546 709 q 515 764 515 740 q 541 822 515 796 q 601 848 567 848 q 641 832 625 848 q 656 793 656 817 q 630 734 656 760 q 570 709 604 709 z "},"":{"ha":833,"x_min":65,"x_max":932,"o":"m 402 736 l 258 736 q 224 760 224 736 q 269 793 224 793 l 932 793 l 878 539 q 841 500 870 500 q 819 522 819 500 q 821 539 819 528 l 863 736 l 460 736 l 315 57 l 463 57 q 496 35 496 57 q 451 0 496 0 l 98 0 q 65 23 65 0 q 110 57 65 57 l 258 57 l 402 736 z "},"":{"ha":833,"x_min":143,"x_max":860,"o":"m 413 -22 q 215 68 286 -22 q 143 289 143 159 q 281 650 143 488 q 590 812 419 812 q 791 719 722 812 q 860 506 860 626 q 722 139 860 301 q 413 -22 584 -22 m 423 35 q 683 175 566 35 q 801 491 801 315 q 739 680 801 606 q 581 755 677 755 q 396 688 486 755 q 254 516 307 622 q 201 303 201 410 q 264 109 201 184 q 423 35 326 35 m 374 423 l 641 423 l 653 479 q 684 520 662 520 q 709 494 709 520 q 705 467 709 488 l 671 310 q 641 269 663 269 q 615 296 615 269 q 619 322 615 302 l 629 366 l 362 366 l 350 310 q 319 269 340 269 q 294 296 294 269 q 298 322 294 302 l 332 479 q 361 520 340 520 q 388 494 388 520 q 383 467 388 488 l 374 423 z "},"":{"ha":833,"x_min":143,"x_max":866,"o":"m 606 736 l 590 667 q 800 603 733 664 q 866 448 866 543 q 773 225 866 323 q 476 126 680 127 l 460 57 l 548 57 q 581 35 581 57 q 536 0 581 0 l 317 0 q 284 23 284 0 q 329 57 284 57 l 404 57 l 418 126 q 210 190 277 130 q 143 346 143 251 q 185 503 143 427 q 309 622 228 578 q 533 667 390 666 l 548 736 l 461 736 q 429 759 429 736 q 473 793 429 793 l 692 793 q 725 771 725 793 q 680 736 725 736 l 606 736 m 521 610 q 282 533 364 607 q 200 345 200 459 q 219 268 200 301 q 284 209 238 234 q 431 184 330 184 l 521 610 m 578 610 l 488 184 q 730 264 652 184 q 808 448 808 345 q 790 526 808 492 q 725 585 771 560 q 578 610 679 610 z "},"":{"ha":833,"x_min":130,"x_max":879,"o":"m 699 57 l 768 57 q 801 35 801 57 q 756 0 801 0 l 642 0 l 642 170 q 464 9 526 40 q 343 -22 402 -22 q 190 43 250 -22 q 130 221 130 109 q 172 402 130 312 q 290 550 214 492 q 454 608 366 608 q 613 537 550 608 q 693 339 677 467 q 819 574 775 460 q 852 608 832 608 q 879 581 879 608 q 825 450 879 561 q 699 249 770 340 l 699 57 m 642 265 q 453 550 631 550 q 267 447 348 550 q 186 222 186 345 q 234 81 186 127 q 342 35 281 35 q 642 265 475 35 z "},"":{"ha":833,"x_min":178,"x_max":820,"o":"m 414 793 l 644 583 q 744 471 704 528 q 783 339 783 414 q 676 88 783 199 q 425 -22 569 -22 q 246 48 314 -22 q 178 223 178 119 q 284 471 178 365 q 524 577 389 577 q 569 574 543 577 l 364 761 l 384 851 l 787 851 q 820 828 820 851 q 775 793 820 793 l 414 793 m 532 520 q 324 431 412 520 q 235 220 235 341 q 289 88 235 141 q 426 35 342 35 q 637 130 549 35 q 726 338 726 224 q 679 464 726 408 q 532 520 633 520 z "},"":{"ha":833,"x_min":210,"x_max":781,"o":"m 387 317 q 304 433 304 350 q 368 559 304 510 q 532 608 431 608 q 711 547 636 608 q 721 574 717 562 q 752 608 731 608 q 781 581 781 608 q 774 553 781 571 q 747 439 751 492 q 717 404 745 404 q 690 438 690 404 q 680 495 690 475 q 630 532 669 514 q 530 550 591 550 q 409 517 456 550 q 361 439 361 484 q 555 336 361 340 l 543 279 q 336 233 404 279 q 267 132 267 187 q 310 62 267 89 q 438 35 353 35 q 595 65 520 35 q 633 78 627 78 q 657 52 657 78 q 596 2 657 27 q 441 -22 536 -22 q 270 19 330 -22 q 210 131 210 61 q 254 242 210 189 q 387 317 298 296 z "},"":{"ha":833,"x_min":139,"x_max":912,"o":"m 681 550 q 773 348 773 473 q 662 91 773 205 q 404 -22 551 -22 q 216 48 292 -22 q 139 231 139 119 q 169 369 139 300 q 254 493 199 437 q 371 573 309 548 q 471 603 433 598 q 628 608 509 608 l 880 608 q 912 585 912 608 q 867 550 912 550 l 681 550 m 520 550 q 297 454 398 550 q 196 229 196 359 q 252 92 196 149 q 404 35 309 35 q 622 132 528 35 q 715 347 715 229 q 659 493 715 437 q 520 550 603 550 z "},"":{"ha":833,"x_min":276,"x_max":760,"o":"m 547 530 l 457 103 q 450 65 450 71 q 499 35 450 35 q 574 52 531 35 q 596 58 587 58 q 621 31 621 58 q 581 -9 621 3 q 499 -22 541 -22 q 421 0 449 -22 q 393 60 393 23 q 399 106 393 78 l 488 530 l 395 530 q 322 526 342 530 q 302 523 307 523 q 276 551 276 523 q 291 578 276 569 q 395 587 306 587 l 728 587 q 760 564 760 587 q 715 530 760 530 l 547 530 z "},"":{"ha":833,"x_min":143,"x_max":830,"o":"m 356 -13 q 199 80 254 9 q 143 253 143 152 q 235 507 143 406 q 387 608 328 608 q 412 582 412 608 q 381 551 412 565 q 255 437 309 516 q 200 258 200 357 q 368 45 200 83 l 429 343 q 506 549 458 490 q 636 608 553 608 q 776 537 722 608 q 830 368 830 467 q 711 94 830 211 q 447 -22 592 -22 q 413 -21 435 -22 l 372 -220 q 360 -253 366 -245 q 339 -262 354 -262 q 311 -235 311 -262 q 315 -209 311 -228 l 356 -13 m 425 36 q 452 35 445 35 q 670 134 567 35 q 773 368 773 233 q 732 502 773 453 q 637 550 692 550 q 552 513 589 550 q 488 344 515 476 l 425 36 z "},"":{"ha":833,"x_min":-94,"x_max":779,"o":"m 733 -380 l -61 -380 q -81 -378 -76 -380 q -90 -370 -86 -376 q -94 -357 -94 -365 q -82 -334 -94 -344 q -49 -323 -71 -323 l 745 -323 q 770 -328 764 -323 q 779 -346 779 -335 q 767 -370 779 -360 q 733 -380 755 -380 m 733 -233 l -61 -233 q -81 -231 -76 -233 q -90 -223 -86 -229 q -94 -210 -94 -218 q -82 -186 -94 -197 q -49 -176 -71 -176 l 745 -176 q 770 -181 764 -176 q 779 -199 779 -188 q 767 -223 779 -213 q 733 -233 755 -233 z "},"":{"ha":833,"x_min":186,"x_max":803,"o":"m 484 793 l 361 334 q 345 303 355 311 q 323 294 336 294 q 308 301 314 294 q 302 317 302 307 q 303 334 302 322 l 376 793 q 401 854 382 836 q 447 871 420 871 q 479 860 467 871 q 492 831 492 848 q 484 793 492 821 m 273 121 l 300 121 q 341 105 326 121 q 357 65 357 89 q 331 5 357 31 q 270 -20 304 -20 l 243 -20 q 202 -5 218 -20 q 186 35 186 11 q 213 95 186 69 q 273 121 239 121 m 795 793 l 672 334 q 656 303 666 311 q 635 294 647 294 q 619 301 625 294 q 613 317 613 307 q 614 334 613 322 l 687 793 q 712 854 694 836 q 758 871 731 871 q 790 860 778 871 q 803 831 803 848 q 795 793 803 821 m 585 121 l 612 121 q 653 105 637 121 q 669 65 669 89 q 642 5 669 31 q 581 -20 616 -20 l 555 -20 q 514 -5 530 -20 q 498 35 498 11 q 524 95 498 69 q 585 121 551 121 z "},"":{"ha":833,"x_min":269,"x_max":708,"o":"m 455 712 l 444 659 q 525 711 490 696 q 600 726 560 726 q 679 699 650 726 q 708 635 708 672 q 697 558 708 610 l 662 393 q 688 392 682 394 q 697 385 694 389 q 701 374 701 380 q 696 356 701 363 q 682 344 691 348 q 650 340 673 340 l 597 340 q 571 342 577 340 q 562 350 566 345 q 558 360 558 355 q 564 378 558 370 q 578 390 569 386 q 609 393 587 394 l 644 562 q 653 619 653 603 q 636 657 653 642 q 588 673 618 673 q 519 656 555 673 q 428 585 484 639 l 387 393 l 408 393 q 434 388 427 393 q 441 374 441 382 q 430 350 441 359 q 397 340 420 340 l 302 340 q 276 346 283 340 q 269 361 269 351 q 280 384 269 375 q 313 393 291 393 l 334 393 l 391 659 l 370 659 q 343 665 350 659 q 337 681 337 670 q 348 703 337 694 q 381 712 358 712 l 455 712 z "},"":{"ha":833,"x_min":15,"x_max":867,"o":"m 248 435 l 168 57 l 229 57 q 254 52 248 57 q 262 35 262 45 q 251 10 262 20 q 217 0 239 0 l 47 0 q 22 5 28 0 q 15 23 15 12 q 21 40 15 31 q 35 54 26 49 q 60 57 42 57 l 111 58 l 255 736 l 204 736 q 179 741 185 736 q 172 760 172 748 q 183 783 172 773 q 216 793 194 793 l 484 793 q 661 775 611 793 q 733 725 710 758 q 757 648 757 692 q 722 543 757 595 q 627 463 687 490 q 456 435 568 435 l 248 435 m 260 492 l 444 492 q 600 510 555 492 q 672 564 646 528 q 699 636 699 601 q 682 688 699 666 q 625 724 665 711 q 477 736 585 736 l 313 736 l 260 492 m 397 302 l 552 302 q 576 297 571 302 q 585 279 585 290 q 573 255 585 265 q 540 245 562 245 l 385 245 l 363 142 q 353 83 353 100 q 365 58 353 68 q 397 47 376 47 q 488 67 431 47 q 505 71 498 71 q 517 64 512 71 q 522 46 522 58 q 515 27 522 35 q 473 5 504 14 q 380 -9 425 -9 q 315 13 338 -9 q 292 68 292 35 q 298 108 292 81 l 327 245 l 305 245 q 280 250 286 245 q 272 268 272 257 q 279 287 272 277 q 295 300 286 296 q 339 302 302 302 l 351 359 q 366 389 356 380 q 389 397 376 397 q 405 391 398 397 q 411 377 411 385 q 409 359 411 371 l 397 302 m 814 294 q 848 319 828 319 q 862 314 857 319 q 867 301 867 310 q 848 229 867 288 q 832 198 841 205 q 812 191 824 191 q 796 197 802 191 q 791 216 792 201 q 779 239 789 231 q 726 252 760 252 q 667 236 689 252 q 650 210 650 224 q 661 191 650 199 q 728 177 672 183 q 826 152 808 167 q 845 110 845 137 q 804 28 845 63 q 692 -7 763 -7 q 646 -2 668 -7 q 604 14 624 3 q 572 -9 592 -9 q 554 -2 560 -9 q 547 28 547 6 q 561 102 547 83 q 590 121 574 121 q 607 116 602 121 q 613 99 613 111 q 618 75 614 81 q 651 57 627 65 q 707 50 675 50 q 766 63 746 50 q 785 90 785 77 q 777 104 785 98 q 739 114 768 111 q 629 134 650 121 q 591 196 591 155 q 631 275 591 241 q 739 309 671 309 q 773 305 755 309 q 814 294 792 301 z "}}}
